<?xml version="1.0" encoding="utf-8"?>
<!-- Generator: Adobe Illustrator 16.0.4, SVG Export Plug-In . SVG Version: 6.00 Build 0)  -->
<!DOCTYPE svg PUBLIC "-//W3C//DTD SVG 1.1//EN" "http://www.w3.org/Graphics/SVG/1.1/DTD/svg11.dtd">
<svg version="1.1" id="レイヤー_1" xmlns="http://www.w3.org/2000/svg" xmlns:xlink="http://www.w3.org/1999/xlink" x="0px"
	 y="0px" width="19.398px" height="19.398px" viewBox="0 0 19.398 19.398" enable-background="new 0 0 19.398 19.398"
	 xml:space="preserve">
<g>
	<path fill="#5476BA" d="M9.676,6.389c-0.531,0-0.966,0.209-1.261,0.531C8.053,7.339,7.938,7.816,7.938,9.721
		c0,1.904,0.114,2.367,0.477,2.787c0.295,0.322,0.729,0.547,1.261,0.547c0.239,0,0.448-0.057,0.645-0.182l-0.868-0.855l1.022-1.037
		l0.757,0.757c0.139-0.435,0.182-1.009,0.182-2.017c0-1.904-0.126-2.382-0.49-2.801C10.643,6.598,10.208,6.389,9.676,6.389z"/>
	<path fill="#5476BA" d="M9.699,0C4.342,0,0,4.343,0,9.699c0,5.357,4.342,9.699,9.699,9.699c5.356,0,9.699-4.342,9.699-9.699
		C19.398,4.343,15.056,0,9.699,0z M12.575,15.126l-0.897-0.869c-0.531,0.336-1.203,0.533-2.002,0.533
		c-1.147,0-1.987-0.379-2.674-1.051c-0.995-0.994-1.009-2.115-1.009-4.019c0-1.904,0.014-3.024,1.009-4.019
		C7.688,5.029,8.528,4.65,9.676,4.65c1.149,0,1.989,0.379,2.661,1.052c0.995,0.994,1.023,2.114,1.023,4.019
		c0,1.61-0.014,2.646-0.618,3.529l0.854,0.854L12.575,15.126z"/>
</g>
</svg>
