<svg id="レイヤー_3" data-name="レイヤー 3" xmlns="http://www.w3.org/2000/svg" viewBox="0 0 26.95 25.44"><defs><style>.cls-1{fill:#e0e0e0;}</style></defs><title>icon_cojp_support_parts</title><path class="cls-1" d="M484.06,279.22a2.85,2.85,0,0,1,1.87-.45l7.36-7.18-4.12-4-7.37,7.18a2.66,2.66,0,0,1-.48,1.84Z" transform="translate(-466.34 -267.56)"/><path class="cls-1" d="M471.21,288l-0.27-.26-1.4,1.1-2.35,3.61,0.6,0.59,3.71-2.29,1.13-1.36-0.27-.26,4.68-4.57-1.16-1.12Z" transform="translate(-466.34 -267.56)"/><path class="cls-1" d="M477.62,275.3a5.51,5.51,0,0,0-1.47-5.47,5.85,5.85,0,0,0-5.57-1.44l3.26,3.17L473,274.66l-3.19.83-3.25-3.17a5.5,5.5,0,0,0,1.48,5.43,5.86,5.86,0,0,0,5.85,1.36l0,0,13.39,13.06a2.76,2.76,0,0,0,3.84,0,2.6,2.6,0,0,0,0-3.74Zm11.82,16.45a1,1,0,1,1,1-1A1,1,0,0,1,489.44,291.75Z" transform="translate(-466.34 -267.56)"/></svg>