<svg id="レイヤー_1" data-name="レイヤー 1" xmlns="http://www.w3.org/2000/svg" viewBox="0 0 42 28"><defs><style>.cls-1{fill:#e0e0e0;}.cls-2{fill:none;}</style></defs><title>icon_cojp_support_form</title><path class="cls-1" d="M493.84,284.27v-5c0-1.87,0-3.46,0-4.1l-6.18,4.33Z" transform="translate(-458 -266)"/><path class="cls-1" d="M464.84,284.09v-5c0-1.87,0-3.46,0-4.1l6.18,4.33Z" transform="translate(-458 -266)"/><path class="cls-1" d="M485,280.75l-5.18,3.63a0.81,0.81,0,0,1-.46.14,0.83,0.83,0,0,1-.46-0.14l-5.16-3.62-8.67,6.64a0.78,0.78,0,0,1-.23.12v0.09l0,5.49h28.95l0-5.49v-0.11Z" transform="translate(-458 -266)"/><polygon class="cls-1" points="21.33 0.31 35.6 9.01 7.68 9.01 7.06 9.02 21.33 0.31"/><rect id="_スライス_" data-name="&lt;スライス&gt;" class="cls-2" width="42" height="28"/></svg>