<svg id="レイヤー_4" data-name="レイヤー 4" xmlns="http://www.w3.org/2000/svg" viewBox="0 0 16.58 26.2"><defs><style>.cls-1{fill:#e0e0e0;}</style></defs><title>icon_cojp_support_question</title><path class="cls-1" d="M476.71,284.77a11.49,11.49,0,0,1,.58-4.06,6.34,6.34,0,0,1,1.88-2.58,12.56,12.56,0,0,0,2-2,3.26,3.26,0,0,0,.68-2q0-2.66-2.29-2.66a2.12,2.12,0,0,0-1.71.77,3.3,3.3,0,0,0-.69,2.1H471.2a7.09,7.09,0,0,1,2.22-5.48,8.84,8.84,0,0,1,6.13-2,9.2,9.2,0,0,1,6.08,1.81,6.36,6.36,0,0,1,2.16,5.16,6,6,0,0,1-.58,2.66,9,9,0,0,1-1.87,2.45l-2,1.88a4.76,4.76,0,0,0-1.2,1.7,6.74,6.74,0,0,0-.37,2.21h-5ZM476,290.12a2.73,2.73,0,0,1,.94-2.14,3.72,3.72,0,0,1,4.7,0,2.9,2.9,0,0,1,0,4.28,3.72,3.72,0,0,1-4.7,0A2.73,2.73,0,0,1,476,290.12Z" transform="translate(-471.2 -266.9)"/></svg>