<svg id="レイヤー_5" data-name="レイヤー 5" xmlns="http://www.w3.org/2000/svg" viewBox="0 0 30.97 27.24"><defs><style>.cls-1{fill:#e0e0e0;}</style></defs><title>icon_cojp_support_search</title><path class="cls-1" d="M479.61,288.38a10.79,10.79,0,1,1,10.78-10.79A10.8,10.8,0,0,1,479.61,288.38Zm0-19.25a8.47,8.47,0,1,0,8.47,8.47A8.48,8.48,0,0,0,479.61,269.12Z" transform="translate(-464.06 -266.81)"/><path class="cls-1" d="M493.29,292.71a1.73,1.73,0,0,1-1.24-.52l-5.8-5.92a1.74,1.74,0,0,1,2.48-2.43l5.8,5.92A1.74,1.74,0,0,1,493.29,292.71Z" transform="translate(-464.06 -266.81)"/><path class="cls-1" d="M478.45,283.64v-4h-4.63A6.17,6.17,0,0,0,478.45,283.64Z" transform="translate(-464.06 -266.81)"/><path class="cls-1" d="M466.7,279.66h-2.64V294h14.39v-3.43A13.1,13.1,0,0,1,466.7,279.66Z" transform="translate(-464.06 -266.81)"/></svg>