<svg xmlns="http://www.w3.org/2000/svg" width="153" height="72" viewBox="0 0 153.438 71.875">
  <defs>
    <style>
      .cls-1 {
        fill: #e1dfdf;
        fill-rule: evenodd;
      }
    </style>
  </defs>
  <path id="icon_cojp_support.svg" class="cls-1" d="M547.4,435.835l56.354-8.929c0.437-.07,11.032-1.709,17.111,5.661l24.212,27.918c3.219,4.854,6.694,14.45-.667,19.588l-0.245.162c-4.309,2.654-9.443.78-15.689-5.731l-13.9-14.2,5.182-4.97,13.927,14.221c4.635,4.825,6.5,4.706,6.519,4.7,3.182-2.213-.422-8.628-1.062-9.705l-23.8-27.4c-3.473-4.2-10.351-3.209-10.423-3.2l-48.731,7.719,6.946,29.589c18.85-4.535,19.513-4.515,20.059-4.5a12.612,12.612,0,0,1,7.421,1.674l55.444,22.886a22.668,22.668,0,0,0,6.018-.259c3.164-1.156,30.621-11.215,35.667-13.339a8.956,8.956,0,0,1,.9-0.3c3.94-1.11,4.759-2.234,4.932-2.665,0.235-.6-0.365-1.671-0.632-2.112-0.045-.041-3.382-4.315-14.861-1.729l-26.288,5.189-1.415-7.008,26.2-5.17c16.469-3.71,21.935,4.062,22.5,4.96,2.3,3.74,1.935,6.665,1.221,8.471-1.87,4.734-7.749,6.395-9.68,6.938-5.54,2.309-35.079,13.116-36.337,13.575l-0.286.105-0.294.057a28.251,28.251,0,0,1-9.186.29l-0.784-.223L587.38,474.83a5.777,5.777,0,0,0-3.566-.949c-0.166.01-.317,0.02-0.46,0.026-1.723.3-12.508,2.848-22.059,5.157l-3.542.858Z" transform="translate(-547.406 -426.688)"/>
</svg>
