<?xml version="1.0" encoding="utf-8"?>
<!-- Generator: Adobe Illustrator 16.0.3, SVG Export Plug-In . SVG Version: 6.00 Build 0)  -->
<!DOCTYPE svg PUBLIC "-//W3C//DTD SVG 1.1//EN" "http://www.w3.org/Graphics/SVG/1.1/DTD/svg11.dtd">
<svg version="1.1" id="レイヤー_1" xmlns="http://www.w3.org/2000/svg" xmlns:xlink="http://www.w3.org/1999/xlink" x="0px"
	 y="0px" width="30.967px" height="27.241px" viewBox="0 0 30.967 27.241" enable-background="new 0 0 30.967 27.241"
	 xml:space="preserve">
<path fill="#FFFFFF" d="M15.549,21.57c-5.948,0-10.786-4.839-10.786-10.785C4.763,4.838,9.601,0,15.549,0
	c5.946,0,10.784,4.838,10.784,10.785C26.333,16.731,21.495,21.57,15.549,21.57z M15.549,2.316c-4.67,0-8.47,3.799-8.47,8.469
	c0,4.669,3.8,8.469,8.47,8.469c4.669,0,8.468-3.8,8.468-8.469C24.017,6.115,20.218,2.316,15.549,2.316z"/>
<path fill="#FFFFFF" d="M29.23,25.902c-0.451,0-0.901-0.173-1.242-0.52l-5.797-5.919c-0.671-0.686-0.66-1.785,0.025-2.457
	c0.686-0.67,1.786-0.659,2.458,0.025l5.796,5.918c0.671,0.686,0.66,1.786-0.025,2.458C30.107,25.738,29.669,25.902,29.23,25.902z"/>
<g>
	<path fill="#FFFFFF" d="M14.39,16.839V12.85H9.759C10.486,14.882,12.229,16.426,14.39,16.839z"/>
	<path fill="#FFFFFF" d="M2.644,12.85H0v14.392h14.39V23.81C8.407,23.28,3.58,18.71,2.644,12.85z"/>
</g>
</svg>
