<svg xmlns="http://www.w3.org/2000/svg" width="120.938" height="103.25" viewBox="0 0 120.938 103.25">
  <defs>
    <style>
      .cls-1 {
        fill: #e1dfdf;
        fill-rule: evenodd;
      }
    </style>
  </defs>
  <path id="icon_cojp_recall.svg" class="cls-1" d="M682.141,222.191l-58.1-98.613A2.37,2.37,0,0,0,622,122.425a2.332,2.332,0,0,0-2.013,1.153l-58.128,98.613a2.311,2.311,0,0,0-.024,2.336,2.377,2.377,0,0,0,2.041,1.162H680.121a2.361,2.361,0,0,0,2.04-1.162,2.472,2.472,0,0,0,.311-1.162A2.274,2.274,0,0,0,682.141,222.191Zm-52.2-64.768-1.93,39.2h-9.984l-1.926-39.2h13.84ZM623.013,216.7h-0.175a7.875,7.875,0,0,1,.175-15.749c4.64,0,7.714,3.2,7.8,7.872A7.5,7.5,0,0,1,623.013,216.7Z" transform="translate(-561.531 -122.438)"/>
</svg>
