<?xml version="1.0" encoding="utf-8"?>
<!-- Generator: Adobe Illustrator 19.2.1, SVG Export Plug-In . SVG Version: 6.00 Build 0)  -->
<svg version="1.1" id="レイヤー_1" xmlns="http://www.w3.org/2000/svg" xmlns:xlink="http://www.w3.org/1999/xlink" x="0px"
	 y="0px" viewBox="0 0 31.6 22.4" style="enable-background:new 0 0 31.6 22.4;" xml:space="preserve">
<style type="text/css">
	.st0{fill:#e1dfdf;}
</style>
<path class="st0" d="M30.1,6c-1.1-0.9-2.7-0.8-3.8-0.5c0-0.9,0-1.4,0-1.4c-1.2-4.4-13.9-4-13.9-4C-0.4,0.3,0,4.3,0,4.3
	c-0.2,11.9,5.9,15.6,5.9,15.6L6.1,20L6,20.1c0,0-0.8,2.3,6.7,2.3c0,0,7.9,0.4,7.6-2.4c1.2-0.8,2.1-1.8,2.9-2.9
	c4.3-0.5,6.1-2.7,6.1-2.7C33.9,9.3,30.1,6,30.1,6z M2.7,7.6c0.2,0.2,2.6,0.9,2.6,0.9c-0.6,4.6,3.1,10.1,3.1,10.1
	C2.8,15.1,2.7,7.6,2.7,7.6z M13.2,6.5c-5.5,0-10-0.9-10-2c0-1.1,4.5-2,10-2c5.5,0,10,0.9,10,2C23.2,5.6,18.7,6.5,13.2,6.5z
	 M26.3,13.3c0,0-0.8,0.5-1.6,0.9c0.9-2.1,1.3-4.3,1.5-6.1c0.7-0.2,1.8-0.3,2.4,0.4C28.6,8.5,30.6,10.6,26.3,13.3z"/>
</svg>
