<svg xmlns="http://www.w3.org/2000/svg" width="98.344" height="96" viewBox="0 0 98.344 96">
  <defs>
    <style>
      .cls-1 {
        fill: #fff;
        fill-rule: evenodd;
      }
    </style>
  </defs>
  <path id="rwd_icon_link_blog.svg" class="cls-1" d="M246.555,1074.51H163.841a7.908,7.908,0,0,0-7.817,8v80a7.891,7.891,0,0,0,7.817,7.98h82.714a7.907,7.907,0,0,0,7.821-7.98v-80A7.925,7.925,0,0,0,246.555,1074.51Zm-77.762,5.74H241.6a6.974,6.974,0,0,1,6.882,7.05v15.84H161.907V1087.3A6.964,6.964,0,0,1,168.793,1080.25Zm53.782,30.85v53.65h-35.3V1111.1h35.3Zm-60.668,46.61V1111.1h17.741v53.65H168.793A6.955,6.955,0,0,1,161.907,1157.71Zm79.7,7.04H230.2V1111.1h18.282v46.61A6.966,6.966,0,0,1,241.6,1164.75Z" transform="translate(-156.031 -1074.5)"/>
</svg>
