<?xml version="1.0" encoding="utf-8"?>
<!-- Generator: Adobe Illustrator 19.2.1, SVG Export Plug-In . SVG Version: 6.00 Build 0)  -->
<svg version="1.1" xmlns="http://www.w3.org/2000/svg" xmlns:xlink="http://www.w3.org/1999/xlink" x="0px" y="0px"
	 viewBox="0 0 31 28" style="enable-background:new 0 0 31 28;" xml:space="preserve">
<style type="text/css">
	.st0{fill:#e1dfdf;}
</style>
<g id="house">
</g>
<g id="caution">
	<g>
		<path class="st0" d="M28.7,15.8c0,0.3-0.2,0.6-0.5,0.6L25,16.9c-0.2,0.5-0.4,1.1-0.7,1.6c0.6,0.8,1.2,1.6,1.8,2.4
			c0.1,0.1,0.2,0.3,0.2,0.4c0,0.2,0,0.3-0.2,0.4c-0.4,0.6-2.7,3.1-3.3,3.1c-0.2,0-0.3-0.1-0.4-0.2l-2.4-1.9c-0.5,0.3-1,0.5-1.6,0.7
			c-0.1,1-0.2,2.2-0.5,3.2C18,26.8,17.7,27,17.4,27h-3.8c-0.3,0-0.6-0.2-0.6-0.5l-0.5-3.2c-0.5-0.2-1-0.4-1.5-0.6l-2.4,1.8
			c-0.1,0.1-0.3,0.2-0.4,0.2c-0.2,0-0.3-0.1-0.4-0.2c-0.9-0.8-2.1-1.9-2.8-2.9c-0.1-0.1-0.1-0.3-0.1-0.4c0-0.2,0.1-0.3,0.1-0.4
			c0.6-0.8,1.2-1.5,1.8-2.4C6.4,18,6.1,17.4,6,16.8l-3.1-0.5c-0.3-0.1-0.5-0.3-0.5-0.6v-3.8c0-0.3,0.2-0.6,0.5-0.6L6,10.8
			c0.2-0.5,0.4-1.1,0.7-1.6C6.1,8.4,5.4,7.6,4.8,6.9C4.7,6.7,4.6,6.6,4.6,6.5c0-0.2,0.1-0.3,0.2-0.4C5.2,5.5,7.5,3,8.1,3
			c0.2,0,0.3,0.1,0.4,0.2L10.9,5c0.5-0.3,1-0.5,1.6-0.7c0.1-1,0.2-2.2,0.5-3.2c0.1-0.3,0.3-0.5,0.6-0.5h3.8c0.3,0,0.6,0.2,0.6,0.5
			l0.5,3.2C19,4.5,19.6,4.7,20,5l2.4-1.8C22.6,3,22.7,3,22.9,3c0.2,0,0.3,0.1,0.4,0.2c0.9,0.8,2.1,1.9,2.8,2.9
			c0.1,0.1,0.1,0.2,0.1,0.4c0,0.2-0.1,0.3-0.1,0.4c-0.6,0.8-1.2,1.5-1.8,2.4c0.3,0.5,0.5,1.1,0.7,1.7l3.1,0.5
			c0.3,0.1,0.5,0.3,0.5,0.6V15.8z M15.5,9.5c-2.4,0-4.4,2-4.4,4.4c0,2.4,2,4.4,4.4,4.4c2.4,0,4.4-2,4.4-4.4
			C19.9,11.4,17.9,9.5,15.5,9.5z"/>
	</g>
</g>
</svg>
