<?xml version="1.0" encoding="utf-8"?>
<!-- Generator: Adobe Illustrator 19.2.1, SVG Export Plug-In . SVG Version: 6.00 Build 0)  -->
<svg version="1.1" xmlns="http://www.w3.org/2000/svg" xmlns:xlink="http://www.w3.org/1999/xlink" x="0px" y="0px"
	 viewBox="0 0 31 28" style="enable-background:new 0 0 31 28;" xml:space="preserve">
<style type="text/css">
	.st0{fill:#FFFFFF;}
</style>
<g id="house">
</g>
<g id="caution">
	<g>
		<path class="st0" d="M30,18.6v-5c0-1.9,0-3.5,0-4.1l-6.2,4.3L30,18.6z"/>
		<path class="st0" d="M1,18.4v-5c0-1.9,0-3.5,0-4.1l6.2,4.3L1,18.4z"/>
		<path class="st0" d="M21.2,15L16,18.7c-0.1,0.1-0.3,0.1-0.5,0.1c-0.2,0-0.3,0-0.5-0.1l-5.2-3.6l-8.7,6.6c-0.1,0.1-0.1,0.1-0.2,0.1
			v0.1l0,5.5H30l0-5.5v-0.1L21.2,15z"/>
		<polygon class="st0" points="15.5,0.6 29.8,9.3 1.8,9.3 1.2,9.3 		"/>
	</g>
</g>
</svg>
