<?xml version="1.0" encoding="utf-8"?>
<!-- Generator: Adobe Illustrator 19.2.1, SVG Export Plug-In . SVG Version: 6.00 Build 0)  -->
<svg version="1.1" xmlns="http://www.w3.org/2000/svg" xmlns:xlink="http://www.w3.org/1999/xlink" x="0px" y="0px"
	 viewBox="0 0 31 28" style="enable-background:new 0 0 31 28;" xml:space="preserve">
<style type="text/css">
	.st0{fill:#dee7e9;}
</style>
<g id="house">
</g>
<g id="caution">
	<g>
		<path class="st0" d="M12.7,18.8c0-1.7,0.2-3.1,0.6-4.1c0.4-1,1-1.9,1.9-2.6c0.9-0.7,1.5-1.4,2-2c0.5-0.6,0.7-1.3,0.7-2
			c0-1.8-0.8-2.7-2.3-2.7c-0.7,0-1.3,0.3-1.7,0.8c-0.4,0.5-0.7,1.2-0.7,2.1H7.2C7.2,6,8,4.2,9.4,2.9c1.5-1.3,3.5-2,6.1-2
			c2.6,0,4.6,0.6,6.1,1.8c1.4,1.2,2.2,2.9,2.2,5.2c0,1-0.2,1.9-0.6,2.7c-0.4,0.8-1,1.6-1.9,2.4l-2,1.9c-0.6,0.6-1,1.1-1.2,1.7
			c-0.2,0.6-0.3,1.3-0.4,2.2H12.7z M12,24.1c0-0.9,0.3-1.6,0.9-2.1c0.6-0.6,1.4-0.8,2.3-0.8c0.9,0,1.7,0.3,2.4,0.8
			c0.6,0.6,0.9,1.3,0.9,2.1c0,0.9-0.3,1.6-0.9,2.1c-0.6,0.6-1.4,0.8-2.4,0.8c-0.9,0-1.7-0.3-2.3-0.8C12.3,25.7,12,25,12,24.1z"/>
	</g>
</g>
</svg>
