<svg id="レイヤー_1" data-name="レイヤー 1" xmlns="http://www.w3.org/2000/svg" viewBox="0 0 57.25 57.16"><defs><style>.cls-1{fill:#30a6df;}.cls-2{fill:#fff;}</style></defs><title>icon_twitter</title><rect class="cls-1" width="57.25" height="57.16"/><path class="cls-2" d="M46.87,17.28a15,15,0,0,1-4.3,1.18,7.52,7.52,0,0,0,3.3-4.15,15,15,0,0,1-4.76,1.82A7.5,7.5,0,0,0,28.32,23a21.28,21.28,0,0,1-15.45-7.83,7.5,7.5,0,0,0,2.32,10,7.48,7.48,0,0,1-3.4-.94s0,0.06,0,.09a7.5,7.5,0,0,0,6,7.35,7.49,7.49,0,0,1-3.39.13,7.5,7.5,0,0,0,7,5.21,15,15,0,0,1-9.31,3.21,15.24,15.24,0,0,1-1.79-.1,21.22,21.22,0,0,0,11.49,3.37c13.79,0,21.33-11.42,21.33-21.33q0-.49,0-1A15.21,15.21,0,0,0,46.87,17.28Z"/></svg>