<?xml version="1.0" encoding="utf-8"?>
<!-- Generator: Adobe Illustrator 16.0.3, SVG Export Plug-In . SVG Version: 6.00 Build 0)  -->
<!DOCTYPE svg PUBLIC "-//W3C//DTD SVG 1.1//EN" "http://www.w3.org/Graphics/SVG/1.1/DTD/svg11.dtd">
<svg version="1.1" id="レイヤー_1" xmlns="http://www.w3.org/2000/svg" xmlns:xlink="http://www.w3.org/1999/xlink" x="0px"
	 y="0px" width="26.951px" height="25.445px" viewBox="0 0 26.951 25.445" enable-background="new 0 0 26.951 25.445"
	 xml:space="preserve">
<path fill="#E1DFDF" d="M17.721,11.654c0.559-0.365,1.22-0.52,1.867-0.449l7.364-7.184L22.827,0l-7.365,7.184
	c0.075,0.639-0.09,1.291-0.479,1.843L17.721,11.654z"/>
<path fill="#E1DFDF" d="M4.875,20.402l-0.266-0.26l-1.396,1.101L0.86,24.857l0.602,0.588l3.708-2.295l1.127-1.357l-0.267-0.264
	l4.683-4.568l-1.163-1.12L4.875,20.402z"/>
<path fill="#E1DFDF" d="M11.28,7.736c0.541-1.885,0.05-3.993-1.467-5.475c-1.512-1.47-3.647-1.951-5.57-1.442l3.255,3.174
	L6.645,7.101L3.453,7.934L0.2,4.761c-0.519,1.874-0.026,3.957,1.483,5.429c1.582,1.544,3.861,1.997,5.855,1.364l0.018,0.017
	l13.389,13.057c0.53,0.517,1.224,0.777,1.918,0.777c0.695,0,1.388-0.261,1.919-0.777c1.058-1.029,1.058-2.703,0-3.74L11.28,7.736z
	 M23.096,24.186c-0.57,0-1.032-0.452-1.032-1.011c0-0.561,0.462-1.011,1.032-1.011c0.574,0,1.039,0.45,1.039,1.011
	C24.135,23.734,23.67,24.186,23.096,24.186z"/>
</svg>
