<?xml version="1.0" encoding="utf-8"?>
<!-- Generator: Adobe Illustrator 16.0.3, SVG Export Plug-In . SVG Version: 6.00 Build 0)  -->
<!DOCTYPE svg PUBLIC "-//W3C//DTD SVG 1.1//EN" "http://www.w3.org/Graphics/SVG/1.1/DTD/svg11.dtd">
<svg version="1.1" id="レイヤー_1" xmlns="http://www.w3.org/2000/svg" xmlns:xlink="http://www.w3.org/1999/xlink" x="0px"
	 y="0px" width="23.354px" height="26.84px" viewBox="0 0 23.354 26.84" enable-background="new 0 0 23.354 26.84"
	 xml:space="preserve">
<rect x="4.015" y="13.772" fill="#364c88" width="11.975" height="1.06"/>
<rect x="4.015" y="16.241" fill="#364c88" width="11.975" height="1.061"/>
<rect x="4.015" y="18.709" fill="#364c88" width="11.975" height="1.061"/>
<rect x="4.015" y="20.917" fill="#364c88" width="11.975" height="1.061"/>
<path fill="#364c88" d="M22.291,3.697c0,0-1.429,0.004-2.469,0.008V0H0v24.016c0,1.557,1.268,2.824,2.826,2.824h17.703
	c1.558,0,2.825-1.268,2.825-2.824V3.693L22.291,3.697z M2.834,25.243c-0.682,0-1.236-0.555-1.236-1.236V1.581h16.644v22.425
	c0,0.455,0.133,0.881,0.362,1.236H2.834z M19.301,24.006V5.289h2.472v18.717c0,0.682-0.554,1.236-1.235,1.236
	S19.301,24.688,19.301,24.006z"/>
<path fill="#364c88" d="M16.709,12.088H2.997V3.744h13.712V12.088z M4.057,11.028h11.593V4.804H4.057V11.028z"/>
</svg>
