<svg xmlns="http://www.w3.org/2000/svg" width="55.156" height="50.375" viewBox="0 0 55.156 50.375">
  <defs>
    <style>
      .cls-1 {
        fill: #3e495c;
        fill-rule: evenodd;
      }
    </style>
  </defs>
  <path id="rwd_icon_search.svg" class="cls-1" d="M466.675,89.989c-12.521,0-22.707-9.412-22.707-20.982s10.186-20.983,22.707-20.983,22.7,9.413,22.7,20.983S479.193,89.989,466.675,89.989Zm0-37.459c-9.832,0-17.831,7.392-17.831,16.477s8,16.476,17.831,16.476S484.5,78.092,484.5,69.007,476.5,52.53,466.675,52.53Zm28.8,45.89a3.8,3.8,0,0,1-2.613-1.014l-12.2-11.514a3.2,3.2,0,0,1,.054-4.78,3.876,3.876,0,0,1,5.172.05l12.2,11.514a3.2,3.2,0,0,1-.054,4.78A3.811,3.811,0,0,1,495.477,98.42Z" transform="translate(-443.969 -48.031)"/>
</svg>
