<?xml version="1.0" encoding="utf-8"?>
<!-- Generator: Adobe Illustrator 19.2.1, SVG Export Plug-In . SVG Version: 6.00 Build 0)  -->
<svg version="1.1" id="レイヤー_1" xmlns="http://www.w3.org/2000/svg" xmlns:xlink="http://www.w3.org/1999/xlink" x="0px"
	 y="0px" viewBox="0 0 13.3 22.9" style="enable-background:new 0 0 13.3 22.9;" xml:space="preserve">
<style type="text/css">
	.st0{fill:#e1dfdf;}
</style>
<g>
	<path class="st0" d="M11.8,0H1.5C0.7,0,0,0.7,0,1.5v19.8c0,0.9,0.7,1.5,1.5,1.5h10.2c0.9,0,1.5-0.7,1.5-1.5V1.5
		C13.3,0.7,12.6,0,11.8,0L11.8,0z M5,1.1h3.3c0.1,0,0.2,0.1,0.2,0.2c0,0.1-0.1,0.2-0.2,0.2H5c-0.1,0-0.2-0.1-0.2-0.2
		C4.8,1.2,4.9,1.1,5,1.1L5,1.1z M6.7,22.1c-0.4,0-0.8-0.3-0.8-0.8c0-0.4,0.3-0.8,0.8-0.8s0.8,0.3,0.8,0.8
		C7.4,21.8,7.1,22.1,6.7,22.1L6.7,22.1z M12.2,20.1H1.1V2.5h11.2V20.1z M12.2,20.1"/>
</g>
</svg>
