<?xml version="1.0" encoding="utf-8"?>
<!-- Generator: Adobe Illustrator 19.2.1, SVG Export Plug-In . SVG Version: 6.00 Build 0)  -->
<svg version="1.1" xmlns="http://www.w3.org/2000/svg" xmlns:xlink="http://www.w3.org/1999/xlink" x="0px" y="0px"
	 viewBox="0 0 31 28" style="enable-background:new 0 0 31 28;" xml:space="preserve">
<style type="text/css">
	.st0{fill:#dee7e9;}
</style>
<g id="house">
</g>
<g id="caution">
	<path class="st0" d="M21.8,18.4c-1.1,0-2.1,0.4-2.9,1.1l-4.2-3.1c0.2-0.6,0.3-1.1,0.3-1.8c0-0.7-0.1-1.4-0.4-2l4.7-3.8
		c0.7,0.5,1.6,0.7,2.5,0.7c2.6,0,4.6-2.1,4.6-4.6s-2.1-4.6-4.6-4.6c-2.6,0-4.6,2.1-4.6,4.6c0,0.5,0.1,1.1,0.3,1.5l-4.7,3.8
		c-0.8-0.6-1.9-0.9-3-0.9c-2.9,0-5.2,2.4-5.2,5.3c0,2.9,2.3,5.3,5.2,5.3c1.2,0,2.2-0.4,3.1-1.1l4.4,3.2c-0.1,0.3-0.1,0.6-0.1,1
		c0,2.6,2.1,4.6,4.6,4.6c2.6,0,4.6-2.1,4.6-4.6S24.4,18.4,21.8,18.4z"/>
</g>
</svg>
