<?xml version="1.0" encoding="utf-8"?>
<!-- Generator: Adobe Illustrator 19.2.1, SVG Export Plug-In . SVG Version: 6.00 Build 0)  -->
<svg version="1.1" id="レイヤー_1" xmlns="http://www.w3.org/2000/svg" xmlns:xlink="http://www.w3.org/1999/xlink" x="0px"
	 y="0px" viewBox="0 0 18.8 23.6" style="enable-background:new 0 0 18.8 23.6;" xml:space="preserve">
<style type="text/css">
	.st0{fill:#dee7e9;}
</style>
<g>
	<path class="st0" d="M9.8,0C5.9,0,2.7,3.1,2.7,7c0,2,1.9,5.5,1.9,5.5l4.9,8.3l5.1-8.2c0,0,2.3-3.4,2.3-5.6C16.9,3.1,13.7,0,9.8,0z
		 M9.8,10.9c-2.2,0-4.1-1.8-4.1-4.1c0-2.2,1.8-4,4.1-4c2.2,0,4.1,1.8,4.1,4C13.8,9.1,12,10.9,9.8,10.9z"/>
</g>
<path class="st0" d="M9.4,23.6c-4.7,0-9.4-1.3-9.4-3.7c0-1.5,1.7-2.6,4.7-3.3L5,18.1c-2.6,0.5-3.5,1.4-3.5,1.8
	c0,0.7,2.8,2.2,7.9,2.2c5.1,0,7.9-1.4,7.9-2.2c0-0.4-0.9-1.2-3.3-1.7l0.3-1.5c2.9,0.6,4.5,1.8,4.5,3.2C18.8,22.3,14,23.6,9.4,23.6z"
	/>
</svg>
