<?xml version="1.0" encoding="utf-8"?>
<!-- Generator: Adobe Illustrator 19.2.1, SVG Export Plug-In . SVG Version: 6.00 Build 0)  -->
<svg version="1.1" xmlns="http://www.w3.org/2000/svg" xmlns:xlink="http://www.w3.org/1999/xlink" x="0px" y="0px"
	 viewBox="0 0 31 28" style="enable-background:new 0 0 31 28;" xml:space="preserve">
<style type="text/css">
	.st0{fill:#FFFFFF;}
</style>
<g id="house">
</g>
<g id="caution">
	<path class="st0" d="M19.7,12.9c0.6-0.4,1.2-0.5,1.9-0.4L29,5.3l-4.1-4l-7.4,7.2c0.1,0.6-0.1,1.3-0.5,1.8L19.7,12.9z"/>
	<path class="st0" d="M6.9,21.7l-0.3-0.3l-1.4,1.1l-2.4,3.6l0.6,0.6l3.7-2.3l1.1-1.4l-0.3-0.3l4.7-4.6l-1.2-1.1L6.9,21.7z"/>
	<path class="st0" d="M13.3,9c0.5-1.9,0.1-4-1.5-5.5c-1.5-1.5-3.6-2-5.6-1.4l3.3,3.2L8.7,8.4L5.5,9.2L2.2,6c-0.5,1.9,0,4,1.5,5.4
		c1.6,1.5,3.9,2,5.9,1.4l0,0L23,25.9c0.5,0.5,1.2,0.8,1.9,0.8c0.7,0,1.4-0.3,1.9-0.8c1.1-1,1.1-2.7,0-3.7L13.3,9z M25.1,25.5
		c-0.6,0-1-0.5-1-1c0-0.6,0.5-1,1-1c0.6,0,1,0.5,1,1C26.2,25,25.7,25.5,25.1,25.5z"/>
</g>
</svg>
