<svg xmlns="http://www.w3.org/2000/svg" width="119.625" height="113.84" viewBox="0 0 119.625 113.84">
  <defs>
    <style>
      .cls-1 {
        fill: #6c94ff;
        fill-rule: evenodd;
      }
    </style>
  </defs>
  <path id="icon_cojp_csr.svg" class="cls-1" d="M512.666,1133.47a2.137,2.137,0,0,1-1.146-.33,2.074,2.074,0,0,1-.972-1.75l-0.023-7.69a2.091,2.091,0,0,1,1.181-1.88l41.9-20.33a2.143,2.143,0,0,1,2.054.1,2.086,2.086,0,0,1,1,1.77l0.023,9.41a2.079,2.079,0,0,1-1.248,1.9l-41.9,18.61A2.046,2.046,0,0,1,512.666,1133.47Zm2.1-8.48,0.009,3.17,37.672-16.73-0.011-4.72Zm-2.144-6.66a2.123,2.123,0,0,1-1.089-.3,2.085,2.085,0,0,1-1.03-1.78l-0.022-7.69a2.093,2.093,0,0,1,1.063-1.82l41.9-23.7a2.125,2.125,0,0,1,2.113,0,2.068,2.068,0,0,1,1.059,1.8l0.023,9.41a2.1,2.1,0,0,1-1.121,1.85l-41.9,21.98A2.2,2.2,0,0,1,512.621,1118.33Zm2.1-8.58,0.008,3.02,37.674-19.76-0.012-4.57Zm-2.145-6.56a2.105,2.105,0,0,1-1.03-.27,2.079,2.079,0,0,1-1.088-1.81l-0.023-7.68a2.064,2.064,0,0,1,.956-1.75l41.9-27.09a2.151,2.151,0,0,1,2.165-.09,2.083,2.083,0,0,1,1.115,1.83l0.023,9.4a2.074,2.074,0,0,1-1.007,1.78l-41.9,25.37A2.207,2.207,0,0,1,512.575,1103.19Zm2.1-8.65,0.009,2.84,37.674-22.8-0.011-4.39Zm94.157,66.95H495.568a3.16,3.16,0,0,1-3.177-3.13v-17.53a3.153,3.153,0,0,1,3.177-3.13h4.842v-48.68a3.119,3.119,0,0,1,1.349-2.56l55.208-38.26a3.21,3.21,0,0,1,3.663.01l39.815,27.72a3.1,3.1,0,0,1,1.342,2.55v59.22h7.044a3.153,3.153,0,0,1,3.177,3.13v17.53A3.16,3.16,0,0,1,608.831,1161.49Zm-110.086-6.26H605.653v-11.28H598.61a3.151,3.151,0,0,1-3.177-3.12V1080.1l-36.641-25.51-52.027,36.05v50.19a3.152,3.152,0,0,1-3.177,3.12h-4.843v11.28Z" transform="translate(-492.375 -1047.66)"/>
</svg>
