<svg xmlns="http://www.w3.org/2000/svg" width="108.125" height="88.84" viewBox="0 0 108.125 88.84">
  <defs>
    <style>
      .cls-1 {
        fill: #fff;
        fill-rule: evenodd;
      }
    </style>
  </defs>
  <path id="rwd_icon_link_twitter.svg" class="cls-1" d="M254.472,1637.03a44.064,44.064,0,0,1-12.747,3.53,22.434,22.434,0,0,0,9.758-12.41,44.275,44.275,0,0,1-14.087,5.45,22.061,22.061,0,0,0-16.2-7.09,22.309,22.309,0,0,0-22.185,22.43,23.212,23.212,0,0,0,.572,5.11,62.8,62.8,0,0,1-45.724-23.43,22.587,22.587,0,0,0,6.864,29.93,21.853,21.853,0,0,1-10.049-2.8v0.28a22.377,22.377,0,0,0,17.79,21.99,22.16,22.16,0,0,1-10.019.38,22.256,22.256,0,0,0,20.726,15.58,44.275,44.275,0,0,1-32.844,9.28,62.337,62.337,0,0,0,34.007,10.08c40.815,0,63.124-34.17,63.124-63.8,0-.98-0.019-1.94-0.062-2.91A45.14,45.14,0,0,0,254.472,1637.03Z" transform="translate(-146.344 -1626.5)"/>
</svg>
