<?xml version="1.0" encoding="utf-8"?>
<!-- Generator: Adobe Illustrator 19.2.1, SVG Export Plug-In . SVG Version: 6.00 Build 0)  -->
<svg version="1.1" xmlns="http://www.w3.org/2000/svg" xmlns:xlink="http://www.w3.org/1999/xlink" x="0px" y="0px"
	 viewBox="0 0 31 28" style="enable-background:new 0 0 31 28;" xml:space="preserve">
<style type="text/css">
	.st0{fill:#dee7e9;}
</style>
<g id="house">
</g>
<g id="caution">
	<path class="st0" d="M0,10.1l11.4-1.8c0.1,0,2.2-0.3,3.5,1.1l4.9,5.5c0.7,1,1.4,2.8-0.1,3.8l0,0c-0.9,0.5-1.9,0.2-3.2-1.1l-2.8-2.8
		l1-1l2.8,2.8c0.9,0.9,1.3,0.9,1.3,0.9c0.6-0.4-0.1-1.7-0.2-1.9l-4.8-5.4c-0.7-0.8-2.1-0.6-2.1-0.6l-9.8,1.5l1.4,5.8
		c3.8-0.9,3.9-0.9,4.1-0.9c0.3,0,0.7-0.1,1.5,0.3L19.9,21c0.2,0,0.6,0,1.2-0.1c0.6-0.2,6.2-2.2,7.2-2.6c0,0,0.1,0,0.2-0.1
		c0.8-0.2,1-0.4,1-0.5c0-0.1-0.1-0.3-0.1-0.4c0,0-0.7-0.8-3-0.3l-5.3,1l-0.3-1.4l5.3-1c3.3-0.7,4.4,0.8,4.5,1
		c0.5,0.7,0.4,1.3,0.2,1.7c-0.4,0.9-1.6,1.3-2,1.4c-1.1,0.5-7.1,2.6-7.3,2.7l-0.1,0l-0.1,0c-1,0.2-1.8,0.1-1.9,0.1l-0.2,0L8.1,17.8
		c-0.4-0.2-0.6-0.2-0.7-0.2c0,0-0.1,0-0.1,0c-0.3,0.1-2.5,0.6-4.5,1l-0.7,0.2L0,10.1z"/>
</g>
</svg>
