<?xml version="1.0" encoding="utf-8"?>
<!-- Generator: Adobe Illustrator 19.2.1, SVG Export Plug-In . SVG Version: 6.00 Build 0)  -->
<svg version="1.1" xmlns="http://www.w3.org/2000/svg" xmlns:xlink="http://www.w3.org/1999/xlink" x="0px" y="0px"
	 viewBox="0 0 31 28" style="enable-background:new 0 0 31 28;" xml:space="preserve">
<style type="text/css">
	.st0{fill:#FFFFFF;}
</style>
<g id="house">
</g>
<g id="caution">
	<path class="st0" d="M30.9,26.4L16,1c-0.1-0.2-0.3-0.3-0.5-0.3c-0.2,0-0.4,0.1-0.5,0.3L0.1,26.4c-0.1,0.2-0.1,0.4,0,0.6
		c0.1,0.2,0.3,0.3,0.5,0.3h29.8c0.2,0,0.4-0.1,0.5-0.3c0.1-0.1,0.1-0.2,0.1-0.3C31,26.5,31,26.4,30.9,26.4z M17.5,9.7L17,19.8h-2.6
		L14,9.7H17.5z M15.8,24.9L15.8,24.9c-1.2,0-2-0.9-2-2c0-1.2,0.8-2,2-2c1.2,0,2,0.8,2,2C17.8,24.1,17,24.9,15.8,24.9z"/>
</g>
</svg>
