<svg xmlns="http://www.w3.org/2000/svg" width="55.25" height="55.25" viewBox="0 0 55.25 55.25">
  <defs>
    <style>
      .cls-1 {
        fill: #3e495c;
        fill-rule: evenodd;
      }
    </style>
  </defs>
  <path id="rwd_icon_global.svg" class="cls-1" d="M265.2,145.573A27.625,27.625,0,1,0,292.825,173.2,27.656,27.656,0,0,0,265.2,145.573Zm23.812,27.053h-6.943a40.471,40.471,0,0,0-1.317-9.695,26.473,26.473,0,0,0,4.515-2.554A23.68,23.68,0,0,1,289.012,172.626Zm-9.042-12.214a26.254,26.254,0,0,0-5.231-9.048,23.972,23.972,0,0,1,9.007,6.886A23.609,23.609,0,0,1,279.97,160.412Zm-11.157,36.32q-1.139.175-2.307,0.239V184.125a37.113,37.113,0,0,1,10.836,1.915C275.439,191.26,272.4,195.134,268.813,196.732Zm-1.8-47.282c4.516,0.983,8.376,5.516,10.557,11.926a36.936,36.936,0,0,1-11.069,1.98V149.424C266.677,149.434,266.848,149.437,267.018,149.45Zm-0.512,32.06v-6.267h12.915a37.758,37.758,0,0,1-1.278,8.287A39.478,39.478,0,0,0,266.506,181.51Zm0-8.884v-6.657a39.517,39.517,0,0,0,11.816-2.091,38.49,38.49,0,0,1,1.131,8.748H266.506Zm-15.567,0a38.709,38.709,0,0,1,1.152-8.82,39.585,39.585,0,0,0,11.8,2.157v6.663H250.939Zm12.951,2.617v6.274a39.211,39.211,0,0,0-11.622,2.074,37.767,37.767,0,0,1-1.3-8.348H263.89Zm-11.047-13.937c2.183-6.372,6.032-10.877,10.532-11.856,0.171-.012.344-0.016,0.515-0.026v13.925A36.734,36.734,0,0,1,252.843,161.306Zm2.815-9.941a26.081,26.081,0,0,0-5.2,8.962,22.989,22.989,0,0,1-3.731-2.173A23.945,23.945,0,0,1,255.658,151.365Zm-5.991,11.472a40.272,40.272,0,0,0-1.343,9.789h-6.935a23.662,23.662,0,0,1,3.808-12.354A25.979,25.979,0,0,0,249.667,162.837Zm-8.2,12.406h6.894a39.705,39.705,0,0,0,1.5,9.3,26.551,26.551,0,0,0-4.156,2.322A23.7,23.7,0,0,1,241.463,175.243Zm9.224,11.809a26.6,26.6,0,0,0,4.379,7.693,23.95,23.95,0,0,1-7.74-5.825A23.543,23.543,0,0,1,250.687,187.052Zm10.891,9.679c-3.572-1.593-6.6-5.443-8.509-10.631a37.033,37.033,0,0,1,10.821-1.968v12.839C263.109,196.926,262.339,196.848,261.578,196.731Zm13.739-1.979a26.5,26.5,0,0,0,4.416-7.775,24.305,24.305,0,0,1,3.413,1.863A23.949,23.949,0,0,1,275.317,194.752Zm5.245-10.286a39.6,39.6,0,0,0,1.472-9.223h6.9a23.68,23.68,0,0,1-4.17,11.536A26.792,26.792,0,0,0,280.562,184.466Z" transform="translate(-237.563 -145.563)"/>
</svg>
