<svg id="レイヤー_1" data-name="レイヤー 1" xmlns="http://www.w3.org/2000/svg" viewBox="0 0 57.16 57.3"><defs><style>.cls-1{fill:#d14a39;}.cls-2{fill:#fff;}</style></defs><title>icon_google</title><rect class="cls-1" width="57.16" height="57.3"/><path class="cls-2" d="M20.67,26.38V32.2h7.94C27.36,36,25.43,38,20.67,38a8.72,8.72,0,0,1,0-17.45,8.32,8.32,0,0,1,5.7,2.14c1.21-1.21,1.11-1.38,4.18-4.28A14.68,14.68,0,1,0,20.67,44c12.12,0,15.09-10.56,14.1-17.59H20.67Zm26.46,0.29V21.58H43.5v5.09H38.26v3.63H43.5v5.23h3.63V30.31h5.09V26.67H47.13Z"/></svg>