<svg width="30" height="30" id="レイヤー_1" data-name="レイヤー 1" xmlns="http://www.w3.org/2000/svg" viewBox="0 0 23.25 23.25"><defs><style>.cls-1{fill:#5481ff;}</style></defs><title>rwd_icon_faq_question</title><path class="cls-1" d="M479.72,276a2,2,0,0,0-1.51.64c-0.44.5-.57,1.07-0.57,3.36s0.13,2.84.57,3.34a2,2,0,0,0,1.51.65,1.38,1.38,0,0,0,.77-0.22l-1-1,1.23-1.24,0.91,0.91a8.24,8.24,0,0,0,.22-2.42c0-2.28-.15-2.85-0.59-3.36A1.94,1.94,0,0,0,479.72,276Z" transform="translate(-468.13 -268.38)"/><path class="cls-1" d="M479.75,268.38A11.63,11.63,0,1,0,491.38,280,11.63,11.63,0,0,0,479.75,268.38Zm3.45,18.13-1.07-1a4.44,4.44,0,0,1-2.4.64,4.32,4.32,0,0,1-3.21-1.26c-1.19-1.19-1.21-2.53-1.21-4.82s0-3.62,1.21-4.82a4.32,4.32,0,0,1,3.21-1.26,4.26,4.26,0,0,1,3.19,1.26c1.19,1.19,1.23,2.53,1.23,4.82,0,1.93,0,3.17-.74,4.23l1,1Z" transform="translate(-468.13 -268.38)"/></svg>