<?xml version="1.0" encoding="utf-8"?>
<!-- Generator: Adobe Illustrator 19.2.1, SVG Export Plug-In . SVG Version: 6.00 Build 0)  -->
<svg version="1.1" xmlns="http://www.w3.org/2000/svg" xmlns:xlink="http://www.w3.org/1999/xlink" x="0px" y="0px"
	 viewBox="0 0 31 28" style="enable-background:new 0 0 31 28;" xml:space="preserve">
<style type="text/css">
	.st0{fill:#e1dfdf;}
</style>
<g id="house">
</g>
<g id="caution">
	<g>
		<path class="st0" d="M3.7,25.4H0.8V4.7h2.9V25.4z"/>
		<path class="st0" d="M30.2,25.4h-2.9V4.7h2.9V25.4z"/>
		<path class="st0" d="M29.6,7.7H2.3v-3h27.3V7.7z"/>
		<path class="st0" d="M25.9,12.1H5V8.7h20.9V12.1z"/>
		<path class="st0" d="M9.5,19.9c-1.4,0-2.6,1.2-2.6,2.6C6.9,23.9,8,25,9.5,25c1.4,0,2.6-1.2,2.6-2.6C12.1,21,10.9,19.9,9.5,19.9z
			 M9.5,24.2c-1,0-1.8-0.8-1.8-1.8c0-1,0.8-1.8,1.8-1.8c0.2,0,0.3,0,0.4,0.1c-0.1,0.2-0.2,0.4-0.3,0.6c-0.1,0-0.1,0-0.2,0
			c-0.6,0-1.1,0.5-1.1,1.1c0,0.6,0.5,1.1,1.1,1.1c0.6,0,1.1-0.5,1.1-1.1c0-0.4-0.2-0.7-0.5-0.9l0.3-0.6c0.5,0.3,0.9,0.9,0.9,1.5
			C11.2,23.4,10.4,24.2,9.5,24.2z"/>
		<path class="st0" d="M21.7,19.5c-0.9,0-1.6,0.4-2.1,1L19,20.2l-1,0.4l-0.4-0.7l2.9-1.4c0,0,0.4-0.3,0.9-0.6l1.9,0.5l0.6,1.5h0.2
			l-0.5-1.5H24V18h-0.9l-1.4-0.5c0.8-0.6,1.7-1.2,1.8-1.2h-2.3c0,0-0.9,1.6-3.5,1.5c0,0-0.4-0.2-0.7-0.6c0,0-0.7-0.8-1.9-0.7
			l-2.3,0.4l-0.4,0.4l-0.8,0l0.1-0.2H12c0.1,0,0.2-0.1,0.2-0.2c0-0.1-0.1-0.2-0.2-0.2h-0.2l-0.3-0.1c0,0-0.1,0.3-0.3,0.6l-0.7,0
			c0,0,0.3-1.3,2-1.7L11.6,15c0,0-2.2,2.3-2.8,3.4L9.1,19c0,0,3.9,0.6,3.2,4.8h6l0.3-0.2v-1.4l0.3,0c0,0,0,0.1,0,0.1
			c0,1.5,1.3,2.8,2.8,2.8c1.5,0,2.8-1.2,2.8-2.8C24.5,20.7,23.3,19.5,21.7,19.5z M21.7,24.2c-1,0-1.9-0.8-1.9-1.9l1.1,0.2
			c0.2,0.8,0.9,0.8,0.9,0.8c0.9,0.1,1-0.8,1-0.8c0-0.9-0.7-1-0.7-1l-1.5-0.7c0.3-0.3,0.8-0.5,1.3-0.5c1.1,0,1.9,0.9,1.9,1.9
			C23.6,23.3,22.8,24.2,21.7,24.2z"/>
	</g>
</g>
</svg>
