<svg xmlns="http://www.w3.org/2000/svg" width="103.156" height="95.97" viewBox="0 0 103.156 95.97">
  <defs>
    <style>
      .cls-1 {
        fill: #fff;
        fill-rule: evenodd;
      }
    </style>
  </defs>
  <path id="rwd_icon_link_mail.svg" class="cls-1" d="M614.385,1134.07v-17.79c0-6.68-.037-12.39-0.052-14.71l-21.969,15.53Zm-103.17-.66v-17.79c0-6.68.03-12.38,0.052-14.7l21.969,15.51Zm71.758-11.95-18.415,13.02a2.863,2.863,0,0,1-1.653.5,2.929,2.929,0,0,1-1.654-.5l-18.37-12.99-30.843,23.78a2.619,2.619,0,0,1-.823.42v0.33l0.075,19.67H614.265l0.068-19.67v-0.4Zm-20.188-51.74,50.769,31.18H514.2l-2.2.02Z" transform="translate(-511.219 -1069.72)"/>
</svg>
