<?xml version="1.0" encoding="utf-8"?>
<!-- Generator: Adobe Illustrator 19.2.1, SVG Export Plug-In . SVG Version: 6.00 Build 0)  -->
<svg version="1.1" id="レイヤー_1" xmlns="http://www.w3.org/2000/svg" xmlns:xlink="http://www.w3.org/1999/xlink" x="0px"
	 y="0px" viewBox="0 0 24 24" style="enable-background:new 0 0 24 24;" xml:space="preserve">
<style type="text/css">
	.st0{fill:#e1dfdf;}
</style>
<rect y="1" class="st0" width="6" height="22"/>
<path class="st0" d="M22.7,0H8.3C7.6,0,7,0.6,7,1.3v21.3C7,23.4,7.6,24,8.3,24h14.3c0.7,0,1.3-0.6,1.3-1.3V1.3C24,0.6,23.4,0,22.7,0
	z M13,20h-3v-2h3V20z M13,17h-3v-2h3V17z M13,14h-3v-2h3V14z M13,11h-3V9h3V11z M17,20h-3v-2h3V20z M17,17h-3v-2h3V17z M17,14h-3v-2
	h3V14z M17,11h-3V9h3V11z M21,20h-3v-2h3V20z M21,17h-3v-2h3V17z M21,14h-3v-2h3V14z M21,11h-3V9h3V11z M21,6H10V3h11V6z"/>
</svg>
