<svg xmlns="http://www.w3.org/2000/svg" width="102.5" height="96.781" viewBox="0 0 102.5 96.781">
  <defs>
    <style>
      .cls-1 {
        fill: #364c88;
        fill-rule: evenodd;
      }
    </style>
  </defs>
  <path id="icon_cojp_search_parts.svg" class="cls-1" d="M209.046,754.9a10.846,10.846,0,0,1,7.1-1.708l28.005-27.321-15.685-15.294L200.457,737.9a10.119,10.119,0,0,1-1.821,7.01ZM160.2,788.169l-1.014-.993-5.309,4.187-8.943,13.748,2.288,2.232,14.1-8.723,4.289-5.164-1.017-1.006L182.4,775.078l-4.424-4.26ZM184.554,740a20.957,20.957,0,0,0-5.578-20.823,22.243,22.243,0,0,0-21.182-5.485l12.38,12.071-3.249,11.822-12.137,3.166-12.373-12.064a20.937,20.937,0,0,0,5.639,20.648,22.271,22.271,0,0,0,22.266,5.185l0.067,0.066,50.919,49.66a10.488,10.488,0,0,0,14.593,0,9.9,9.9,0,0,0,0-14.229Zm44.936,62.561a3.845,3.845,0,1,1,3.949-3.844A3.886,3.886,0,0,1,229.49,802.558Z" transform="translate(-141.656 -710.563)"/>
</svg>
