<?xml version="1.0" encoding="utf-8"?>
<!-- Generator: Adobe Illustrator 19.2.1, SVG Export Plug-In . SVG Version: 6.00 Build 0)  -->
<svg version="1.1" id="レイヤー_1" xmlns="http://www.w3.org/2000/svg" xmlns:xlink="http://www.w3.org/1999/xlink" x="0px"
	 y="0px" viewBox="0 0 22.6 22.4" style="enable-background:new 0 0 22.6 22.4;" xml:space="preserve">
<style type="text/css">
	.st0{fill:#FFFFFF;}
</style>
<path class="st0" d="M9.3,18.6C4.2,18.6,0,14.4,0,9.3C0,4.2,4.2,0,9.3,0c5.1,0,9.3,4.2,9.3,9.3C18.6,14.4,14.4,18.6,9.3,18.6z
	 M9.3,2C5.3,2,2,5.3,2,9.3c0,4,3.3,7.3,7.3,7.3c4,0,7.3-3.3,7.3-7.3C16.6,5.3,13.3,2,9.3,2z"/>
<path class="st0" d="M21.1,22.4c-0.4,0-0.8-0.2-1.1-0.5l-5-5.1c-0.6-0.6-0.6-1.5,0-2.1c0.6-0.6,1.5-0.6,2.1,0l5,5.1
	c0.6,0.6,0.6,1.5,0,2.1C21.9,22.2,21.5,22.4,21.1,22.4z"/>
<g>
	<path class="st0" d="M10.7,14.1H8.2v-3.5H4.7V8h3.5V4.5h2.6V8h3.5v2.6h-3.5V14.1z"/>
</g>
</svg>
