<?xml version="1.0" encoding="utf-8"?>
<!-- Generator: Adobe Illustrator 16.0.3, SVG Export Plug-In . SVG Version: 6.00 Build 0)  -->
<!DOCTYPE svg PUBLIC "-//W3C//DTD SVG 1.1//EN" "http://www.w3.org/Graphics/SVG/1.1/DTD/svg11.dtd">
<svg version="1.1" id="レイヤー_1" xmlns="http://www.w3.org/2000/svg" xmlns:xlink="http://www.w3.org/1999/xlink" x="0px"
	 y="0px" width="39.156px" height="27.66px" viewBox="0 0 39.156 27.66" enable-background="new 0 0 39.156 27.66"
	 xml:space="preserve">
<path fill="#E1DFDF" d="M3.863,27.66H0V0h3.863V27.66z"/>
<path fill="#E1DFDF" d="M39.156,27.66h-3.863V0h3.863V27.66z"/>
<path fill="#E1DFDF" d="M38.277,4.023H1.932V0h36.346V4.023z"/>
<path fill="#E1DFDF" d="M33.357,9.953H5.568V5.369h27.789V9.953z"/>
<path fill="#E1DFDF" d="M11.524,20.265c-1.899,0-3.44,1.531-3.44,3.422c0,1.889,1.541,3.421,3.44,3.421c1.9,0,3.44-1.532,3.44-3.421
	C14.965,21.796,13.425,20.265,11.524,20.265z M11.524,26.046c-1.311,0-2.372-1.057-2.372-2.359c0-1.304,1.062-2.36,2.372-2.36
	c0.206,0,0.407,0.026,0.597,0.075c-0.102,0.244-0.219,0.524-0.337,0.801c-0.085-0.015-0.171-0.023-0.26-0.023
	c-0.837,0-1.515,0.675-1.515,1.508c0,0.832,0.678,1.506,1.515,1.506s1.515-0.674,1.515-1.506c0-0.525-0.27-0.986-0.679-1.257
	l0.336-0.796c0.718,0.406,1.202,1.173,1.202,2.053C13.898,24.99,12.835,26.046,11.524,26.046z"/>
<path fill="#E1DFDF" d="M27.813,19.697c-1.134,0-2.148,0.503-2.832,1.298l-0.799-0.35l-1.357,0.546l-0.535-0.926l3.818-1.853
	c0,0,0.493-0.364,1.137-0.834l2.587,0.636l0.821,2.051h0.295l-0.717-2.029h0.57v-0.439h-1.154l-1.848-0.619
	c1.056-0.764,2.242-1.604,2.379-1.621H27.18c0,0-1.198,2.135-4.639,1.947c0,0-0.506-0.252-0.885-0.754c0,0-0.915-1.131-2.462-0.973
	l-3.124,0.564l-0.537,0.533l-1.107,0.039l0.117-0.277h0.318c0.145,0,0.26-0.095,0.26-0.211c0-0.117-0.115-0.211-0.26-0.211H14.55
	l-0.458-0.131c0,0-0.148,0.373-0.348,0.852l-0.988,0.034c0,0,0.41-1.789,2.651-2.292l-1.104-0.848c0,0-2.968,3.044-3.757,4.521
	l0.505,0.689c0,0,5.24,0.816,4.262,6.404h8.017l0.379-0.314v-1.889l0.38,0.057c0,0.035-0.002,0.069-0.002,0.104
	c0,2.047,1.668,3.706,3.727,3.706c2.057,0,3.726-1.659,3.726-3.706S29.869,19.697,27.813,19.697z M27.813,25.958
	c-1.396,0-2.531-1.107-2.569-2.486l1.432,0.215c0.221,1.004,1.138,1.098,1.138,1.098c1.168,0.094,1.293-1.098,1.293-1.098
	c0-1.193-0.979-1.318-0.979-1.318l-2.016-0.881c0.452-0.398,1.048-0.643,1.701-0.643c1.42,0,2.57,1.146,2.57,2.557
	C30.383,24.814,29.232,25.958,27.813,25.958z"/>
</svg>
