<?xml version="1.0" encoding="utf-8"?>
<!-- Generator: Adobe Illustrator 16.0.4, SVG Export Plug-In . SVG Version: 6.00 Build 0)  -->
<!DOCTYPE svg PUBLIC "-//W3C//DTD SVG 1.1//EN" "http://www.w3.org/Graphics/SVG/1.1/DTD/svg11.dtd">
<svg version="1.1" id="レイヤー_1" xmlns="http://www.w3.org/2000/svg" xmlns:xlink="http://www.w3.org/1999/xlink" x="0px"
	 y="0px" width="392px" height="337.005px" viewBox="0 0 392 337.005" enable-background="new 0 0 392 337.005"
	 xml:space="preserve">
<g>
	<path fill="#858585" d="M279.002,250.403l-3.907,0.286l-0.66-0.719c0,0-7.483,1.052-14.772-2.333c0,0-5.368-1.872-11.429-2.185
		l-0.038-3.165l1.497-4.446l1.039-1.785l0.474-1.294l-0.904-0.796c0,0-5.374,0.383-5.618,0.305
		c-0.182-0.058-2.307,0.832-3.405,1.296c-0.977-0.632-2.628-1.131-5.388-0.714l-16.344,2.679c0,0-0.195-2.817-4.186-2.611
		c0,0-2.033,0.264-3.373,4.308l-13.554,4.42c0,0-6.982,2.093-15.801,0.419c0,0-0.073-6.444-19.433-10.98
		c0,0-17.035-5.177-25.68-1.762l0.336-5.853l-2.609-0.293c0.813-2.559-1.654-4.465-1.654-4.465l2.693-2.125l2.036,2.396l0.863-0.494
		l-0.882-1.118l2.62,1.205c1.966,0.729,2.383-0.672,2.383-0.672c0.523-1.723-1.982-2.393-1.982-2.393l-1.691-0.735l1.413-2.298
		l-2.354-1.745c0,0-0.164-0.081-0.438-0.184l-0.029-2.686c0.272-2.788,1.98-4.104,3.094-4.679c1.706,4.737,3.94,4.814,3.94,4.814
		c1.379-0.553-0.229-5.689-0.229-5.689c-1.464-4.522-3.305-4.152-3.305-4.152c-1.68,0.476-1.13,2.565-1.111,2.644
		c0.118,0.489,0.243,0.939,0.368,1.365l0,0c0,0-4.633,0.856-5.584,5.516c0,0-0.112,1.109-0.218,2.37
		c-0.692,0.043-1.417,0.208-2.112,0.583c0,0-3.159,1.483-6.453,5.629c0,0-3.462-3.426-6.528-0.974l-4.811-7.438l-7.933,4.438
		l4.079,7.607l-0.481,0.812l-1.22,0.094l-0.561,0.892l-2.303-1.908l-2.591,1.48l-1.055,14.594l2.297,1.425l-3.426,6.725l1.231,0.953
		l-6.202,10.006c-7.012-3.969-21.829-3.489-21.829-3.489l0.509,1.847l0.597,2.25l3.699,2.461
		c-15.827,0.389-28.448,13.285-28.271,28.99c0.182,15.839,13.311,28.531,29.328,28.354c16.017-0.18,28.852-13.164,28.672-29.003
		c-0.006-0.448-0.022-0.896-0.049-1.339l3.892,2.586l1.218-0.416l0.145-1.532c-3.045-17.046-10.044-23.632-13.761-27.38l6.562-11.05
		l6.306,2.912l2.041,0.38l1.487-2.95c0.574,0.442,1.093,0.835,1.232,0.877c0.327,0.104,0.775,1.389,0.775,1.389l-2.92,1.081
		c0,0,3.167,6.248-3.312,9.623l7.036,24.09l2.197-0.267c0,0,14.416,21.108,14.664,21.269c0.244,0.155,44.316-0.173,44.316-0.173
		s21.441-4.979,30.071-5.868c5.644,9.634,16.232,16.063,28.294,15.93c17.814-0.2,32.094-14.641,31.895-32.257
		c-0.111-9.551-4.455-18.071-11.245-23.842c2.225-0.28,5.461-0.727,7.292-1.25l6.319,4.035c0,0,0.202-3.786,0.445-3.869
		c0.242-0.085,8.218-0.737,8.218-0.737l1.291-1.143L279.002,250.403z M106.118,239.08c0,0,4.206-2.664,4.533-6.052l-0.15-2.537
		l2.647,0.092l-5.435,9.244L106.118,239.08z M112.587,245.573l-1.477-0.869c0,0,8.951-15.245,9.032-15.247
		c0.082-0.001,1.232,0.873,1.232,0.873L112.587,245.573z M140.186,204.914c-2.848,1.882-2.968,5.642-2.86,7.353
		c-0.397-0.102-0.864-0.184-1.366-0.214c0.1-1.173,0.199-2.163,0.199-2.163C136.748,207.009,138.749,205.583,140.186,204.914z
		 M134.068,225.315l-0.727,0.652l-0.158,0.483l-3.904,0.447l-3.777-2.537l0.877-1.74c0,0,2.521-0.27,3.603-1.893
		c0,0,0.353-1.294,0.429-1.818l2.341-1.959l0.938,0.23l0.089,0.562l-2.202,3.287l0.374,0.882
		C131.95,221.913,134.645,222.327,134.068,225.315z"/>
	<path fill="#858585" d="M150.438,209.437c1.375-0.849-0.419-5.903-0.419-5.903c-2.746-4.966-4.984-3.569-4.984-3.569
		c-1.505,1.306,0.71,5.013,0.71,5.013C148.874,210.365,150.438,209.437,150.438,209.437z"/>
</g>
<path fill="#E61F19" d="M165.564,143.56l2.341,0.075c0.695,1.439,3.046,2.478,3.046,2.478l8.385-0.366l67.753-2.566
	c4.58-0.332,7.178-4.019,7.178-4.019c14.218,28.314,38.382,26.062,38.382,26.062c37.729-1.222,38.633-39.228,38.633-39.228
	c1.292-27.785-27.185-38.127-27.185-38.127c-21.786-7.379-38.418,7.562-38.418,7.562l-0.911-0.247
	c8.124-7.021,13.17-9.575,13.17-9.575c10.552-4.922,22.27-3.166,22.27-3.166c5.465,0.141,9.372-5.747,9.372-5.747l0.847,0.122
	l-0.748,3.221l0.15,2.12l4.632,1.626l2.728-0.215l0.048-1.867l-0.346-1.988l1.884-0.275l-0.114,1.802
	c5.636,4.383,15.278,20.108,15.278,20.108l1.95,0.109l2.353,1.199l0.65-0.199l-0.076-0.897l-6.303-13.251l1.219-1.746l0.219-4.375
	l3.77-0.1l0.161-3.474l-1.578-1.913c0,0-4.948-0.66-5.209-0.723c-0.26-0.062-3.621,1.964-3.621,1.964l-2.485-1.392l1.224-1.232
	c0,0,0.289-3.667,0.095-3.73c-0.195-0.062-0.466-1.025-0.401-1.088c0.065-0.065-2.079-0.111-2.079-0.111l-1.04,0.141l-1.873,1.301
	l-2.523,1.342l-1.081-0.953l0.082-1.544l-1.287-2.013l0.749-3.383l0.183-1.158l1.242-2.714c0.476-1.257-0.606-2.211-0.606-2.211
	c-1.962-1.14-13.522,3.503-13.522,3.503l-19.045-2.908l0.28-1.45l-3.322-0.546l2.328-1.276l0.646-3.96l-2.272-2.969l-1.463,0.014
	c-7.786,1.615-28.909,5.77-28.909,5.77c-3.543-3.343-6.55-1.771-6.55-1.771l-13.956,9.195l-10.124,1.832
	c-7.792,1.037-14.683-5.648-14.683-5.648c-24.192-21.182-42.787-17.923-42.787-17.923l1.42-4.353l-2.167-2.102
	c-4.967,0.625-13.014,5.523-13.014,5.523l-0.693-1.053l-1.739-0.457l-0.026-0.685l-3.447-3.44l1.85-0.402l1.16-1.17l2.146,0.27
	c3.42,0.451,3.394-2.151,3.394-2.151c0.372-2.03-1.681-2.493-1.681-2.493l-2.635-0.264l0.87-0.588l5.391-7.281l-0.88-0.475
	l-1.932,2.139l-1.369-0.47l-0.219-2.313l2.662-7.354l0.224,2.988l0.391,0.093c2.606-2.725,3.818-8.715,3.818-8.715l0.369-2.03
	l-0.683-0.186l-0.38,1.258l-1.932,1.947l-4.778,0.044l-0.078,2.026l0.881,0.281l-3.032,9.286l-1.048,2.614l-2.012,3.586
	l-3.898,0.422c-0.007-0.771-1.187-1.629-1.187-1.629l-0.61-2.598l-1.082-1.146l-2.253-1.04l-0.774,0.589l-0.087,1.059l1.477,1.531
	l-2.703,2.917l-0.571,1.259c-0.657,2.708,2.179,3.645,2.179,3.645l-0.086,1.157l-2.352-1.134l-0.957,1.842l-3.22-0.163l-0.3-0.673
	l1.153-1.747l-6.813-8.903l-0.206-1.06l-1.973-2.393l-5.726,2.946l-3.19,3.02l2.376,3.641l1.073-0.009c0,0,6.026,8.045,5.732,7.95
	c-0.293-0.093-4.864,1.203-4.864,1.203c-7.179,4.022-11.958,14.096-11.958,14.096c-1.806,4.936,3.508,9.805,3.508,9.805l1.375,1.047
	l0.14,0.899l1.195,2.688l-0.613,3.863l1.454,2.431l1.83,1.011l-7.399,14.857l-1.561,0.014l2.297-4.652l-0.541-2.051l-2.072,0.792
	l-5.395,8.055c-20.766-3.506-33.664,7.13-33.664,7.13l3.001,0.289c-10.965,6.671-18.228,18.693-18.097,32.352
	c0.199,20.734,17.359,37.385,38.326,37.188c20.25-0.19,36.645-16.022,37.564-35.785l1.208,4.432l1.754,9.916l2.651,2.002
	l4.046-0.135l-0.164-1.829l-0.202-0.819l3.988-0.954l-0.107-1.06l0.677-0.777l2.457,2.1l18.732,0.884L165.564,143.56z
	 M121.439,88.139l-3.123-0.164l-4.833,1.445l6.963-13.327l2.539-3.008c2.934,2.367,5.953,3.603,5.953,3.603L121.439,88.139z
	 M132.463,67.975l-2.44-0.072l-2.155-1.121l2.574-4.211c0.124,0.086,0.2,0.131,0.215,0.117c0.096-0.096,4.608,2.754,4.608,2.754
	L132.463,67.975z M138.388,46.193l1.444-2.783l-1.673-1.623l1.234-2.403c0.049,0.188,1.928,1.937,3.397,3.281l-1.279,3.044
	L138.388,46.193z"/>
<line fill="none" x1="340.286" y1="76.014" x2="340.286" y2="76.416"/>
<line fill="none" stroke="#E61F19" stroke-width="2" stroke-miterlimit="10" x1="339.885" y1="85.654" x2="339.885" y2="183.993"/>
<line fill="none" stroke="#E61F19" stroke-width="2" stroke-miterlimit="10" x1="49.854" y1="85.654" x2="49.854" y2="183.895"/>
<line fill="none" stroke="#E61F19" stroke-width="0.75" stroke-miterlimit="10" x1="274.896" y1="175.361" x2="337.815" y2="175.361"/>
<line fill="none" stroke="#E61F19" stroke-width="0.75" stroke-miterlimit="10" x1="51.962" y1="175.361" x2="117" y2="175.361"/>
<polyline fill="none" stroke="#E61F19" stroke-width="0.75" stroke-miterlimit="10" points="59.495,180.904 51.308,175.359 
	59.495,169.816 "/>
<line fill="none" stroke="#858585" stroke-width="2" stroke-miterlimit="10" x1="51.354" y1="238.162" x2="51.354" y2="336.854"/>
<polyline fill="none" stroke="#858585" stroke-miterlimit="10" points="60.995,333.412 52.808,327.867 60.995,322.323 "/>
<polyline fill="none" stroke="#E61F19" stroke-width="0.75" stroke-miterlimit="10" points="330.32,180.904 338.506,175.359 
	330.32,169.816 "/>
<line fill="none" stroke="#858585" stroke-width="2" stroke-miterlimit="10" x1="284.462" y1="238.163" x2="284.462" y2="337.005"/>
<line fill="none" stroke="#858585" stroke-miterlimit="10" x1="244.666" y1="327.869" x2="282.391" y2="327.869"/>
<line fill="none" stroke="#858585" stroke-miterlimit="10" x1="53.06" y1="327.869" x2="93.5" y2="327.869"/>
<polyline fill="none" stroke="#858585" stroke-miterlimit="10" points="274.896,333.413 283.082,327.868 274.896,322.325 "/>
<g>
	<path d="M196.914,326.057h1.446c0.729-0.006,1.307-0.195,1.732-0.566c0.427-0.371,0.641-0.908,0.641-1.611
		c0-0.677-0.178-1.202-0.533-1.576c-0.354-0.375-0.896-0.562-1.625-0.562c-0.639,0-1.162,0.185-1.572,0.553
		c-0.411,0.367-0.616,0.848-0.616,1.439h-2.373c0-0.729,0.194-1.393,0.581-1.992c0.387-0.599,0.928-1.065,1.621-1.4
		c0.693-0.336,1.47-0.504,2.33-0.504c1.419,0,2.533,0.357,3.344,1.07s1.217,1.703,1.217,2.973c0,0.639-0.204,1.239-0.611,1.803
		c-0.406,0.562-0.932,0.987-1.576,1.273c0.781,0.268,1.375,0.688,1.781,1.26c0.407,0.573,0.611,1.257,0.611,2.051
		c0,1.276-0.438,2.292-1.314,3.047c-0.875,0.756-2.025,1.133-3.451,1.133c-1.367,0-2.487-0.364-3.36-1.094
		c-0.873-0.729-1.309-1.699-1.309-2.91h2.373c0,0.625,0.21,1.133,0.63,1.523c0.419,0.391,0.985,0.586,1.695,0.586
		c0.735,0,1.314-0.195,1.738-0.586c0.423-0.391,0.635-0.957,0.635-1.699c0-0.748-0.222-1.324-0.664-1.729
		c-0.443-0.403-1.101-0.605-1.973-0.605h-1.397V326.057z"/>
	<path d="M205.672,327.199l0.771-7.168h7.637v2.051h-5.664l-0.391,3.398c0.657-0.377,1.399-0.566,2.227-0.566
		c1.354,0,2.406,0.434,3.158,1.299c0.752,0.866,1.129,2.031,1.129,3.496c0,1.445-0.417,2.597-1.25,3.453
		c-0.834,0.855-1.977,1.283-3.428,1.283c-1.303,0-2.382-0.369-3.238-1.107c-0.855-0.739-1.319-1.715-1.391-2.926h2.295
		c0.091,0.69,0.338,1.22,0.742,1.588c0.403,0.367,0.931,0.551,1.582,0.551c0.729,0,1.297-0.26,1.703-0.781
		c0.407-0.521,0.611-1.23,0.611-2.129c0-0.865-0.225-1.551-0.674-2.055c-0.449-0.505-1.068-0.758-1.855-0.758
		c-0.43,0-0.795,0.058-1.094,0.172c-0.3,0.113-0.625,0.336-0.977,0.668L205.672,327.199z"/>
</g>
<g>
	<path fill="#E61F19" d="M162.955,75.734h-3.104V63.75l-3.706,1.145v-2.503l6.478-2.32h0.333V75.734z"/>
	<path fill="#E61F19" d="M169.142,77.077h-2.31l5.758-16.983h2.31L169.142,77.077z"/>
	<path fill="#E61F19" d="M176.715,68.042l0.902-7.949h8.766v2.589h-6.22l-0.387,3.362c0.737-0.394,1.521-0.591,2.353-0.591
		c1.489,0,2.657,0.462,3.502,1.386c0.845,0.924,1.268,2.217,1.268,3.878c0,1.01-0.213,1.914-0.639,2.712
		c-0.426,0.799-1.037,1.418-1.832,1.858s-1.733,0.661-2.814,0.661c-0.945,0-1.823-0.192-2.632-0.575
		c-0.81-0.383-1.449-0.922-1.917-1.617c-0.469-0.694-0.718-1.486-0.747-2.374h3.072c0.064,0.652,0.292,1.159,0.682,1.52
		c0.39,0.362,0.9,0.542,1.531,0.542c0.702,0,1.242-0.252,1.622-0.757c0.379-0.505,0.569-1.219,0.569-2.143
		c0-0.888-0.219-1.568-0.655-2.041c-0.437-0.473-1.057-0.709-1.858-0.709c-0.738,0-1.336,0.193-1.794,0.58l-0.301,0.279
		L176.715,68.042z"/>
	<path fill="#E61F19" d="M189.166,74.208c0-0.494,0.167-0.895,0.5-1.203c0.333-0.308,0.75-0.462,1.251-0.462
		c0.508,0,0.929,0.154,1.262,0.462c0.333,0.308,0.5,0.709,0.5,1.203c0,0.487-0.165,0.883-0.494,1.187
		c-0.33,0.305-0.752,0.457-1.268,0.457c-0.509,0-0.928-0.152-1.257-0.457C189.33,75.091,189.166,74.696,189.166,74.208z"/>
	<path fill="#E61F19" d="M195.729,68.042l0.902-7.949h8.765v2.589h-6.219l-0.387,3.362c0.736-0.394,1.521-0.591,2.352-0.591
		c1.49,0,2.657,0.462,3.502,1.386c0.846,0.924,1.268,2.217,1.268,3.878c0,1.01-0.213,1.914-0.639,2.712
		c-0.426,0.799-1.037,1.418-1.832,1.858s-1.732,0.661-2.814,0.661c-0.945,0-1.822-0.192-2.631-0.575
		c-0.811-0.383-1.449-0.922-1.918-1.617c-0.469-0.694-0.718-1.486-0.747-2.374h3.073c0.064,0.652,0.291,1.159,0.682,1.52
		c0.391,0.362,0.9,0.542,1.531,0.542c0.701,0,1.242-0.252,1.621-0.757c0.38-0.505,0.57-1.219,0.57-2.143
		c0-0.888-0.219-1.568-0.656-2.041c-0.437-0.473-1.057-0.709-1.857-0.709c-0.738,0-1.336,0.193-1.795,0.58l-0.301,0.279
		L195.729,68.042z"/>
</g>
<rect fill="none" width="392" height="324"/>
<g>
	<path fill="#ED1C24" d="M287.617,12.969v7.953h6.49v-7.953h2.277v7.477c0,0.914-0.17,1.527-0.512,1.842
		c-0.342,0.318-0.98,0.475-1.918,0.475h-6.186c-0.938,0-1.574-0.156-1.916-0.475c-0.342-0.314-0.512-0.928-0.512-1.842v-7.477
		H287.617z"/>
	<path fill="#ED1C24" d="M298.756,22.762v-9.793h2.277v7.953h7.344v1.84H298.756z"/>
	<path fill="#ED1C24" d="M314.076,14.717v8.045h-2.279v-8.045h-4.496v-1.748h11.289v1.748H314.076z"/>
	<path fill="#ED1C24" d="M297.682,37.66v-9.793h10.018v1.672h-7.742v2.182h6.146v1.67h-6.146v2.43h7.836v1.84H297.682z"/>
	<path fill="#ED1C24" d="M322.545,37.66v-9.793h2.277v7.953h7.342v1.84H322.545z"/>
	<path fill="#ED1C24" d="M333.607,37.66v-9.793h2.277v9.793H333.607z"/>
	<path fill="#ED1C24" d="M356.295,29.615v8.045h-2.277v-8.045h-4.496v-1.748h11.289v1.748H356.295z"/>
	<path fill="#ED1C24" d="M362.562,37.66v-9.793h2.277v9.793H362.562z"/>
</g>
<path fill="#ED1C24" d="M375.426,33.807v2.014h-6.148v-6.205h6.148v1.668h2.275v-1.1c0-0.912-0.168-1.523-0.512-1.84
	c-0.34-0.314-0.98-0.477-1.916-0.477h-5.844c-0.938,0-1.576,0.162-1.916,0.477C367.17,28.66,367,29.271,367,30.184v5.16
	c0,0.912,0.17,1.527,0.514,1.84c0.34,0.32,0.979,0.477,1.916,0.477h5.844c0.936,0,1.576-0.156,1.916-0.477
	c0.344-0.312,0.512-0.928,0.512-1.84v-1.537H375.426z"/>
<polygon fill="#ED1C24" points="342.166,22.762 344.729,22.762 339.111,12.969 336.91,12.969 331.369,22.762 333.646,22.762 
	337.936,14.869 "/>
<polygon fill="#ED1C24" points="319.201,37.66 321.764,37.66 316.146,27.867 313.945,27.867 308.406,37.66 310.682,37.66 
	314.971,29.768 "/>
<g>
	<path fill="#ED1C24" d="M327.248,19.061h1.289c1.467,0,2.201-0.633,2.201-1.895v-2.297c0-1.268-0.734-1.9-2.201-1.9h-8.387v9.793
		h2.229l0.012-8.121h5.123c0.354,0,0.6,0.037,0.74,0.115c0.189,0.113,0.283,0.336,0.283,0.668v1.186
		c0,0.332-0.094,0.553-0.283,0.668c-0.141,0.076-0.387,0.115-0.74,0.115h-4.318v1.668h1.357l3.947,3.701h3.264L327.248,19.061z"/>
</g>
<g>
	<path fill="#ED1C24" d="M292.57,33.959h1.291c1.467,0,2.201-0.633,2.201-1.895v-2.297c0-1.268-0.734-1.9-2.201-1.9h-8.387v9.793
		h2.229l0.01-8.121h5.125c0.354,0,0.6,0.037,0.74,0.115c0.188,0.113,0.283,0.336,0.283,0.668v1.186c0,0.33-0.096,0.553-0.283,0.668
		c-0.141,0.076-0.387,0.115-0.74,0.115h-4.318v1.668h1.357l3.947,3.701h3.264L292.57,33.959z"/>
</g>
<path fill="#ED1C24" d="M345.822,31.682h-6.123v-2.105h6.432l0.02,0.004h1.936c-0.061-0.564-0.199-1.016-0.484-1.256
	c-0.359-0.305-0.99-0.457-1.887-0.457h-5.561c-0.938,0-1.574,0.162-1.916,0.477c-0.342,0.316-0.514,0.928-0.514,1.84v1.08
	c0,0.914,0.172,1.527,0.514,1.842c0.342,0.318,0.979,0.477,1.916,0.477h6.109v2.238h-6.703v-1.088l-2.012-0.518v1.129
	c0,0.912,0.174,1.527,0.521,1.84c0.348,0.32,0.99,0.477,1.928,0.477h5.83c0.936,0,1.578-0.156,1.926-0.477
	c0.348-0.312,0.521-0.928,0.521-1.84v-1.346c0-0.912-0.174-1.523-0.523-1.84C347.404,31.842,346.762,31.682,345.822,31.682z"/>
<path fill="#545454" d="M297.97,229.001v-9.793h10.018v1.672h-7.742v2.182h6.146v1.67h-6.146v2.43h7.836v1.84H297.97z"/>
<path fill="#545454" d="M322.833,229.001v-9.793h2.277v7.953h7.342v1.84H322.833z"/>
<path fill="#545454" d="M333.896,229.001v-9.793h2.277v9.793H333.896z"/>
<path fill="#545454" d="M356.583,220.956v8.045h-2.277v-8.045h-4.496v-1.748h11.289v1.748H356.583z"/>
<path fill="#545454" d="M362.851,229.001v-9.793h2.277v9.793H362.851z"/>
<path fill="#545454" d="M375.714,225.147v2.014h-6.148v-6.205h6.148v1.668h2.275v-1.1c0-0.912-0.168-1.523-0.512-1.84
	c-0.34-0.314-0.98-0.477-1.916-0.477h-5.844c-0.938,0-1.576,0.162-1.916,0.477c-0.344,0.316-0.514,0.928-0.514,1.84v5.16
	c0,0.912,0.17,1.527,0.514,1.84c0.34,0.32,0.979,0.477,1.916,0.477h5.844c0.936,0,1.576-0.156,1.916-0.477
	c0.344-0.312,0.512-0.928,0.512-1.84v-1.537H375.714z"/>
<polygon fill="#545454" points="319.489,229.001 322.052,229.001 316.435,219.208 314.233,219.208 308.694,229.001 310.97,229.001 
	315.259,221.108 "/>
<g>
	<g>
		<path fill="#545454" d="M292.858,225.3h1.291c1.467,0,2.201-0.633,2.201-1.895v-2.297c0-1.268-0.734-1.9-2.201-1.9h-8.387v9.793
			h2.229l0.01-8.121h5.125c0.354,0,0.6,0.037,0.74,0.115c0.188,0.113,0.283,0.336,0.283,0.668v1.186c0,0.33-0.096,0.553-0.283,0.668
			c-0.141,0.076-0.387,0.115-0.74,0.115h-4.318v1.668h1.357l3.947,3.701h3.264L292.858,225.3z"/>
	</g>
</g>
<path fill="#545454" d="M346.11,223.022h-6.123v-2.105h6.432l0.02,0.004h1.936c-0.061-0.564-0.199-1.016-0.484-1.256
	c-0.359-0.305-0.99-0.457-1.887-0.457h-5.561c-0.938,0-1.574,0.162-1.916,0.477c-0.342,0.316-0.514,0.928-0.514,1.84v1.08
	c0,0.914,0.172,1.527,0.514,1.842c0.342,0.318,0.979,0.477,1.916,0.477h6.109v2.238h-6.703v-1.088l-2.012-0.518v1.129
	c0,0.912,0.174,1.527,0.521,1.84c0.348,0.32,0.99,0.477,1.928,0.477h5.83c0.936,0,1.578-0.156,1.926-0.477
	c0.348-0.312,0.521-0.928,0.521-1.84v-1.346c0-0.912-0.174-1.523-0.523-1.84C347.692,223.183,347.05,223.022,346.11,223.022z"/>
<g>
	<path d="M108.218,330.567h-2.937l-0.571,2.183h-2.278l3.333-10.664h1.97l3.354,10.664h-2.3L108.218,330.567z M105.75,328.773h1.992
		l-0.996-3.802L105.75,328.773z"/>
	<path d="M118.157,329.037c0,1.244-0.214,2.199-0.641,2.863c-0.428,0.664-1.063,0.996-1.908,0.996c-0.645,0-1.162-0.261-1.553-0.783
		v3.684h-2.073v-10.972h1.919l0.073,0.726c0.396-0.581,0.935-0.872,1.619-0.872c0.845,0,1.48,0.308,1.908,0.923
		c0.427,0.615,0.646,1.558,0.655,2.827V329.037z M116.092,328.523c0-0.77-0.084-1.312-0.253-1.631
		c-0.168-0.318-0.453-0.479-0.853-0.479c-0.425,0-0.735,0.18-0.93,0.537v3.725c0.186,0.343,0.5,0.514,0.945,0.514
		c0.41,0,0.694-0.174,0.853-0.521s0.238-0.889,0.238-1.623V328.523z"/>
	<path d="M125.584,329.037c0,1.244-0.214,2.199-0.641,2.863c-0.428,0.664-1.063,0.996-1.908,0.996c-0.645,0-1.162-0.261-1.553-0.783
		v3.684h-2.073v-10.972h1.919l0.073,0.726c0.396-0.581,0.935-0.872,1.619-0.872c0.845,0,1.48,0.308,1.908,0.923
		c0.427,0.615,0.646,1.558,0.655,2.827V329.037z M123.519,328.523c0-0.77-0.084-1.312-0.253-1.631
		c-0.168-0.318-0.453-0.479-0.853-0.479c-0.425,0-0.735,0.18-0.93,0.537v3.725c0.186,0.343,0.5,0.514,0.945,0.514
		c0.41,0,0.694-0.174,0.853-0.521s0.238-0.889,0.238-1.623V328.523z"/>
	<path d="M130.748,326.824l-0.688-0.059c-0.566,0-0.95,0.25-1.15,0.748v5.236h-2.08v-7.925h1.956l0.059,0.856
		c0.327-0.668,0.779-1.003,1.355-1.003c0.234,0,0.425,0.032,0.571,0.095L130.748,326.824z"/>
	<path d="M131.568,328.531c0-1.201,0.283-2.144,0.85-2.827s1.35-1.025,2.351-1.025c1.011,0,1.799,0.342,2.366,1.025
		s0.85,1.631,0.85,2.842v0.505c0,1.207-0.281,2.149-0.842,2.828s-1.348,1.018-2.358,1.018c-1.016,0-1.805-0.341-2.37-1.021
		c-0.563-0.682-0.846-1.627-0.846-2.838V328.531z M133.648,329.053c0,1.425,0.378,2.137,1.135,2.137
		c0.698,0,1.074-0.594,1.128-1.783l0.007-0.877c0-0.727-0.1-1.266-0.3-1.617s-0.483-0.527-0.85-0.527
		c-0.352,0-0.626,0.176-0.824,0.527c-0.198,0.352-0.297,0.891-0.297,1.617V329.053z"/>
	<path d="M141.924,327.176l0.923-2.351h2.197l-1.809,3.874l1.875,4.051h-2.205l-0.974-2.482l-0.967,2.482h-2.212l1.875-4.051
		l-1.794-3.874h2.205L141.924,327.176z"/>
	<path d="M146.062,322.774c0-0.322,0.103-0.586,0.308-0.791s0.479-0.308,0.82-0.308s0.615,0.103,0.82,0.308s0.308,0.469,0.308,0.791
		c0,0.317-0.102,0.581-0.304,0.791s-0.477,0.315-0.824,0.315s-0.622-0.105-0.824-0.315
		C146.164,323.355,146.062,323.092,146.062,322.774z M148.238,332.75h-2.08v-7.925h2.08V332.75z"/>
	<path d="M151.79,324.825l0.059,0.732c0.464-0.586,1.077-0.879,1.838-0.879c0.791,0,1.35,0.356,1.677,1.069
		c0.454-0.713,1.101-1.069,1.941-1.069c1.387,0,2.097,0.96,2.131,2.878v5.193h-2.073v-5.061c0-0.459-0.063-0.786-0.19-0.982
		c-0.127-0.194-0.342-0.293-0.645-0.293c-0.386,0-0.674,0.237-0.864,0.711l0.015,0.249v5.376h-2.073v-5.047
		c0-0.453-0.061-0.782-0.183-0.984c-0.122-0.203-0.339-0.305-0.652-0.305c-0.356,0-0.64,0.193-0.85,0.579v5.757h-2.073v-7.925
		H151.79z"/>
	<path d="M164.732,332.75c-0.059-0.122-0.117-0.327-0.176-0.615c-0.371,0.508-0.874,0.762-1.509,0.762
		c-0.664,0-1.215-0.22-1.652-0.659s-0.655-1.008-0.655-1.706c0-0.83,0.265-1.473,0.795-1.927c0.529-0.454,1.292-0.686,2.289-0.696
		h0.63v-0.637c0-0.356-0.061-0.607-0.183-0.754s-0.3-0.221-0.535-0.221c-0.518,0-0.776,0.304-0.776,0.908h-2.073
		c0-0.732,0.274-1.336,0.824-1.812c0.549-0.476,1.244-0.714,2.083-0.714c0.869,0,1.542,0.226,2.018,0.678
		c0.476,0.451,0.714,1.098,0.714,1.937v3.729c0.01,0.684,0.107,1.219,0.293,1.604v0.125H164.732z M163.509,331.271
		c0.229,0,0.425-0.046,0.586-0.14c0.161-0.092,0.281-0.202,0.359-0.329v-1.647h-0.498c-0.352,0-0.629,0.112-0.832,0.336
		c-0.203,0.226-0.304,0.525-0.304,0.901C162.82,330.978,163.05,331.271,163.509,331.271z"/>
	<path d="M170.438,322.877v1.948h1.062v1.553h-1.062v3.939c0,0.312,0.042,0.528,0.128,0.646s0.25,0.176,0.495,0.176
		c0.2,0,0.364-0.017,0.491-0.051l-0.015,1.611c-0.352,0.131-0.732,0.197-1.143,0.197c-1.338,0-2.014-0.768-2.029-2.303v-4.216
		h-0.916v-1.553h0.916v-1.948H170.438z"/>
	<path d="M175.835,332.896c-1.064,0-1.895-0.317-2.49-0.952s-0.894-1.543-0.894-2.725v-0.63c0-1.25,0.273-2.214,0.82-2.893
		s1.331-1.019,2.351-1.019c0.996,0,1.746,0.318,2.249,0.954c0.503,0.637,0.759,1.579,0.769,2.827v1.017h-4.124
		c0.029,0.593,0.159,1.027,0.388,1.302s0.583,0.411,1.062,0.411c0.693,0,1.272-0.241,1.736-0.725l0.813,1.252
		c-0.254,0.352-0.623,0.637-1.106,0.854C176.927,332.788,176.402,332.896,175.835,332.896z M174.532,328.033h2.073v-0.192
		c-0.01-0.478-0.088-0.84-0.234-1.086s-0.4-0.37-0.762-0.37s-0.624,0.131-0.788,0.393
		C174.657,327.038,174.561,327.457,174.532,328.033z"/>
	<path d="M181.988,332.75h-2.08V321.5h2.08V332.75z"/>
	<path d="M186.133,329.301l1.055-4.476h2.212l-2.607,9.111c-0.391,1.343-1.125,2.015-2.205,2.015c-0.249,0-0.532-0.047-0.85-0.14
		v-1.618l0.242,0.007c0.322,0,0.565-0.062,0.729-0.187c0.164-0.125,0.287-0.341,0.37-0.648l0.161-0.535l-2.285-8.005h2.227
		L186.133,329.301z"/>
</g>
<g>
	<path d="M221.118,331.189c0.601,0,0.905-0.395,0.915-1.186h1.949c-0.01,0.863-0.276,1.562-0.799,2.094
		c-0.522,0.533-1.196,0.799-2.021,0.799c-1.021,0-1.799-0.317-2.336-0.952s-0.811-1.569-0.82-2.806v-0.629
		c0-1.246,0.264-2.195,0.794-2.85s1.312-0.981,2.348-0.981c0.874,0,1.562,0.27,2.065,0.81c0.503,0.539,0.76,1.305,0.77,2.296h-1.949
		c-0.004-0.449-0.078-0.795-0.219-1.036c-0.143-0.242-0.377-0.363-0.703-0.363c-0.361,0-0.621,0.13-0.777,0.388
		s-0.238,0.758-0.248,1.499v0.811c0,0.648,0.031,1.103,0.095,1.36s0.169,0.446,0.315,0.567
		C220.643,331.13,220.85,331.189,221.118,331.189z"/>
	<path d="M227.102,324.825l0.059,0.732c0.465-0.586,1.077-0.879,1.839-0.879c0.791,0,1.351,0.356,1.677,1.069
		c0.455-0.713,1.102-1.069,1.941-1.069c1.387,0,2.098,0.96,2.131,2.878v5.193h-2.072v-5.061c0-0.459-0.063-0.786-0.19-0.982
		c-0.127-0.194-0.342-0.293-0.645-0.293c-0.386,0-0.674,0.237-0.864,0.711l0.015,0.249v5.376h-2.073v-5.047
		c0-0.453-0.061-0.782-0.183-0.984c-0.122-0.203-0.339-0.305-0.651-0.305c-0.357,0-0.641,0.193-0.85,0.579v5.757h-2.073v-7.925
		H227.102z"/>
</g>
<g>
	<path d="M229.727,174.948h2.033v2.19h-2.033v3.639h-2.729v-3.639h-7.064l-0.078-1.662l7.053-11.051h2.818V174.948z
		 M222.719,174.948h4.279v-6.828l-0.202,0.359L222.719,174.948z"/>
	<path d="M242.799,174.948h2.033v2.19h-2.033v3.639h-2.729v-3.639h-7.064l-0.078-1.662l7.053-11.051h2.818V174.948z
		 M235.791,174.948h4.279v-6.828l-0.202,0.359L235.791,174.948z"/>
</g>
<g>
	<path d="M134.385,177.094h-2.937l-0.571,2.183h-2.278l3.333-10.664h1.97l3.354,10.664h-2.3L134.385,177.094z M131.917,175.3h1.992
		l-0.996-3.802L131.917,175.3z"/>
	<path d="M144.324,175.563c0,1.244-0.214,2.199-0.641,2.863c-0.428,0.664-1.063,0.996-1.908,0.996c-0.645,0-1.162-0.261-1.553-0.783
		v3.684h-2.073v-10.972h1.919l0.073,0.726c0.396-0.581,0.935-0.872,1.619-0.872c0.845,0,1.48,0.308,1.908,0.923
		c0.427,0.615,0.646,1.558,0.655,2.827V175.563z M142.258,175.05c0-0.77-0.084-1.312-0.253-1.631
		c-0.168-0.318-0.453-0.479-0.853-0.479c-0.425,0-0.735,0.18-0.93,0.537v3.725c0.186,0.343,0.5,0.514,0.945,0.514
		c0.41,0,0.694-0.174,0.853-0.521s0.238-0.889,0.238-1.623V175.05z"/>
	<path d="M151.75,175.563c0,1.244-0.214,2.199-0.641,2.863c-0.428,0.664-1.063,0.996-1.908,0.996c-0.645,0-1.162-0.261-1.553-0.783
		v3.684h-2.073v-10.972h1.919l0.073,0.726c0.396-0.581,0.935-0.872,1.619-0.872c0.845,0,1.48,0.308,1.908,0.923
		c0.427,0.615,0.646,1.558,0.655,2.827V175.563z M149.685,175.05c0-0.77-0.084-1.312-0.253-1.631
		c-0.168-0.318-0.453-0.479-0.853-0.479c-0.425,0-0.735,0.18-0.93,0.537v3.725c0.186,0.343,0.5,0.514,0.945,0.514
		c0.41,0,0.694-0.174,0.853-0.521s0.238-0.889,0.238-1.623V175.05z"/>
	<path d="M156.914,173.351l-0.688-0.059c-0.566,0-0.95,0.25-1.15,0.748v5.236h-2.08v-7.925h1.956l0.059,0.856
		c0.327-0.668,0.779-1.003,1.355-1.003c0.234,0,0.425,0.032,0.571,0.095L156.914,173.351z"/>
	<path d="M157.734,175.058c0-1.201,0.283-2.144,0.85-2.827s1.35-1.025,2.351-1.025c1.011,0,1.799,0.342,2.366,1.025
		s0.85,1.631,0.85,2.842v0.505c0,1.207-0.281,2.149-0.842,2.828s-1.348,1.018-2.358,1.018c-1.016,0-1.805-0.341-2.37-1.021
		c-0.563-0.682-0.846-1.627-0.846-2.838V175.058z M159.814,175.579c0,1.425,0.378,2.137,1.135,2.137
		c0.698,0,1.074-0.594,1.128-1.783l0.007-0.877c0-0.727-0.1-1.266-0.3-1.617s-0.483-0.527-0.85-0.527
		c-0.352,0-0.626,0.176-0.824,0.527c-0.198,0.352-0.297,0.891-0.297,1.617V175.579z"/>
	<path d="M168.091,173.702l0.923-2.351h2.197l-1.809,3.874l1.875,4.051h-2.205l-0.974-2.482l-0.967,2.482h-2.212l1.875-4.051
		L165,171.352h2.205L168.091,173.702z"/>
	<path d="M172.229,169.301c0-0.322,0.103-0.586,0.308-0.791s0.479-0.308,0.82-0.308s0.615,0.103,0.82,0.308s0.308,0.469,0.308,0.791
		c0,0.317-0.102,0.581-0.304,0.791s-0.477,0.315-0.824,0.315s-0.622-0.105-0.824-0.315
		C172.33,169.882,172.229,169.618,172.229,169.301z M174.404,179.276h-2.08v-7.925h2.08V179.276z"/>
	<path d="M177.957,171.352l0.059,0.732c0.464-0.586,1.077-0.879,1.838-0.879c0.791,0,1.35,0.356,1.677,1.069
		c0.454-0.713,1.101-1.069,1.941-1.069c1.387,0,2.097,0.96,2.131,2.878v5.193h-2.073v-5.061c0-0.459-0.063-0.786-0.19-0.982
		c-0.127-0.194-0.342-0.293-0.645-0.293c-0.386,0-0.674,0.237-0.864,0.711l0.015,0.249v5.376h-2.073v-5.047
		c0-0.453-0.061-0.782-0.183-0.984c-0.122-0.203-0.339-0.305-0.652-0.305c-0.356,0-0.64,0.193-0.85,0.579v5.757h-2.073v-7.925
		H177.957z"/>
	<path d="M190.898,179.276c-0.059-0.122-0.117-0.327-0.176-0.615c-0.371,0.508-0.874,0.762-1.509,0.762
		c-0.664,0-1.215-0.22-1.652-0.659s-0.655-1.008-0.655-1.706c0-0.83,0.265-1.473,0.795-1.927c0.529-0.454,1.292-0.686,2.289-0.696
		h0.63v-0.637c0-0.356-0.061-0.607-0.183-0.754s-0.3-0.221-0.535-0.221c-0.518,0-0.776,0.304-0.776,0.908h-2.073
		c0-0.732,0.274-1.336,0.824-1.812c0.549-0.476,1.244-0.714,2.083-0.714c0.869,0,1.542,0.226,2.018,0.678
		c0.476,0.451,0.714,1.098,0.714,1.937v3.729c0.01,0.684,0.107,1.219,0.293,1.604v0.125H190.898z M189.675,177.797
		c0.229,0,0.425-0.046,0.586-0.14c0.161-0.092,0.281-0.202,0.359-0.329v-1.647h-0.498c-0.352,0-0.629,0.112-0.832,0.336
		c-0.203,0.226-0.304,0.525-0.304,0.901C188.987,177.504,189.216,177.797,189.675,177.797z"/>
	<path d="M196.604,169.403v1.948h1.062v1.553h-1.062v3.939c0,0.312,0.042,0.528,0.128,0.646s0.25,0.176,0.495,0.176
		c0.2,0,0.363-0.017,0.49-0.051l-0.014,1.611c-0.352,0.131-0.733,0.197-1.143,0.197c-1.338,0-2.014-0.768-2.029-2.303v-4.216h-0.916
		v-1.553h0.916v-1.948H196.604z"/>
	<path d="M202.002,179.423c-1.064,0-1.895-0.317-2.49-0.952s-0.894-1.543-0.894-2.725v-0.63c0-1.25,0.273-2.214,0.82-2.893
		s1.331-1.019,2.351-1.019c0.996,0,1.746,0.318,2.249,0.954c0.503,0.637,0.759,1.579,0.769,2.827v1.017h-4.123
		c0.029,0.593,0.158,1.027,0.389,1.302c0.229,0.274,0.583,0.411,1.062,0.411c0.693,0,1.272-0.241,1.735-0.725l0.813,1.252
		c-0.254,0.352-0.622,0.637-1.106,0.854C203.094,179.314,202.568,179.423,202.002,179.423z M200.698,174.56h2.073v-0.192
		c-0.01-0.478-0.088-0.84-0.234-1.086s-0.4-0.37-0.762-0.37s-0.625,0.131-0.788,0.393
		C200.824,173.564,200.728,173.983,200.698,174.56z"/>
	<path d="M208.154,179.276h-2.08v-11.25h2.08V179.276z"/>
	<path d="M212.3,175.827l1.055-4.476h2.212l-2.607,9.111c-0.391,1.343-1.125,2.015-2.205,2.015c-0.248,0-0.531-0.047-0.85-0.14
		v-1.618l0.242,0.007c0.322,0,0.564-0.062,0.729-0.187c0.164-0.125,0.287-0.341,0.37-0.648l0.161-0.535l-2.285-8.005h2.227
		L212.3,175.827z"/>
</g>
<g>
	<path d="M251.285,177.716c0.6,0,0.905-0.395,0.915-1.186h1.948c-0.01,0.863-0.275,1.562-0.799,2.094
		c-0.521,0.533-1.195,0.799-2.021,0.799c-1.02,0-1.799-0.317-2.336-0.952s-0.811-1.569-0.82-2.806v-0.629
		c0-1.246,0.265-2.195,0.795-2.85c0.529-0.654,1.312-0.981,2.348-0.981c0.873,0,1.562,0.27,2.064,0.81
		c0.504,0.539,0.76,1.305,0.77,2.296H252.2c-0.005-0.449-0.078-0.795-0.22-1.036c-0.142-0.242-0.376-0.363-0.703-0.363
		c-0.361,0-0.62,0.13-0.776,0.388s-0.239,0.758-0.249,1.499v0.811c0,0.648,0.031,1.103,0.096,1.36
		c0.062,0.258,0.168,0.446,0.314,0.567C250.809,177.656,251.016,177.716,251.285,177.716z"/>
	<path d="M257.269,171.352l0.059,0.732c0.464-0.586,1.077-0.879,1.839-0.879c0.791,0,1.35,0.356,1.677,1.069
		c0.454-0.713,1.101-1.069,1.94-1.069c1.387,0,2.098,0.96,2.132,2.878v5.193h-2.073v-5.061c0-0.459-0.062-0.786-0.189-0.982
		c-0.127-0.194-0.342-0.293-0.645-0.293c-0.387,0-0.674,0.237-0.865,0.711l0.016,0.249v5.376h-2.073v-5.047
		c0-0.453-0.062-0.782-0.183-0.984c-0.123-0.203-0.34-0.305-0.652-0.305c-0.356,0-0.64,0.193-0.85,0.579v5.757h-2.072v-7.925
		H257.269z"/>
</g>
<g>
	<path fill="#FFFFFF" d="M143.208,264.446h-2.937l-0.571,2.183h-2.278l3.333-10.664h1.97l3.354,10.664h-2.3L143.208,264.446z
		 M140.739,262.652h1.992l-0.996-3.802L140.739,262.652z"/>
	<path fill="#FFFFFF" d="M153.146,262.916c0,1.244-0.214,2.199-0.641,2.863c-0.428,0.664-1.063,0.996-1.908,0.996
		c-0.645,0-1.162-0.261-1.553-0.783v3.684h-2.073v-10.972h1.919l0.073,0.726c0.396-0.581,0.935-0.872,1.619-0.872
		c0.845,0,1.48,0.308,1.908,0.923c0.427,0.615,0.646,1.558,0.655,2.827V262.916z M151.081,262.402c0-0.77-0.084-1.312-0.253-1.631
		c-0.168-0.318-0.453-0.479-0.853-0.479c-0.425,0-0.735,0.18-0.93,0.537v3.725c0.186,0.343,0.5,0.514,0.945,0.514
		c0.41,0,0.694-0.174,0.853-0.521s0.238-0.889,0.238-1.623V262.402z"/>
	<path fill="#FFFFFF" d="M160.573,262.916c0,1.244-0.214,2.199-0.641,2.863c-0.428,0.664-1.063,0.996-1.908,0.996
		c-0.645,0-1.162-0.261-1.553-0.783v3.684h-2.073v-10.972h1.919l0.073,0.726c0.396-0.581,0.935-0.872,1.619-0.872
		c0.845,0,1.48,0.308,1.908,0.923c0.427,0.615,0.646,1.558,0.655,2.827V262.916z M158.508,262.402c0-0.77-0.084-1.312-0.253-1.631
		c-0.168-0.318-0.453-0.479-0.853-0.479c-0.425,0-0.735,0.18-0.93,0.537v3.725c0.186,0.343,0.5,0.514,0.945,0.514
		c0.41,0,0.694-0.174,0.853-0.521s0.238-0.889,0.238-1.623V262.402z"/>
	<path fill="#FFFFFF" d="M165.737,260.703l-0.688-0.059c-0.566,0-0.95,0.25-1.15,0.748v5.236h-2.08v-7.925h1.956l0.059,0.856
		c0.327-0.668,0.779-1.003,1.355-1.003c0.234,0,0.425,0.032,0.571,0.095L165.737,260.703z"/>
	<path fill="#FFFFFF" d="M166.557,262.41c0-1.201,0.283-2.144,0.85-2.827s1.35-1.025,2.351-1.025c1.011,0,1.799,0.342,2.366,1.025
		s0.85,1.631,0.85,2.842v0.505c0,1.207-0.281,2.149-0.842,2.828s-1.348,1.018-2.358,1.018c-1.016,0-1.805-0.341-2.37-1.021
		c-0.563-0.682-0.846-1.627-0.846-2.838V262.41z M168.637,262.932c0,1.425,0.378,2.137,1.135,2.137c0.698,0,1.074-0.594,1.128-1.783
		l0.007-0.877c0-0.727-0.1-1.266-0.3-1.617s-0.483-0.527-0.85-0.527c-0.352,0-0.626,0.176-0.824,0.527
		c-0.198,0.352-0.297,0.891-0.297,1.617V262.932z"/>
	<path fill="#FFFFFF" d="M176.914,261.055l0.923-2.351h2.197l-1.809,3.874l1.875,4.051h-2.205l-0.974-2.482l-0.967,2.482h-2.212
		l1.875-4.051l-1.794-3.874h2.205L176.914,261.055z"/>
	<path fill="#FFFFFF" d="M181.052,256.653c0-0.322,0.103-0.586,0.308-0.791s0.479-0.308,0.82-0.308s0.615,0.103,0.82,0.308
		s0.308,0.469,0.308,0.791c0,0.317-0.102,0.581-0.304,0.791s-0.477,0.315-0.824,0.315s-0.622-0.105-0.824-0.315
		C181.153,257.234,181.052,256.971,181.052,256.653z M183.227,266.629h-2.08v-7.925h2.08V266.629z"/>
	<path fill="#FFFFFF" d="M186.779,258.704l0.059,0.732c0.464-0.586,1.077-0.879,1.838-0.879c0.791,0,1.35,0.356,1.677,1.069
		c0.454-0.713,1.101-1.069,1.941-1.069c1.387,0,2.097,0.96,2.131,2.878v5.193h-2.073v-5.061c0-0.459-0.063-0.786-0.19-0.982
		c-0.127-0.194-0.342-0.293-0.645-0.293c-0.386,0-0.674,0.237-0.864,0.711l0.015,0.249v5.376h-2.073v-5.047
		c0-0.453-0.061-0.782-0.183-0.984c-0.122-0.203-0.339-0.305-0.652-0.305c-0.356,0-0.64,0.193-0.85,0.579v5.757h-2.073v-7.925
		H186.779z"/>
	<path fill="#FFFFFF" d="M199.721,266.629c-0.059-0.122-0.117-0.327-0.176-0.615c-0.371,0.508-0.873,0.762-1.508,0.762
		c-0.664,0-1.215-0.22-1.652-0.659s-0.655-1.008-0.655-1.706c0-0.83,0.265-1.473,0.795-1.927c0.529-0.454,1.292-0.686,2.288-0.696
		h0.631v-0.637c0-0.356-0.062-0.607-0.184-0.754s-0.301-0.221-0.535-0.221c-0.518,0-0.775,0.304-0.775,0.908h-2.073
		c0-0.732,0.274-1.336,0.824-1.812c0.549-0.476,1.243-0.714,2.083-0.714c0.869,0,1.542,0.226,2.019,0.678
		c0.476,0.451,0.714,1.098,0.714,1.937v3.729c0.01,0.684,0.107,1.219,0.293,1.604v0.125H199.721z M198.498,265.149
		c0.229,0,0.425-0.046,0.586-0.14c0.161-0.092,0.281-0.202,0.359-0.329v-1.647h-0.498c-0.352,0-0.629,0.112-0.832,0.336
		c-0.203,0.226-0.304,0.525-0.304,0.901C197.81,264.856,198.039,265.149,198.498,265.149z"/>
	<path fill="#FFFFFF" d="M205.427,256.756v1.948h1.062v1.553h-1.062v3.939c0,0.312,0.042,0.528,0.128,0.646s0.25,0.176,0.494,0.176
		c0.201,0,0.364-0.017,0.491-0.051l-0.015,1.611c-0.352,0.131-0.732,0.197-1.143,0.197c-1.338,0-2.014-0.768-2.029-2.303v-4.216
		h-0.915v-1.553h0.915v-1.948H205.427z"/>
	<path fill="#FFFFFF" d="M210.824,266.775c-1.064,0-1.895-0.317-2.49-0.952s-0.893-1.543-0.893-2.725v-0.63
		c0-1.25,0.273-2.214,0.82-2.893s1.33-1.019,2.351-1.019c0.996,0,1.745,0.318,2.249,0.954c0.502,0.637,0.759,1.579,0.769,2.827
		v1.017h-4.124c0.029,0.593,0.159,1.027,0.389,1.302s0.584,0.411,1.062,0.411c0.693,0,1.271-0.241,1.735-0.725l0.813,1.252
		c-0.254,0.352-0.623,0.637-1.106,0.854C211.916,266.667,211.391,266.775,210.824,266.775z M209.521,261.912h2.072v-0.192
		c-0.01-0.478-0.088-0.84-0.234-1.086s-0.4-0.37-0.762-0.37s-0.624,0.131-0.787,0.393
		C209.646,260.917,209.551,261.336,209.521,261.912z"/>
	<path fill="#FFFFFF" d="M216.977,266.629h-2.08v-11.25h2.08V266.629z"/>
	<path fill="#FFFFFF" d="M221.123,263.18l1.055-4.476h2.211l-2.607,9.111c-0.391,1.343-1.125,2.015-2.204,2.015
		c-0.249,0-0.532-0.047-0.85-0.14v-1.618l0.241,0.007c0.322,0,0.565-0.062,0.729-0.187c0.164-0.125,0.287-0.341,0.371-0.648
		l0.16-0.535l-2.285-8.005h2.227L221.123,263.18z"/>
</g>
<g>
	<path fill="#FFFFFF" d="M177.19,286.672c0-0.176-0.084-0.338-0.253-0.487c-0.168-0.148-0.543-0.35-1.124-0.604
		c-0.854-0.347-1.442-0.706-1.762-1.077s-0.479-0.832-0.479-1.384c0-0.693,0.25-1.267,0.751-1.718
		c0.5-0.452,1.163-0.678,1.988-0.678c0.869,0,1.565,0.225,2.087,0.674s0.784,1.053,0.784,1.81h-2.073
		c0-0.645-0.269-0.967-0.806-0.967c-0.22,0-0.4,0.068-0.542,0.205s-0.212,0.327-0.212,0.57c0,0.176,0.078,0.331,0.234,0.466
		c0.156,0.134,0.525,0.325,1.106,0.575c0.845,0.312,1.441,0.66,1.791,1.043c0.349,0.384,0.524,0.881,0.524,1.49
		c0,0.709-0.266,1.277-0.798,1.707s-1.23,0.645-2.095,0.645c-0.581,0-1.094-0.113-1.538-0.341c-0.444-0.227-0.792-0.543-1.044-0.948
		s-0.377-0.842-0.377-1.311h1.97c0.01,0.361,0.094,0.632,0.252,0.812s0.419,0.271,0.78,0.271
		C176.912,287.427,177.19,287.175,177.19,286.672z"/>
	<path fill="#FFFFFF" d="M183.357,287.235c0.601,0,0.906-0.395,0.916-1.186h1.948c-0.01,0.863-0.276,1.562-0.798,2.094
		c-0.522,0.533-1.196,0.799-2.021,0.799c-1.021,0-1.799-0.317-2.336-0.952s-0.811-1.569-0.82-2.806v-0.629
		c0-1.246,0.265-2.195,0.794-2.85s1.312-0.981,2.348-0.981c0.874,0,1.562,0.27,2.065,0.81c0.503,0.539,0.759,1.305,0.769,2.296
		h-1.948c-0.005-0.449-0.078-0.795-0.22-1.036c-0.142-0.242-0.376-0.363-0.703-0.363c-0.361,0-0.62,0.13-0.776,0.388
		s-0.239,0.758-0.249,1.499v0.811c0,0.648,0.032,1.103,0.095,1.36s0.168,0.446,0.315,0.567
		C182.881,287.176,183.088,287.235,183.357,287.235z"/>
	<path fill="#FFFFFF" d="M191.157,288.796c-0.059-0.122-0.117-0.327-0.176-0.615c-0.371,0.508-0.874,0.762-1.509,0.762
		c-0.664,0-1.215-0.22-1.652-0.659s-0.655-1.008-0.655-1.706c0-0.83,0.265-1.473,0.795-1.927c0.529-0.454,1.292-0.686,2.289-0.696
		h0.63v-0.637c0-0.356-0.061-0.607-0.183-0.754s-0.3-0.221-0.535-0.221c-0.518,0-0.776,0.304-0.776,0.908h-2.073
		c0-0.732,0.274-1.336,0.824-1.812c0.549-0.476,1.244-0.714,2.083-0.714c0.869,0,1.542,0.226,2.018,0.678
		c0.476,0.451,0.714,1.098,0.714,1.937v3.729c0.01,0.684,0.107,1.219,0.293,1.604v0.125H191.157z M189.934,287.316
		c0.229,0,0.425-0.046,0.586-0.14c0.161-0.092,0.281-0.202,0.359-0.329V285.2h-0.498c-0.352,0-0.629,0.112-0.832,0.336
		c-0.203,0.226-0.304,0.525-0.304,0.901C189.246,287.023,189.475,287.316,189.934,287.316z"/>
	<path fill="#FFFFFF" d="M196.628,288.796h-2.08v-11.25h2.08V288.796z"/>
	<path fill="#FFFFFF" d="M201.434,288.942c-1.064,0-1.895-0.317-2.49-0.952s-0.895-1.543-0.895-2.725v-0.63
		c0-1.25,0.273-2.214,0.82-2.893s1.331-1.019,2.352-1.019c0.996,0,1.746,0.318,2.248,0.954c0.504,0.637,0.76,1.579,0.77,2.827v1.017
		h-4.123c0.029,0.593,0.158,1.027,0.388,1.302s0.583,0.411,1.062,0.411c0.693,0,1.272-0.241,1.736-0.725l0.812,1.252
		c-0.254,0.352-0.622,0.637-1.105,0.854C202.524,288.834,202,288.942,201.434,288.942z M200.129,284.079h2.073v-0.192
		c-0.01-0.478-0.088-0.84-0.234-1.086s-0.4-0.37-0.762-0.37s-0.624,0.131-0.788,0.393
		C200.255,283.084,200.158,283.503,200.129,284.079z"/>
</g>
<g>
	<path fill="#FFFFFF" d="M145.524,290.168h-3.246V277.64l-3.875,1.196v-2.616l6.772-2.426h0.348V290.168z"/>
	<path fill="#FFFFFF" d="M151.128,279.375c0-0.516,0.174-0.936,0.522-1.258c0.349-0.321,0.785-0.482,1.309-0.482
		c0.532,0,0.972,0.161,1.319,0.482c0.349,0.322,0.522,0.742,0.522,1.258c0,0.51-0.172,0.923-0.517,1.241s-0.786,0.478-1.325,0.478
		c-0.532,0-0.97-0.159-1.314-0.478S151.128,279.885,151.128,279.375z M151.128,288.573c0-0.517,0.174-0.936,0.522-1.258
		c0.349-0.322,0.785-0.483,1.309-0.483c0.532,0,0.972,0.161,1.319,0.483c0.349,0.322,0.522,0.741,0.522,1.258
		c0,0.509-0.172,0.923-0.517,1.241s-0.786,0.477-1.325,0.477c-0.532,0-0.97-0.158-1.314-0.477S151.128,289.082,151.128,288.573z"/>
	<path fill="#FFFFFF" d="M167.282,273.648v2.672h-0.314c-1.467,0.023-2.648,0.404-3.543,1.146c-0.895,0.74-1.432,1.771-1.611,3.088
		c0.869-0.884,1.965-1.325,3.291-1.325c1.422,0,2.553,0.509,3.392,1.527s1.258,2.358,1.258,4.021c0,1.063-0.23,2.025-0.691,2.887
		c-0.46,0.86-1.111,1.53-1.954,2.01c-0.842,0.479-1.795,0.719-2.858,0.719c-1.722,0-3.113-0.599-4.172-1.797
		c-1.059-1.198-1.589-2.797-1.589-4.795v-1.168c0-1.775,0.335-3.342,1.005-4.7c0.67-1.359,1.632-2.411,2.887-3.156
		c1.254-0.745,2.708-1.121,4.363-1.128H167.282z M164.115,281.846c-0.524,0-1,0.137-1.426,0.41
		c-0.427,0.272-0.741,0.633-0.943,1.081v0.986c0,1.084,0.213,1.931,0.64,2.539c0.427,0.609,1.026,0.913,1.797,0.913
		c0.696,0,1.26-0.274,1.69-0.823c0.431-0.55,0.646-1.261,0.646-2.136c0-0.889-0.217-1.606-0.651-2.152
		C165.433,282.119,164.849,281.846,164.115,281.846z"/>
</g>
<g>
	<path fill="#FFFFFF" d="M165.041,92.446h-2.937l-0.571,2.183h-2.278l3.333-10.664h1.97l3.354,10.664h-2.3L165.041,92.446z
		 M162.573,90.652h1.992l-0.996-3.802L162.573,90.652z"/>
	<path fill="#FFFFFF" d="M174.98,90.916c0,1.244-0.214,2.199-0.641,2.863c-0.428,0.664-1.063,0.996-1.908,0.996
		c-0.645,0-1.162-0.261-1.553-0.783v3.684h-2.073V86.704h1.919l0.073,0.726c0.396-0.581,0.935-0.872,1.619-0.872
		c0.845,0,1.48,0.308,1.908,0.923c0.427,0.615,0.646,1.558,0.655,2.827V90.916z M172.915,90.402c0-0.77-0.084-1.312-0.253-1.631
		c-0.168-0.318-0.453-0.479-0.853-0.479c-0.425,0-0.735,0.18-0.93,0.537v3.725c0.186,0.343,0.5,0.514,0.945,0.514
		c0.41,0,0.694-0.174,0.853-0.521s0.238-0.889,0.238-1.623V90.402z"/>
	<path fill="#FFFFFF" d="M182.407,90.916c0,1.244-0.214,2.199-0.641,2.863c-0.428,0.664-1.063,0.996-1.908,0.996
		c-0.645,0-1.162-0.261-1.553-0.783v3.684h-2.073V86.704h1.919l0.073,0.726c0.396-0.581,0.935-0.872,1.619-0.872
		c0.845,0,1.48,0.308,1.908,0.923c0.427,0.615,0.646,1.558,0.655,2.827V90.916z M180.341,90.402c0-0.77-0.084-1.312-0.253-1.631
		c-0.168-0.318-0.453-0.479-0.853-0.479c-0.425,0-0.735,0.18-0.93,0.537v3.725c0.186,0.343,0.5,0.514,0.945,0.514
		c0.41,0,0.694-0.174,0.853-0.521s0.238-0.889,0.238-1.623V90.402z"/>
	<path fill="#FFFFFF" d="M187.57,88.703l-0.688-0.059c-0.566,0-0.95,0.25-1.15,0.748v5.236h-2.08v-7.925h1.956l0.059,0.856
		c0.327-0.668,0.779-1.003,1.355-1.003c0.234,0,0.425,0.032,0.571,0.095L187.57,88.703z"/>
	<path fill="#FFFFFF" d="M188.391,90.41c0-1.201,0.283-2.144,0.85-2.827s1.35-1.025,2.351-1.025c1.011,0,1.799,0.342,2.366,1.025
		s0.85,1.631,0.85,2.842v0.505c0,1.207-0.281,2.149-0.842,2.828s-1.348,1.018-2.358,1.018c-1.016,0-1.805-0.341-2.37-1.021
		c-0.563-0.682-0.846-1.627-0.846-2.838V90.41z M190.471,90.932c0,1.425,0.378,2.137,1.135,2.137c0.698,0,1.074-0.594,1.128-1.783
		l0.007-0.877c0-0.727-0.1-1.266-0.3-1.617s-0.483-0.527-0.85-0.527c-0.352,0-0.626,0.176-0.824,0.527
		c-0.198,0.352-0.297,0.891-0.297,1.617V90.932z"/>
	<path fill="#FFFFFF" d="M198.747,89.055l0.923-2.351h2.197l-1.809,3.874l1.875,4.051h-2.205l-0.975-2.482l-0.967,2.482h-2.211
		l1.875-4.051l-1.795-3.874h2.205L198.747,89.055z"/>
	<path fill="#FFFFFF" d="M202.885,84.653c0-0.322,0.104-0.586,0.309-0.791s0.479-0.308,0.82-0.308s0.615,0.103,0.82,0.308
		s0.307,0.469,0.307,0.791c0,0.317-0.102,0.581-0.304,0.791s-0.478,0.315-0.823,0.315c-0.348,0-0.622-0.105-0.824-0.315
		C202.986,85.234,202.885,84.971,202.885,84.653z M205.061,94.629h-2.08v-7.925h2.08V94.629z"/>
	<path fill="#FFFFFF" d="M208.613,86.704l0.059,0.732c0.463-0.586,1.076-0.879,1.838-0.879c0.791,0,1.35,0.356,1.678,1.069
		c0.453-0.713,1.101-1.069,1.94-1.069c1.387,0,2.097,0.96,2.132,2.878v5.193h-2.073v-5.061c0-0.459-0.063-0.786-0.19-0.982
		c-0.127-0.194-0.342-0.293-0.645-0.293c-0.386,0-0.674,0.237-0.864,0.711l0.015,0.249v5.376h-2.072v-5.047
		c0-0.453-0.062-0.782-0.184-0.984c-0.122-0.203-0.34-0.305-0.652-0.305c-0.355,0-0.639,0.193-0.85,0.579v5.757h-2.072v-7.925
		H208.613z"/>
	<path fill="#FFFFFF" d="M221.555,94.629c-0.059-0.122-0.117-0.327-0.176-0.615c-0.371,0.508-0.874,0.762-1.509,0.762
		c-0.664,0-1.215-0.22-1.651-0.659c-0.438-0.439-0.656-1.008-0.656-1.706c0-0.83,0.266-1.473,0.795-1.927s1.293-0.686,2.289-0.696
		h0.63V89.15c0-0.356-0.062-0.607-0.183-0.754c-0.123-0.146-0.301-0.221-0.535-0.221c-0.518,0-0.776,0.304-0.776,0.908h-2.073
		c0-0.732,0.275-1.336,0.824-1.812c0.549-0.476,1.244-0.714,2.084-0.714c0.869,0,1.541,0.226,2.018,0.678
		c0.477,0.451,0.715,1.098,0.715,1.937V92.9c0.01,0.684,0.107,1.219,0.293,1.604v0.125H221.555z M220.332,93.149
		c0.229,0,0.424-0.046,0.586-0.14c0.16-0.092,0.28-0.202,0.358-0.329v-1.647h-0.498c-0.352,0-0.629,0.112-0.831,0.336
		c-0.203,0.226-0.305,0.525-0.305,0.901C219.643,92.856,219.873,93.149,220.332,93.149z"/>
	<path fill="#FFFFFF" d="M227.26,84.756v1.948h1.062v1.553h-1.062v3.939c0,0.312,0.043,0.528,0.129,0.646
		c0.085,0.117,0.25,0.176,0.494,0.176c0.2,0,0.363-0.017,0.49-0.051l-0.014,1.611c-0.352,0.131-0.732,0.197-1.143,0.197
		c-1.338,0-2.015-0.768-2.029-2.303v-4.216h-0.916v-1.553h0.916v-1.948H227.26z"/>
	<path fill="#FFFFFF" d="M232.658,94.775c-1.064,0-1.895-0.317-2.49-0.952s-0.894-1.543-0.894-2.725v-0.63
		c0-1.25,0.273-2.214,0.82-2.893s1.331-1.019,2.351-1.019c0.996,0,1.746,0.318,2.249,0.954c0.503,0.637,0.759,1.579,0.769,2.827
		v1.017h-4.123c0.029,0.593,0.158,1.027,0.389,1.302c0.229,0.274,0.583,0.411,1.062,0.411c0.693,0,1.272-0.241,1.735-0.725
		l0.813,1.252c-0.254,0.352-0.622,0.637-1.106,0.854C233.75,94.667,233.225,94.775,232.658,94.775z M231.354,89.912h2.073V89.72
		c-0.01-0.478-0.088-0.84-0.234-1.086s-0.4-0.37-0.762-0.37s-0.625,0.131-0.788,0.393C231.48,88.917,231.384,89.336,231.354,89.912z
		"/>
	<path fill="#FFFFFF" d="M238.811,94.629h-2.08v-11.25h2.08V94.629z"/>
	<path fill="#FFFFFF" d="M242.956,91.18l1.055-4.476h2.212l-2.607,9.111c-0.391,1.343-1.125,2.015-2.205,2.015
		c-0.248,0-0.531-0.047-0.85-0.14v-1.618l0.242,0.007c0.322,0,0.564-0.062,0.729-0.187c0.164-0.125,0.287-0.341,0.37-0.648
		l0.161-0.535l-2.285-8.005h2.227L242.956,91.18z"/>
</g>
<g>
	<path fill="#FFFFFF" d="M219.189,115.172c0-0.176-0.084-0.338-0.252-0.487c-0.168-0.148-0.543-0.35-1.125-0.604
		c-0.854-0.347-1.441-0.706-1.762-1.077c-0.319-0.371-0.479-0.832-0.479-1.384c0-0.693,0.25-1.267,0.75-1.718
		c0.5-0.452,1.164-0.678,1.988-0.678c0.869,0,1.565,0.225,2.088,0.674s0.783,1.053,0.783,1.81h-2.072
		c0-0.645-0.269-0.967-0.806-0.967c-0.22,0-0.4,0.068-0.542,0.205s-0.213,0.327-0.213,0.57c0,0.176,0.078,0.331,0.234,0.466
		c0.156,0.134,0.525,0.325,1.106,0.575c0.845,0.312,1.441,0.66,1.79,1.043c0.35,0.384,0.524,0.881,0.524,1.49
		c0,0.709-0.267,1.277-0.798,1.707c-0.533,0.43-1.23,0.645-2.096,0.645c-0.58,0-1.094-0.113-1.537-0.341
		c-0.445-0.227-0.793-0.543-1.045-0.948c-0.251-0.405-0.377-0.842-0.377-1.311h1.971c0.01,0.361,0.094,0.632,0.252,0.812
		c0.159,0.181,0.42,0.271,0.781,0.271C218.912,115.927,219.189,115.675,219.189,115.172z"/>
	<path fill="#FFFFFF" d="M225.357,115.735c0.6,0,0.905-0.395,0.915-1.186h1.948c-0.01,0.863-0.275,1.562-0.799,2.094
		c-0.521,0.533-1.195,0.799-2.021,0.799c-1.02,0-1.799-0.317-2.336-0.952s-0.811-1.569-0.82-2.806v-0.629
		c0-1.246,0.265-2.195,0.795-2.85c0.529-0.654,1.312-0.981,2.348-0.981c0.873,0,1.562,0.27,2.064,0.81
		c0.504,0.539,0.76,1.305,0.77,2.296h-1.948c-0.005-0.449-0.078-0.795-0.22-1.036c-0.142-0.242-0.376-0.363-0.703-0.363
		c-0.361,0-0.62,0.13-0.776,0.388s-0.239,0.758-0.249,1.499v0.811c0,0.648,0.031,1.103,0.096,1.36
		c0.062,0.258,0.168,0.446,0.314,0.567C224.881,115.676,225.088,115.735,225.357,115.735z"/>
	<path fill="#FFFFFF" d="M233.157,117.296c-0.059-0.122-0.117-0.327-0.176-0.615c-0.371,0.508-0.874,0.762-1.509,0.762
		c-0.664,0-1.215-0.22-1.652-0.659c-0.437-0.439-0.654-1.008-0.654-1.706c0-0.83,0.264-1.473,0.795-1.927
		c0.529-0.454,1.292-0.686,2.288-0.696h0.63v-0.637c0-0.356-0.061-0.607-0.184-0.754c-0.121-0.146-0.3-0.221-0.534-0.221
		c-0.518,0-0.776,0.304-0.776,0.908h-2.072c0-0.732,0.273-1.336,0.824-1.812c0.549-0.476,1.243-0.714,2.083-0.714
		c0.869,0,1.542,0.226,2.019,0.678c0.475,0.451,0.713,1.098,0.713,1.937v3.729c0.01,0.684,0.107,1.219,0.293,1.604v0.125H233.157z
		 M231.934,115.816c0.23,0,0.426-0.046,0.586-0.14c0.162-0.092,0.281-0.202,0.359-0.329V113.7h-0.498
		c-0.352,0-0.629,0.112-0.832,0.336c-0.202,0.226-0.303,0.525-0.303,0.901C231.246,115.523,231.475,115.816,231.934,115.816z"/>
	<path fill="#FFFFFF" d="M238.629,117.296h-2.08v-11.25h2.08V117.296z"/>
	<path fill="#FFFFFF" d="M243.434,117.442c-1.064,0-1.895-0.317-2.49-0.952s-0.895-1.543-0.895-2.725v-0.63
		c0-1.25,0.273-2.214,0.82-2.893s1.331-1.019,2.352-1.019c0.996,0,1.746,0.318,2.248,0.954c0.504,0.637,0.76,1.579,0.77,2.827v1.017
		h-4.123c0.029,0.593,0.158,1.027,0.388,1.302s0.583,0.411,1.062,0.411c0.693,0,1.272-0.241,1.736-0.725l0.812,1.252
		c-0.254,0.352-0.622,0.637-1.105,0.854C244.524,117.334,244,117.442,243.434,117.442z M242.129,112.579h2.073v-0.192
		c-0.01-0.478-0.088-0.84-0.234-1.086s-0.4-0.37-0.762-0.37s-0.624,0.131-0.788,0.393
		C242.255,111.584,242.158,112.003,242.129,112.579z"/>
</g>
<g>
	<path fill="#FFFFFF" d="M167.357,118.668h-3.246V106.14l-3.875,1.196v-2.616l6.772-2.426h0.348V118.668z"/>
	<path fill="#FFFFFF" d="M172.961,107.875c0-0.516,0.174-0.936,0.522-1.258c0.349-0.321,0.785-0.482,1.309-0.482
		c0.532,0,0.972,0.161,1.319,0.482c0.349,0.322,0.522,0.742,0.522,1.258c0,0.51-0.172,0.923-0.517,1.241s-0.786,0.478-1.325,0.478
		c-0.532,0-0.97-0.159-1.314-0.478S172.961,108.385,172.961,107.875z M172.961,117.073c0-0.517,0.174-0.936,0.522-1.258
		c0.349-0.322,0.785-0.483,1.309-0.483c0.532,0,0.972,0.161,1.319,0.483c0.349,0.322,0.522,0.741,0.522,1.258
		c0,0.509-0.172,0.923-0.517,1.241s-0.786,0.477-1.325,0.477c-0.532,0-0.97-0.158-1.314-0.477S172.961,117.582,172.961,117.073z"/>
	<path fill="#FFFFFF" d="M180.793,110.627l0.943-8.311h9.164v2.707h-6.502l-0.404,3.515c0.771-0.412,1.591-0.618,2.459-0.618
		c1.557,0,2.778,0.483,3.661,1.449s1.325,2.317,1.325,4.055c0,1.055-0.223,2-0.668,2.835c-0.446,0.835-1.084,1.482-1.915,1.943
		c-0.831,0.46-1.812,0.69-2.942,0.69c-0.988,0-1.905-0.2-2.751-0.601s-1.514-0.964-2.004-1.69c-0.491-0.727-0.751-1.554-0.781-2.482
		h3.212c0.067,0.682,0.305,1.212,0.713,1.59c0.408,0.378,0.941,0.566,1.6,0.566c0.734,0,1.299-0.264,1.696-0.791
		c0.397-0.528,0.595-1.275,0.595-2.24c0-0.929-0.229-1.641-0.685-2.135s-1.104-0.74-1.943-0.74c-0.771,0-1.396,0.201-1.875,0.605
		l-0.314,0.293L180.793,110.627z"/>
	<path fill="#FFFFFF" d="M193.81,117.073c0-0.517,0.174-0.936,0.522-1.258c0.348-0.322,0.784-0.483,1.308-0.483
		c0.532,0,0.971,0.161,1.32,0.483c0.348,0.322,0.522,0.741,0.522,1.258c0,0.509-0.173,0.923-0.517,1.241s-0.786,0.477-1.325,0.477
		c-0.532,0-0.97-0.158-1.314-0.477S193.81,117.582,193.81,117.073z"/>
	<path fill="#FFFFFF" d="M200.672,110.627l0.943-8.311h9.164v2.707h-6.503l-0.404,3.515c0.771-0.412,1.591-0.618,2.46-0.618
		c1.557,0,2.777,0.483,3.66,1.449c0.884,0.966,1.326,2.317,1.326,4.055c0,1.055-0.223,2-0.668,2.835
		c-0.446,0.835-1.084,1.482-1.916,1.943c-0.83,0.46-1.812,0.69-2.941,0.69c-0.988,0-1.906-0.2-2.752-0.601s-1.514-0.964-2.004-1.69
		c-0.491-0.727-0.752-1.554-0.781-2.482h3.212c0.067,0.682,0.306,1.212,0.714,1.59c0.407,0.378,0.941,0.566,1.6,0.566
		c0.734,0,1.299-0.264,1.695-0.791c0.397-0.528,0.596-1.275,0.596-2.24c0-0.929-0.229-1.641-0.686-2.135
		c-0.456-0.494-1.104-0.74-1.942-0.74c-0.771,0-1.396,0.201-1.876,0.605l-0.314,0.293L200.672,110.627z"/>
</g>
</svg>
