<?xml version="1.0" encoding="utf-8"?>
<!-- Generator: Adobe Illustrator 16.0.4, SVG Export Plug-In . SVG Version: 6.00 Build 0)  -->
<!DOCTYPE svg PUBLIC "-//W3C//DTD SVG 1.1//EN" "http://www.w3.org/Graphics/SVG/1.1/DTD/svg11.dtd">
<svg version="1.1" id="レイヤー_1" xmlns="http://www.w3.org/2000/svg" xmlns:xlink="http://www.w3.org/1999/xlink" x="0px"
	 y="0px" width="471.543px" height="150.959px" viewBox="0 0 471.543 150.959" enable-background="new 0 0 471.543 150.959"
	 xml:space="preserve">
<polygon fill="#808080" points="236.828,45.004 236.357,44.848 109.357,2.848 110.299,0 236.828,41.844 363.357,0 364.299,2.848 "/>
<g>
	<path fill="#394E98" d="M55.459,86.818l3.262-17.832h6.797l-6.035,28.438h-7.109l-3.809-16.211l-3.73,16.211h-7.09l-6.055-28.438
		h6.816l3.262,17.832l3.906-17.832h5.82L55.459,86.818z"/>
	<path fill="#394E98" d="M78.115,97.814c-3.242,0-5.866-0.967-7.871-2.9c-2.005-1.934-3.008-4.45-3.008-7.549v-0.547
		c0-2.161,0.4-4.069,1.201-5.723s1.969-2.933,3.506-3.838c1.536-0.905,3.359-1.357,5.469-1.357c2.969,0,5.312,0.921,7.031,2.764
		s2.578,4.411,2.578,7.705v2.559H73.936c0.234,1.185,0.749,2.116,1.543,2.793c0.794,0.677,1.823,1.016,3.086,1.016
		c2.083,0,3.711-0.729,4.883-2.188l3.008,3.555c-0.82,1.133-1.982,2.034-3.486,2.705S79.847,97.814,78.115,97.814z M77.373,80.979
		c-1.927,0-3.073,1.276-3.438,3.828h6.641v-0.508c0.026-1.055-0.241-1.872-0.801-2.451C79.215,81.269,78.415,80.979,77.373,80.979z"
		/>
	<path fill="#394E98" d="M111.533,97.424c-0.234-0.43-0.443-1.062-0.625-1.895c-1.211,1.523-2.904,2.285-5.078,2.285
		c-1.992,0-3.685-0.603-5.078-1.807c-1.394-1.204-2.09-2.718-2.09-4.541c0-2.292,0.846-4.023,2.539-5.195
		c1.692-1.172,4.153-1.758,7.383-1.758h2.031v-1.119c0-1.949-0.84-2.924-2.52-2.924c-1.562,0-2.344,0.772-2.344,2.316H99.17
		c0-2.042,0.869-3.7,2.607-4.975s3.955-1.912,6.65-1.912s4.824,0.657,6.387,1.973s2.363,3.118,2.402,5.41v9.355
		c0.026,1.94,0.325,3.425,0.898,4.453v0.332H111.533z M107.412,93.127c0.82,0,1.5-0.176,2.041-0.527
		c0.54-0.352,0.928-0.749,1.162-1.191v-3.379h-1.914c-2.292,0-3.438,1.028-3.438,3.086c0,0.599,0.202,1.084,0.605,1.455
		C106.272,92.941,106.787,93.127,107.412,93.127z"/>
	<path fill="#394E98" d="M139.111,88.752l2.129-12.461h6.309l-4.98,21.133h-5.566l-3.496-12.539l-3.516,12.539h-5.566l-4.98-21.133
		h6.309l2.09,12.754l3.359-12.754h4.59L139.111,88.752z"/>
	<path fill="#394E98" d="M161.807,97.424c-0.234-0.43-0.443-1.062-0.625-1.895c-1.211,1.523-2.904,2.285-5.078,2.285
		c-1.992,0-3.685-0.603-5.078-1.807c-1.394-1.204-2.09-2.718-2.09-4.541c0-2.292,0.846-4.023,2.539-5.195
		c1.692-1.172,4.153-1.758,7.383-1.758h2.031v-1.119c0-1.949-0.84-2.924-2.52-2.924c-1.562,0-2.344,0.772-2.344,2.316h-6.582
		c0-2.042,0.869-3.7,2.607-4.975s3.955-1.912,6.65-1.912s4.824,0.657,6.387,1.973s2.363,3.118,2.402,5.41v9.355
		c0.026,1.94,0.325,3.425,0.898,4.453v0.332H161.807z M157.686,93.127c0.82,0,1.5-0.176,2.041-0.527
		c0.54-0.352,0.928-0.749,1.162-1.191v-3.379h-1.914c-2.292,0-3.438,1.028-3.438,3.086c0,0.599,0.202,1.084,0.605,1.455
		C156.546,92.941,157.061,93.127,157.686,93.127z"/>
	<path fill="#394E98" d="M171.084,70.822c0-0.943,0.338-1.716,1.016-2.318c0.677-0.603,1.556-0.904,2.637-0.904
		c1.081,0,1.959,0.302,2.637,0.904c0.677,0.603,1.016,1.375,1.016,2.318s-0.339,1.717-1.016,2.318
		c-0.677,0.604-1.556,0.904-2.637,0.904c-1.081,0-1.96-0.301-2.637-0.904C171.422,72.539,171.084,71.766,171.084,70.822z
		 M178.076,97.424h-6.602V76.291h6.602V97.424z"/>
	<path fill="#394E98" d="M189.795,71.037v5.254h3.477v4.57h-3.477v9.668c0,0.794,0.143,1.348,0.43,1.66
		c0.286,0.312,0.853,0.469,1.699,0.469c0.651,0,1.198-0.039,1.641-0.117v4.707c-1.185,0.378-2.422,0.566-3.711,0.566
		c-2.266,0-3.939-0.534-5.02-1.602c-1.081-1.067-1.621-2.688-1.621-4.863V80.861h-2.695v-4.57h2.695v-5.254H189.795z"/>
	<path fill="#394E98" d="M214.756,92.736c0.924,0,1.641-0.251,2.148-0.752s0.755-1.201,0.742-2.1h6.172
		c0,2.317-0.83,4.219-2.49,5.703s-3.799,2.227-6.416,2.227c-3.073,0-5.495-0.964-7.266-2.891c-1.771-1.927-2.656-4.597-2.656-8.008
		v-0.273c0-2.136,0.394-4.021,1.182-5.654c0.788-1.634,1.924-2.891,3.408-3.77s3.242-1.318,5.273-1.318
		c2.747,0,4.928,0.762,6.543,2.285c1.614,1.523,2.422,3.587,2.422,6.191h-6.172c0-1.094-0.267-1.934-0.801-2.52
		c-0.534-0.586-1.25-0.879-2.148-0.879c-1.706,0-2.702,1.087-2.988,3.262c-0.091,0.69-0.137,1.641-0.137,2.852
		c0,2.122,0.254,3.594,0.762,4.414S213.649,92.736,214.756,92.736z"/>
	<path fill="#394E98" d="M233.037,78.557c1.406-1.771,3.203-2.656,5.391-2.656c2.33,0,4.088,0.69,5.273,2.07
		c1.185,1.38,1.79,3.418,1.816,6.113v13.34h-6.602V84.24c0-1.12-0.229-1.943-0.684-2.471c-0.456-0.527-1.23-0.791-2.324-0.791
		c-1.354,0-2.312,0.43-2.871,1.289v15.156h-6.582v-30h6.582V78.557z"/>
	<path fill="#394E98" d="M261.084,97.424c-0.234-0.43-0.443-1.062-0.625-1.895c-1.211,1.523-2.904,2.285-5.078,2.285
		c-1.992,0-3.686-0.603-5.078-1.807c-1.394-1.204-2.09-2.718-2.09-4.541c0-2.292,0.846-4.023,2.539-5.195
		c1.692-1.172,4.153-1.758,7.383-1.758h2.031v-1.119c0-1.949-0.84-2.924-2.52-2.924c-1.562,0-2.344,0.772-2.344,2.316h-6.582
		c0-2.042,0.869-3.7,2.607-4.975s3.955-1.912,6.65-1.912s4.824,0.657,6.387,1.973s2.363,3.118,2.402,5.41v9.355
		c0.025,1.94,0.325,3.425,0.898,4.453v0.332H261.084z M256.963,93.127c0.82,0,1.5-0.176,2.041-0.527
		c0.54-0.352,0.928-0.749,1.162-1.191v-3.379h-1.914c-2.292,0-3.438,1.028-3.438,3.086c0,0.599,0.201,1.084,0.605,1.455
		C255.823,92.941,256.338,93.127,256.963,93.127z"/>
	<path fill="#394E98" d="M277.354,97.424h-6.602v-30h6.602V97.424z"/>
	<path fill="#394E98" d="M288.35,97.424h-6.602v-30h6.602V97.424z"/>
	<path fill="#394E98" d="M302.627,97.814c-3.242,0-5.866-0.967-7.871-2.9c-2.006-1.934-3.008-4.45-3.008-7.549v-0.547
		c0-2.161,0.4-4.069,1.201-5.723s1.969-2.933,3.506-3.838c1.536-0.905,3.359-1.357,5.469-1.357c2.969,0,5.312,0.921,7.031,2.764
		s2.578,4.411,2.578,7.705v2.559h-13.086c0.234,1.185,0.748,2.116,1.543,2.793c0.794,0.677,1.822,1.016,3.086,1.016
		c2.083,0,3.711-0.729,4.883-2.188l3.008,3.555c-0.82,1.133-1.982,2.034-3.486,2.705S304.358,97.814,302.627,97.814z
		 M301.885,80.979c-1.928,0-3.073,1.276-3.438,3.828h6.641v-0.508c0.025-1.055-0.241-1.872-0.801-2.451
		C303.727,81.269,302.926,80.979,301.885,80.979z"/>
	<path fill="#394E98" d="M320.225,76.291l0.215,2.48c1.458-1.914,3.47-2.871,6.035-2.871c2.2,0,3.844,0.657,4.932,1.973
		c1.087,1.315,1.65,3.294,1.689,5.938v13.613h-6.602v-13.34c0-1.067-0.215-1.853-0.645-2.354s-1.211-0.752-2.344-0.752
		c-1.289,0-2.246,0.508-2.871,1.523v14.922h-6.582V76.291H320.225z"/>
	<path fill="#394E98" d="M335.967,86.701c0-2.136,0.352-4.023,1.055-5.664s1.712-2.907,3.027-3.799
		c1.314-0.892,2.845-1.338,4.59-1.338c2.2,0,3.919,0.742,5.156,2.227l0.234-1.836h5.977v20.332c0,1.862-0.434,3.479-1.299,4.854
		c-0.866,1.374-2.119,2.429-3.76,3.164s-3.542,1.104-5.703,1.104c-1.55,0-3.051-0.293-4.502-0.879
		c-1.452-0.586-2.562-1.348-3.33-2.285l2.754-3.867c1.224,1.445,2.838,2.168,4.844,2.168c2.916,0,4.375-1.497,4.375-4.492v-0.664
		c-1.264,1.394-2.858,2.09-4.785,2.09c-2.578,0-4.662-0.986-6.25-2.959c-1.589-1.973-2.383-4.612-2.383-7.92V86.701z
		 M342.568,87.111c0,1.731,0.325,3.103,0.977,4.111c0.65,1.009,1.562,1.514,2.734,1.514c1.419,0,2.454-0.476,3.105-1.426v-8.887
		c-0.639-0.964-1.66-1.445-3.066-1.445c-1.172,0-2.09,0.524-2.754,1.572S342.568,85.119,342.568,87.111z"/>
	<path fill="#394E98" d="M369.971,97.814c-3.242,0-5.866-0.967-7.871-2.9c-2.006-1.934-3.008-4.45-3.008-7.549v-0.547
		c0-2.161,0.4-4.069,1.201-5.723s1.969-2.933,3.506-3.838c1.536-0.905,3.359-1.357,5.469-1.357c2.969,0,5.312,0.921,7.031,2.764
		s2.578,4.411,2.578,7.705v2.559h-13.086c0.234,1.185,0.748,2.116,1.543,2.793c0.794,0.677,1.822,1.016,3.086,1.016
		c2.083,0,3.711-0.729,4.883-2.188l3.008,3.555c-0.82,1.133-1.982,2.034-3.486,2.705S371.702,97.814,369.971,97.814z
		 M369.229,80.979c-1.928,0-3.073,1.276-3.438,3.828h6.641v-0.508c0.025-1.055-0.241-1.872-0.801-2.451
		C371.07,81.269,370.27,80.979,369.229,80.979z"/>
	<path fill="#394E98" d="M392.939,97.424V80.861h-3.066v-4.57h3.066v-1.68c0-2.409,0.709-4.277,2.129-5.605
		c1.419-1.328,3.411-1.992,5.977-1.992c0.938,0,1.966,0.137,3.086,0.41l0.02,4.844c-0.404-0.117-0.944-0.176-1.621-0.176
		c-1.992,0-2.988,0.859-2.988,2.578v1.621h4.121v4.57h-4.121v16.562H392.939z"/>
	<path fill="#394E98" d="M405.146,86.662c0-2.109,0.41-3.987,1.23-5.635s1.998-2.913,3.535-3.799c1.536-0.886,3.34-1.328,5.41-1.328
		c3.164,0,5.657,0.979,7.48,2.939c1.822,1.96,2.734,4.626,2.734,7.998v0.234c0,3.294-0.915,5.908-2.744,7.842
		c-1.83,1.934-4.307,2.9-7.432,2.9c-3.008,0-5.424-0.901-7.246-2.705c-1.823-1.804-2.807-4.248-2.949-7.334L405.146,86.662z
		 M411.729,87.072c0,1.953,0.306,3.386,0.918,4.297c0.611,0.911,1.517,1.367,2.715,1.367c2.344,0,3.541-1.804,3.594-5.41v-0.664
		c0-3.789-1.211-5.684-3.633-5.684c-2.201,0-3.393,1.634-3.574,4.902L411.729,87.072z"/>
	<path fill="#394E98" d="M441.221,82.248l-2.168-0.156c-2.07,0-3.398,0.651-3.984,1.953v13.379h-6.582V76.291h6.172l0.215,2.715
		c1.106-2.07,2.649-3.105,4.629-3.105c0.703,0,1.314,0.078,1.836,0.234L441.221,82.248z"/>
	<path fill="#394E98" d="M9.277,116.037v5.254h3.477v4.57H9.277v9.668c0,0.794,0.143,1.348,0.43,1.66
		c0.286,0.312,0.853,0.469,1.699,0.469c0.651,0,1.198-0.039,1.641-0.117v4.707c-1.185,0.378-2.422,0.566-3.711,0.566
		c-2.266,0-3.939-0.534-5.02-1.602c-1.081-1.067-1.621-2.688-1.621-4.863v-10.488H0v-4.57h2.695v-5.254H9.277z"/>
	<path fill="#394E98" d="M21.777,123.557c1.406-1.771,3.203-2.656,5.391-2.656c2.331,0,4.088,0.69,5.273,2.07
		c1.185,1.38,1.79,3.418,1.816,6.113v13.34h-6.602V129.24c0-1.12-0.228-1.943-0.684-2.471c-0.456-0.527-1.23-0.791-2.324-0.791
		c-1.354,0-2.312,0.43-2.871,1.289v15.156h-6.582v-30h6.582V123.557z"/>
	<path fill="#394E98" d="M37.871,115.822c0-0.943,0.338-1.716,1.016-2.318c0.677-0.603,1.556-0.904,2.637-0.904
		c1.081,0,1.959,0.302,2.637,0.904c0.677,0.603,1.016,1.375,1.016,2.318s-0.339,1.717-1.016,2.318
		c-0.677,0.604-1.556,0.904-2.637,0.904c-1.081,0-1.96-0.301-2.637-0.904C38.209,117.539,37.871,116.766,37.871,115.822z
		 M44.863,142.424h-6.602v-21.133h6.602V142.424z"/>
	<path fill="#394E98" d="M59.98,136.486c0-0.56-0.293-1.009-0.879-1.348s-1.699-0.69-3.34-1.055s-2.995-0.843-4.062-1.436
		c-1.068-0.593-1.882-1.312-2.441-2.158c-0.56-0.847-0.84-1.816-0.84-2.91c0-1.94,0.801-3.538,2.402-4.795s3.698-1.885,6.289-1.885
		c2.786,0,5.026,0.632,6.719,1.895c1.692,1.263,2.539,2.923,2.539,4.98h-6.602c0-1.692-0.892-2.539-2.676-2.539
		c-0.69,0-1.27,0.192-1.738,0.576s-0.703,0.862-0.703,1.436c0,0.586,0.286,1.062,0.859,1.426c0.573,0.364,1.487,0.664,2.744,0.898
		c1.256,0.234,2.36,0.515,3.311,0.84c3.177,1.094,4.766,3.054,4.766,5.879c0,1.927-0.856,3.496-2.568,4.707
		c-1.712,1.211-3.929,1.816-6.65,1.816c-1.81,0-3.425-0.325-4.844-0.977c-1.419-0.651-2.526-1.536-3.32-2.656
		c-0.794-1.12-1.191-2.298-1.191-3.535h6.152c0.026,0.977,0.352,1.689,0.977,2.139s1.426,0.674,2.402,0.674
		c0.898,0,1.572-0.183,2.021-0.547S59.98,137.072,59.98,136.486z"/>
	<path fill="#394E98" d="M88.301,137.736c0.924,0,1.641-0.251,2.148-0.752s0.755-1.201,0.742-2.1h6.172
		c0,2.317-0.83,4.219-2.49,5.703s-3.799,2.227-6.416,2.227c-3.073,0-5.495-0.964-7.266-2.891c-1.771-1.927-2.656-4.597-2.656-8.008
		v-0.273c0-2.136,0.394-4.021,1.182-5.654c0.788-1.634,1.924-2.891,3.408-3.77s3.242-1.318,5.273-1.318
		c2.747,0,4.928,0.762,6.543,2.285c1.614,1.523,2.422,3.587,2.422,6.191h-6.172c0-1.094-0.267-1.934-0.801-2.52
		c-0.534-0.586-1.25-0.879-2.148-0.879c-1.706,0-2.702,1.087-2.988,3.262c-0.091,0.69-0.137,1.641-0.137,2.852
		c0,2.122,0.254,3.594,0.762,4.414S87.194,137.736,88.301,137.736z"/>
	<path fill="#394E98" d="M106.582,123.557c1.406-1.771,3.203-2.656,5.391-2.656c2.331,0,4.088,0.69,5.273,2.07
		c1.185,1.38,1.79,3.418,1.816,6.113v13.34h-6.602V129.24c0-1.12-0.228-1.943-0.684-2.471c-0.456-0.527-1.23-0.791-2.324-0.791
		c-1.354,0-2.312,0.43-2.871,1.289v15.156H100v-30h6.582V123.557z"/>
	<path fill="#394E98" d="M134.629,142.424c-0.234-0.43-0.443-1.062-0.625-1.895c-1.211,1.523-2.904,2.285-5.078,2.285
		c-1.992,0-3.685-0.603-5.078-1.807c-1.394-1.204-2.09-2.718-2.09-4.541c0-2.292,0.846-4.023,2.539-5.195
		c1.692-1.172,4.153-1.758,7.383-1.758h2.031v-1.119c0-1.949-0.84-2.924-2.52-2.924c-1.562,0-2.344,0.772-2.344,2.316h-6.582
		c0-2.042,0.869-3.7,2.607-4.975s3.955-1.912,6.65-1.912s4.824,0.657,6.387,1.973s2.363,3.118,2.402,5.41v9.355
		c0.026,1.94,0.325,3.425,0.898,4.453v0.332H134.629z M130.508,138.127c0.82,0,1.5-0.176,2.041-0.527
		c0.54-0.352,0.928-0.749,1.162-1.191v-3.379h-1.914c-2.292,0-3.438,1.028-3.438,3.086c0,0.599,0.202,1.084,0.605,1.455
		C129.368,137.941,129.883,138.127,130.508,138.127z"/>
	<path fill="#394E98" d="M150.898,142.424h-6.602v-30h6.602V142.424z"/>
	<path fill="#394E98" d="M161.895,142.424h-6.602v-30h6.602V142.424z"/>
	<path fill="#394E98" d="M176.172,142.814c-3.242,0-5.866-0.967-7.871-2.9c-2.005-1.934-3.008-4.45-3.008-7.549v-0.547
		c0-2.161,0.4-4.069,1.201-5.723s1.969-2.933,3.506-3.838c1.536-0.905,3.359-1.357,5.469-1.357c2.969,0,5.312,0.921,7.031,2.764
		s2.578,4.411,2.578,7.705v2.559h-13.086c0.234,1.185,0.749,2.116,1.543,2.793c0.794,0.677,1.823,1.016,3.086,1.016
		c2.083,0,3.711-0.729,4.883-2.188l3.008,3.555c-0.82,1.133-1.982,2.034-3.486,2.705S177.903,142.814,176.172,142.814z
		 M175.43,125.979c-1.927,0-3.073,1.276-3.438,3.828h6.641v-0.508c0.026-1.055-0.241-1.872-0.801-2.451
		C177.272,126.269,176.471,125.979,175.43,125.979z"/>
	<path fill="#394E98" d="M193.77,121.291l0.215,2.48c1.458-1.914,3.47-2.871,6.035-2.871c2.2,0,3.844,0.657,4.932,1.973
		c1.087,1.315,1.65,3.294,1.689,5.938v13.613h-6.602v-13.34c0-1.067-0.215-1.853-0.645-2.354s-1.211-0.752-2.344-0.752
		c-1.289,0-2.246,0.508-2.871,1.523v14.922h-6.582v-21.133H193.77z"/>
	<path fill="#394E98" d="M209.512,131.701c0-2.136,0.352-4.023,1.055-5.664s1.712-2.907,3.027-3.799
		c1.315-0.892,2.845-1.338,4.59-1.338c2.2,0,3.919,0.742,5.156,2.227l0.234-1.836h5.977v20.332c0,1.862-0.433,3.479-1.299,4.854
		c-0.866,1.374-2.119,2.429-3.76,3.164s-3.542,1.104-5.703,1.104c-1.55,0-3.05-0.293-4.502-0.879
		c-1.452-0.586-2.562-1.348-3.33-2.285l2.754-3.867c1.224,1.445,2.838,2.168,4.844,2.168c2.917,0,4.375-1.497,4.375-4.492v-0.664
		c-1.263,1.394-2.858,2.09-4.785,2.09c-2.578,0-4.662-0.986-6.25-2.959c-1.589-1.973-2.383-4.612-2.383-7.92V131.701z
		 M216.113,132.111c0,1.731,0.325,3.103,0.977,4.111c0.651,1.009,1.562,1.514,2.734,1.514c1.419,0,2.454-0.476,3.105-1.426v-8.887
		c-0.638-0.964-1.66-1.445-3.066-1.445c-1.172,0-2.09,0.524-2.754,1.572S216.113,130.119,216.113,132.111z"/>
	<path fill="#394E98" d="M243.516,142.814c-3.242,0-5.866-0.967-7.871-2.9c-2.005-1.934-3.008-4.45-3.008-7.549v-0.547
		c0-2.161,0.4-4.069,1.201-5.723s1.969-2.933,3.506-3.838c1.536-0.905,3.359-1.357,5.469-1.357c2.969,0,5.312,0.921,7.031,2.764
		s2.578,4.411,2.578,7.705v2.559h-13.086c0.234,1.185,0.748,2.116,1.543,2.793c0.794,0.677,1.822,1.016,3.086,1.016
		c2.083,0,3.711-0.729,4.883-2.188l3.008,3.555c-0.82,1.133-1.982,2.034-3.486,2.705S245.247,142.814,243.516,142.814z
		 M242.773,125.979c-1.928,0-3.073,1.276-3.438,3.828h6.641v-0.508c0.025-1.055-0.241-1.872-0.801-2.451
		C244.615,126.269,243.814,125.979,242.773,125.979z"/>
	<path fill="#394E98" d="M284.648,132.033c0,3.464-0.717,6.126-2.148,7.988c-1.433,1.862-3.451,2.793-6.055,2.793
		c-2.148,0-3.881-0.853-5.195-2.559l-0.273,2.168h-5.898v-30h6.582v10.566c1.224-1.394,2.806-2.09,4.746-2.09
		c2.63,0,4.661,0.944,6.094,2.832c1.432,1.888,2.148,4.544,2.148,7.969V132.033z M278.047,131.613c0-2.027-0.271-3.474-0.811-4.338
		c-0.541-0.864-1.371-1.297-2.49-1.297c-1.484,0-2.514,0.565-3.086,1.696v8.385c0.56,1.118,1.602,1.677,3.125,1.677
		c1.549,0,2.532-0.754,2.949-2.262C277.942,134.733,278.047,133.446,278.047,131.613z"/>
	<path fill="#394E98" d="M295.996,133.205l3.516-11.914h7.051l-8.613,24.668l-0.371,0.898c-1.225,2.734-3.386,4.102-6.484,4.102
		c-0.859,0-1.765-0.13-2.715-0.389v-4.689h0.859c0.924,0,1.631-0.134,2.119-0.4c0.488-0.268,0.85-0.746,1.084-1.438l0.527-1.406
		l-7.344-21.346h7.031L295.996,133.205z"/>
	<path fill="#394E98" d="M328.945,126.33l5.234-12.344h7.402l-9.16,18.223v10.215h-6.953v-10.215l-9.141-18.223h7.363
		L328.945,126.33z"/>
	<path fill="#394E98" d="M355.254,142.424c-0.234-0.43-0.443-1.062-0.625-1.895c-1.211,1.523-2.904,2.285-5.078,2.285
		c-1.992,0-3.686-0.603-5.078-1.807c-1.394-1.204-2.09-2.718-2.09-4.541c0-2.292,0.846-4.023,2.539-5.195
		c1.692-1.172,4.153-1.758,7.383-1.758h2.031v-1.119c0-1.949-0.84-2.924-2.52-2.924c-1.562,0-2.344,0.772-2.344,2.316h-6.582
		c0-2.042,0.869-3.7,2.607-4.975s3.955-1.912,6.65-1.912s4.824,0.657,6.387,1.973s2.363,3.118,2.402,5.41v9.355
		c0.025,1.94,0.325,3.425,0.898,4.453v0.332H355.254z M351.133,138.127c0.82,0,1.5-0.176,2.041-0.527
		c0.54-0.352,0.928-0.749,1.162-1.191v-3.379h-1.914c-2.292,0-3.438,1.028-3.438,3.086c0,0.599,0.201,1.084,0.605,1.455
		C349.993,137.941,350.508,138.127,351.133,138.127z"/>
	<path fill="#394E98" d="M370.801,121.291l0.215,2.48c1.497-1.914,3.509-2.871,6.035-2.871c2.669,0,4.473,1.062,5.41,3.184
		c1.432-2.122,3.502-3.184,6.211-3.184c4.283,0,6.484,2.591,6.602,7.773v13.75h-6.602v-13.34c0-1.081-0.183-1.868-0.547-2.363
		c-0.365-0.495-1.029-0.742-1.992-0.742c-1.303,0-2.272,0.579-2.91,1.738l0.02,0.273v14.434h-6.602v-13.301
		c0-1.106-0.176-1.907-0.527-2.402s-1.022-0.742-2.012-0.742c-1.264,0-2.227,0.579-2.891,1.738v14.707h-6.582v-21.133H370.801z"/>
	<path fill="#394E98" d="M410.938,142.424c-0.234-0.43-0.443-1.062-0.625-1.895c-1.211,1.523-2.904,2.285-5.078,2.285
		c-1.992,0-3.686-0.603-5.078-1.807c-1.394-1.204-2.09-2.718-2.09-4.541c0-2.292,0.846-4.023,2.539-5.195
		c1.692-1.172,4.153-1.758,7.383-1.758h2.031v-1.119c0-1.949-0.84-2.924-2.52-2.924c-1.562,0-2.344,0.772-2.344,2.316h-6.582
		c0-2.042,0.869-3.7,2.607-4.975s3.955-1.912,6.65-1.912s4.824,0.657,6.387,1.973s2.363,3.118,2.402,5.41v9.355
		c0.025,1.94,0.325,3.425,0.898,4.453v0.332H410.938z M406.816,138.127c0.82,0,1.5-0.176,2.041-0.527
		c0.54-0.352,0.928-0.749,1.162-1.191v-3.379h-1.914c-2.292,0-3.438,1.028-3.438,3.086c0,0.599,0.201,1.084,0.605,1.455
		C405.677,137.941,406.191,138.127,406.816,138.127z"/>
	<path fill="#394E98" d="M426.699,123.557c1.406-1.771,3.203-2.656,5.391-2.656c2.33,0,4.088,0.69,5.273,2.07
		c1.185,1.38,1.79,3.418,1.816,6.113v13.34h-6.602V129.24c0-1.12-0.229-1.943-0.684-2.471c-0.456-0.527-1.23-0.791-2.324-0.791
		c-1.354,0-2.312,0.43-2.871,1.289v15.156h-6.582v-30h6.582V123.557z"/>
	<path fill="#394E98" d="M454.746,142.424c-0.234-0.43-0.443-1.062-0.625-1.895c-1.211,1.523-2.904,2.285-5.078,2.285
		c-1.992,0-3.686-0.603-5.078-1.807c-1.394-1.204-2.09-2.718-2.09-4.541c0-2.292,0.846-4.023,2.539-5.195
		c1.692-1.172,4.153-1.758,7.383-1.758h2.031v-1.119c0-1.949-0.84-2.924-2.52-2.924c-1.562,0-2.344,0.772-2.344,2.316h-6.582
		c0-2.042,0.869-3.7,2.607-4.975s3.955-1.912,6.65-1.912s4.824,0.657,6.387,1.973s2.363,3.118,2.402,5.41v9.355
		c0.025,1.94,0.325,3.425,0.898,4.453v0.332H454.746z M450.625,138.127c0.82,0,1.5-0.176,2.041-0.527
		c0.54-0.352,0.928-0.749,1.162-1.191v-3.379h-1.914c-2.292,0-3.438,1.028-3.438,3.086c0,0.599,0.201,1.084,0.605,1.455
		C449.485,137.941,450,138.127,450.625,138.127z"/>
	<path fill="#394E98" d="M464.238,139.475c0-0.964,0.348-1.755,1.045-2.373c0.696-0.618,1.565-0.928,2.607-0.928
		c1.041,0,1.91,0.31,2.607,0.928c0.696,0.618,1.045,1.409,1.045,2.373s-0.349,1.755-1.045,2.373
		c-0.697,0.618-1.566,0.928-2.607,0.928c-1.042,0-1.911-0.31-2.607-0.928C464.586,141.229,464.238,140.438,464.238,139.475z
		 M470.605,133.42h-5.332l-0.84-19.434h7.012L470.605,133.42z"/>
</g>
</svg>
