<?xml version="1.0" encoding="utf-8"?>
<!-- Generator: Adobe Illustrator 16.0.4, SVG Export Plug-In . SVG Version: 6.00 Build 0)  -->
<!DOCTYPE svg PUBLIC "-//W3C//DTD SVG 1.1//EN" "http://www.w3.org/Graphics/SVG/1.1/DTD/svg11.dtd">
<svg version="1.1" id="レイヤー_1" xmlns="http://www.w3.org/2000/svg" xmlns:xlink="http://www.w3.org/1999/xlink" x="0px"
	 y="0px" width="392px" height="342px" viewBox="0 0 392 342" enable-background="new 0 0 392 342" xml:space="preserve">
<rect x="202.667" y="95.443" fill="none" stroke="#E61F19" stroke-width="2" stroke-miterlimit="10" width="143.53" height="207.324"/>
<rect x="209.293" y="103.021" fill="#F4DCDC" stroke="#E61F19" stroke-width="2" stroke-miterlimit="10" width="129.744" height="43.234"/>
<rect x="255.034" y="108.879" fill="#F4DCDC" stroke="#E61F19" stroke-width="2" stroke-miterlimit="10" width="38.746" height="7.828"/>
<polygon fill="none" stroke="#E61F19" stroke-miterlimit="10" points="283.085,112.02 265.528,112.02 263.106,108.977 
	285.507,108.977 "/>
<line fill="none" stroke="#E61F19" stroke-miterlimit="10" x1="260.18" y1="109.072" x2="260.18" y2="116.684"/>
<line fill="none" stroke="#E61F19" stroke-miterlimit="10" x1="288.256" y1="109.072" x2="288.256" y2="116.684"/>
<rect x="209.293" y="152.604" fill="#F4DCDC" stroke="#E61F19" stroke-width="2" stroke-miterlimit="10" width="129.744" height="43.236"/>
<rect x="209.293" y="202.045" fill="#DBA7A7" stroke="#E61F19" stroke-width="2" stroke-miterlimit="10" width="129.744" height="43.236"/>
<rect x="255.034" y="158.461" fill="#F4DCDC" stroke="#E61F19" stroke-width="2" stroke-miterlimit="10" width="38.746" height="7.83"/>
<polygon fill="none" stroke="#E61F19" stroke-miterlimit="10" points="283.085,161.604 265.528,161.604 263.106,158.557 
	285.507,158.557 "/>
<line fill="none" stroke="#E61F19" stroke-miterlimit="10" x1="260.18" y1="158.656" x2="260.18" y2="166.268"/>
<line fill="none" stroke="#E61F19" stroke-miterlimit="10" x1="288.256" y1="158.656" x2="288.256" y2="166.268"/>
<rect x="209.293" y="251.771" fill="#F4DCDC" stroke="#E61F19" stroke-width="2" stroke-miterlimit="10" width="129.744" height="43.238"/>
<rect x="255.034" y="257.629" fill="#F4DCDC" stroke="#E61F19" stroke-width="2" stroke-miterlimit="10" width="38.746" height="7.83"/>
<polygon fill="none" stroke="#E61F19" stroke-miterlimit="10" points="283.085,260.77 265.528,260.77 263.106,257.727 
	285.507,257.727 "/>
<line fill="none" stroke="#E61F19" stroke-miterlimit="10" x1="260.18" y1="257.824" x2="260.18" y2="265.436"/>
<line fill="none" stroke="#E61F19" stroke-miterlimit="10" x1="288.256" y1="257.824" x2="288.256" y2="265.436"/>
<rect x="41.228" y="244.389" fill="none" stroke="#858585" stroke-width="2" stroke-miterlimit="10" width="143.529" height="58.379"/>
<rect x="47.853" y="251.771" fill="#DDDDDD" stroke="#858585" stroke-width="2" stroke-miterlimit="10" width="129.744" height="43.238"/>
<rect x="93.595" y="257.629" fill="#DDDDDD" stroke="#858585" stroke-width="2" stroke-miterlimit="10" width="38.746" height="7.83"/>
<polygon fill="none" stroke="#858585" stroke-miterlimit="10" points="121.645,260.77 104.088,260.77 101.666,257.727 
	124.065,257.727 "/>
<line fill="none" stroke="#858585" stroke-miterlimit="10" x1="98.74" y1="257.824" x2="98.74" y2="265.436"/>
<line fill="none" stroke="#858585" stroke-miterlimit="10" x1="126.816" y1="257.824" x2="126.816" y2="265.436"/>
<rect x="202.719" y="36.969" fill="none" stroke="#E61F19" stroke-width="2" stroke-miterlimit="10" width="95.094" height="58.377"/>
<rect x="209.345" y="44.35" fill="#F4DCDC" stroke="#E61F19" stroke-width="2" stroke-miterlimit="10" width="81.309" height="43.238"/>
<rect x="230.867" y="50.209" fill="#F4DCDC" stroke="#E61F19" stroke-width="2" stroke-miterlimit="10" width="38.746" height="7.828"/>
<polygon fill="none" stroke="#E61F19" stroke-miterlimit="10" points="258.92,53.352 241.363,53.352 238.941,50.305 261.341,50.305 
	"/>
<line fill="none" stroke="#E61F19" stroke-miterlimit="10" x1="236.014" y1="50.402" x2="236.014" y2="58.014"/>
<line fill="none" stroke="#E61F19" stroke-miterlimit="10" x1="264.089" y1="50.402" x2="264.089" y2="58.014"/>
<g>
	
		<rect x="197.649" y="207.133" fill="#F4DCDC" stroke="#E61F19" stroke-width="2" stroke-miterlimit="10" width="153.171" height="49.75"/>
	
		<rect x="252.223" y="213.875" fill="#F4DCDC" stroke="#E61F19" stroke-width="2" stroke-miterlimit="10" width="44.582" height="9.008"/>
	<polygon fill="#F4DCDC" stroke="#E61F19" stroke-width="2" stroke-miterlimit="10" points="284.499,217.488 264.297,217.488 
		261.512,213.984 287.286,213.984 	"/>
	
		<line fill="#F4DCDC" stroke="#E61F19" stroke-width="2" stroke-miterlimit="10" x1="258.144" y1="214.096" x2="258.144" y2="222.855"/>
	
		<line fill="#F4DCDC" stroke="#E61F19" stroke-width="2" stroke-miterlimit="10" x1="290.448" y1="214.096" x2="290.448" y2="222.855"/>
</g>
<g>
	<path fill="#E61F19" d="M265.121,315.862l-8.303,19.093h-4.497l8.317-18.035h-10.678v-3.437h15.16V315.862z"/>
	<path fill="#E61F19" d="M282.449,315.862l-8.303,19.093h-4.498l8.318-18.035h-10.678v-3.437h15.16V315.862z"/>
	<path fill="#E61F19" d="M295.529,334.955h-4.262v-16.451l-5.088,1.571v-3.437l8.893-3.186h0.457V334.955z"/>
</g>
<g>
	<path fill="#545454" d="M100.263,337.144h-3.81v-14.706l-4.549,1.404v-3.072l7.949-2.848h0.409V337.144z"/>
	<path fill="#545454" d="M118.875,320.074l-7.422,17.069h-4.021l7.436-16.124h-9.545v-3.071h13.553V320.074z"/>
	<path fill="#545454" d="M131.911,329.919h2.175v3.071h-2.175v4.153h-3.81v-4.153h-7.871l-0.172-2.398l8.003-12.644h3.85V329.919z
		 M123.855,329.919h4.246v-6.776l-0.251,0.436L123.855,329.919z"/>
</g>
<rect fill="none" width="392" height="342"/>
<polygon fill="#FFFFFF" points="295.406,206 288.832,174.031 236.918,184.707 241.297,206 "/>
<polygon fill="#FF432A" points="287.832,174.031 262.398,179.262 262.42,185.958 259.476,179.863 250.299,181.75 250.32,188.746 
	247.246,182.378 235.918,184.707 240.297,206 294.406,206 "/>
<g>
	<path fill="#ED1C24" d="M204.812,4.242v7.953h6.49V4.242h2.277v7.477c0,0.914-0.17,1.527-0.512,1.842
		c-0.342,0.318-0.98,0.475-1.918,0.475h-6.186c-0.938,0-1.574-0.156-1.916-0.475c-0.342-0.314-0.512-0.928-0.512-1.842V4.242
		H204.812z"/>
	<path fill="#ED1C24" d="M215.951,14.035V4.242h2.277v7.953h7.344v1.84H215.951z"/>
	<path fill="#ED1C24" d="M231.271,5.99v8.045h-2.279V5.99h-4.496V4.242h11.289V5.99H231.271z"/>
	<path fill="#ED1C24" d="M214.877,28.934v-9.793h10.018v1.672h-7.742v2.182h6.146v1.67h-6.146v2.43h7.836v1.84H214.877z"/>
	<path fill="#ED1C24" d="M239.74,28.934v-9.793h2.277v7.953h7.342v1.84H239.74z"/>
	<path fill="#ED1C24" d="M250.803,28.934v-9.793h2.277v9.793H250.803z"/>
	<path fill="#ED1C24" d="M273.49,20.889v8.045h-2.277v-8.045h-4.496v-1.748h11.289v1.748H273.49z"/>
	<path fill="#ED1C24" d="M279.758,28.934v-9.793h2.277v9.793H279.758z"/>
</g>
<path fill="#ED1C24" d="M292.621,25.08v2.014h-6.148v-6.205h6.148v1.668h2.275v-1.1c0-0.912-0.168-1.523-0.512-1.84
	c-0.34-0.314-0.98-0.477-1.916-0.477h-5.844c-0.938,0-1.576,0.162-1.916,0.477c-0.344,0.316-0.514,0.928-0.514,1.84v5.16
	c0,0.912,0.17,1.527,0.514,1.84c0.34,0.32,0.979,0.477,1.916,0.477h5.844c0.936,0,1.576-0.156,1.916-0.477
	c0.344-0.312,0.512-0.928,0.512-1.84V25.08H292.621z"/>
<polygon fill="#ED1C24" points="259.361,14.035 261.924,14.035 256.307,4.242 254.105,4.242 248.564,14.035 250.842,14.035 
	255.131,6.143 "/>
<polygon fill="#ED1C24" points="236.396,28.934 238.959,28.934 233.342,19.141 231.141,19.141 225.602,28.934 227.877,28.934 
	232.166,21.041 "/>
<g>
	<path fill="#ED1C24" d="M244.443,10.334h1.289c1.467,0,2.201-0.633,2.201-1.895V6.143c0-1.268-0.734-1.9-2.201-1.9h-8.387v9.793
		h2.229l0.012-8.121h5.123c0.354,0,0.6,0.037,0.74,0.115c0.189,0.113,0.283,0.336,0.283,0.668v1.186
		c0,0.332-0.094,0.553-0.283,0.668c-0.141,0.076-0.387,0.115-0.74,0.115h-4.318v1.668h1.357l3.947,3.701h3.264L244.443,10.334z"/>
</g>
<g>
	<path fill="#ED1C24" d="M209.766,25.232h1.291c1.467,0,2.201-0.633,2.201-1.895v-2.297c0-1.268-0.734-1.9-2.201-1.9h-8.387v9.793
		h2.229l0.01-8.121h5.125c0.354,0,0.6,0.037,0.74,0.115c0.188,0.113,0.283,0.336,0.283,0.668v1.186c0,0.33-0.096,0.553-0.283,0.668
		c-0.141,0.076-0.387,0.115-0.74,0.115h-4.318v1.668h1.357l3.947,3.701h3.264L209.766,25.232z"/>
</g>
<path fill="#ED1C24" d="M263.018,22.955h-6.123V20.85h6.432l0.02,0.004h1.936c-0.061-0.564-0.199-1.016-0.484-1.256
	c-0.359-0.305-0.99-0.457-1.887-0.457h-5.561c-0.938,0-1.574,0.162-1.916,0.477c-0.342,0.316-0.514,0.928-0.514,1.84v1.08
	c0,0.914,0.172,1.527,0.514,1.842c0.342,0.318,0.979,0.477,1.916,0.477h6.109v2.238h-6.703v-1.088l-2.012-0.518v1.129
	c0,0.912,0.174,1.527,0.521,1.84c0.348,0.32,0.99,0.477,1.928,0.477h5.83c0.936,0,1.578-0.156,1.926-0.477
	c0.348-0.312,0.521-0.928,0.521-1.84v-1.346c0-0.912-0.174-1.523-0.523-1.84C264.6,23.115,263.957,22.955,263.018,22.955z"/>
<path fill="#545454" d="M78.908,234.149v-9.793h10.018v1.672h-7.742v2.182h6.146v1.67h-6.146v2.43h7.836v1.84H78.908z"/>
<path fill="#545454" d="M103.771,234.149v-9.793h2.277v7.953h7.342v1.84H103.771z"/>
<path fill="#545454" d="M114.834,234.149v-9.793h2.277v9.793H114.834z"/>
<path fill="#545454" d="M137.521,226.104v8.045h-2.277v-8.045h-4.496v-1.748h11.289v1.748H137.521z"/>
<path fill="#545454" d="M143.789,234.149v-9.793h2.277v9.793H143.789z"/>
<path fill="#545454" d="M156.652,230.296v2.014h-6.148v-6.205h6.148v1.668h2.275v-1.1c0-0.912-0.168-1.523-0.512-1.84
	c-0.34-0.314-0.98-0.477-1.916-0.477h-5.844c-0.938,0-1.576,0.162-1.916,0.477c-0.344,0.316-0.514,0.928-0.514,1.84v5.16
	c0,0.912,0.17,1.527,0.514,1.84c0.34,0.32,0.979,0.477,1.916,0.477h5.844c0.936,0,1.576-0.156,1.916-0.477
	c0.344-0.312,0.512-0.928,0.512-1.84v-1.537H156.652z"/>
<polygon fill="#545454" points="100.428,234.149 102.99,234.149 97.373,224.356 95.172,224.356 89.633,234.149 91.908,234.149 
	96.197,226.257 "/>
<g>
	<g>
		<path fill="#545454" d="M73.797,230.448h1.291c1.467,0,2.201-0.633,2.201-1.895v-2.297c0-1.268-0.734-1.9-2.201-1.9h-8.387v9.793
			h2.229l0.01-8.121h5.125c0.354,0,0.6,0.037,0.74,0.115c0.188,0.113,0.283,0.336,0.283,0.668v1.186c0,0.33-0.096,0.553-0.283,0.668
			c-0.141,0.076-0.387,0.115-0.74,0.115h-4.318v1.668h1.357l3.947,3.701h3.264L73.797,230.448z"/>
	</g>
</g>
<path fill="#545454" d="M127.049,228.171h-6.123v-2.105h6.432l0.02,0.004h1.936c-0.061-0.564-0.199-1.016-0.484-1.256
	c-0.359-0.305-0.99-0.457-1.887-0.457h-5.561c-0.938,0-1.574,0.162-1.916,0.477c-0.342,0.316-0.514,0.928-0.514,1.84v1.08
	c0,0.914,0.172,1.527,0.514,1.842c0.342,0.318,0.979,0.477,1.916,0.477h6.109v2.238h-6.703v-1.088l-2.012-0.518v1.129
	c0,0.912,0.174,1.527,0.521,1.84c0.348,0.32,0.99,0.477,1.928,0.477h5.83c0.936,0,1.578-0.156,1.926-0.477
	c0.348-0.312,0.521-0.928,0.521-1.84v-1.346c0-0.912-0.174-1.523-0.523-1.84C128.631,228.331,127.988,228.171,127.049,228.171z"/>
</svg>
