<?xml version="1.0" encoding="utf-8"?>
<!-- Generator: Adobe Illustrator 16.0.4, SVG Export Plug-In . SVG Version: 6.00 Build 0)  -->
<!DOCTYPE svg PUBLIC "-//W3C//DTD SVG 1.1//EN" "http://www.w3.org/Graphics/SVG/1.1/DTD/svg11.dtd">
<svg version="1.1" id="レイヤー_1" xmlns="http://www.w3.org/2000/svg" xmlns:xlink="http://www.w3.org/1999/xlink" x="0px"
	 y="0px" width="392px" height="342px" viewBox="0 0 392 342" enable-background="new 0 0 392 342" xml:space="preserve">
<line fill="none" stroke="#858585" stroke-width="2" stroke-miterlimit="10" x1="49.189" y1="301.676" x2="184.474" y2="301.676"/>
<line fill="#FFFFFF" stroke="#E61F19" stroke-width="2" stroke-miterlimit="10" x1="205.565" y1="301.676" x2="340.85" y2="301.676"/>
<line fill="none" stroke="#858585" stroke-width="2" stroke-miterlimit="10" x1="49.189" y1="296.253" x2="184.474" y2="296.253"/>
<line fill="#FFFFFF" stroke="#E61F19" stroke-width="2" stroke-miterlimit="10" x1="205.565" y1="296.253" x2="340.85" y2="296.253"/>
<line fill="none" stroke="#858585" stroke-width="2" stroke-miterlimit="10" x1="49.189" y1="290.832" x2="184.474" y2="290.832"/>
<line fill="#FFFFFF" stroke="#E61F19" stroke-width="2" stroke-miterlimit="10" x1="205.565" y1="290.832" x2="340.85" y2="290.832"/>
<line fill="none" stroke="#858585" stroke-width="2" stroke-miterlimit="10" x1="49.189" y1="285.408" x2="184.474" y2="285.408"/>
<line fill="#FFFFFF" stroke="#E61F19" stroke-width="2" stroke-miterlimit="10" x1="205.565" y1="285.408" x2="340.85" y2="285.408"/>
<line fill="none" stroke="#858585" stroke-width="2" stroke-miterlimit="10" x1="49.189" y1="279.986" x2="184.474" y2="279.986"/>
<line fill="#FFFFFF" stroke="#E61F19" stroke-width="2" stroke-miterlimit="10" x1="205.565" y1="279.986" x2="340.85" y2="279.986"/>
<line fill="none" stroke="#858585" stroke-width="2" stroke-miterlimit="10" x1="49.189" y1="274.564" x2="184.474" y2="274.564"/>
<line fill="#FFFFFF" stroke="#E61F19" stroke-width="2" stroke-miterlimit="10" x1="205.565" y1="274.564" x2="340.85" y2="274.564"/>
<line fill="none" stroke="#858585" stroke-width="2" stroke-miterlimit="10" x1="49.189" y1="269.141" x2="184.474" y2="269.141"/>
<line fill="#FFFFFF" stroke="#E61F19" stroke-width="2" stroke-miterlimit="10" x1="205.565" y1="269.141" x2="340.85" y2="269.141"/>
<line fill="none" stroke="#858585" stroke-width="2" stroke-miterlimit="10" x1="49.189" y1="263.719" x2="184.474" y2="263.719"/>
<line fill="#FFFFFF" stroke="#E61F19" stroke-width="2" stroke-miterlimit="10" x1="205.565" y1="263.719" x2="340.85" y2="263.719"/>
<line fill="none" stroke="#858585" stroke-width="2" stroke-miterlimit="10" x1="49.189" y1="258.297" x2="184.474" y2="258.297"/>
<line fill="#FFFFFF" stroke="#E61F19" stroke-width="2" stroke-miterlimit="10" x1="205.565" y1="258.297" x2="340.85" y2="258.297"/>
<line fill="none" stroke="#858585" stroke-width="2" stroke-miterlimit="10" x1="49.189" y1="252.873" x2="184.474" y2="252.873"/>
<line fill="#FFFFFF" stroke="#E61F19" stroke-width="2" stroke-miterlimit="10" x1="205.565" y1="252.873" x2="340.85" y2="252.873"/>
<line fill="none" stroke="#858585" stroke-width="2" stroke-miterlimit="10" x1="49.189" y1="247.451" x2="184.474" y2="247.451"/>
<line fill="#FFFFFF" stroke="#E61F19" stroke-width="2" stroke-miterlimit="10" x1="205.565" y1="247.451" x2="340.85" y2="247.451"/>
<line fill="none" stroke="#858585" stroke-width="2" stroke-miterlimit="10" x1="49.189" y1="242.028" x2="184.474" y2="242.028"/>
<line fill="#FFFFFF" stroke="#E61F19" stroke-width="2" stroke-miterlimit="10" x1="205.565" y1="242.028" x2="340.85" y2="242.028"/>
<line fill="none" stroke="#858585" stroke-width="2" stroke-miterlimit="10" x1="49.189" y1="236.607" x2="184.474" y2="236.607"/>
<line fill="#FFFFFF" stroke="#E61F19" stroke-width="2" stroke-miterlimit="10" x1="205.565" y1="236.607" x2="340.85" y2="236.607"/>
<line fill="none" stroke="#858585" stroke-width="2" stroke-miterlimit="10" x1="49.189" y1="231.185" x2="184.474" y2="231.185"/>
<line fill="#FFFFFF" stroke="#E61F19" stroke-width="2" stroke-miterlimit="10" x1="205.565" y1="231.185" x2="340.85" y2="231.185"/>
<line fill="none" stroke="#858585" stroke-width="2" stroke-miterlimit="10" x1="49.189" y1="225.762" x2="184.474" y2="225.762"/>
<line fill="#FFFFFF" stroke="#E61F19" stroke-width="2" stroke-miterlimit="10" x1="205.565" y1="225.762" x2="340.85" y2="225.762"/>
<line fill="#FFFFFF" stroke="#E61F19" stroke-width="2" stroke-miterlimit="10" x1="205.565" y1="220.34" x2="340.85" y2="220.34"/>
<line fill="#FFFFFF" stroke="#E61F19" stroke-width="2" stroke-miterlimit="10" x1="205.565" y1="214.917" x2="340.85" y2="214.917"/>
<line fill="#FFFFFF" stroke="#E61F19" stroke-width="2" stroke-miterlimit="10" x1="205.565" y1="209.494" x2="340.85" y2="209.494"/>
<line fill="#FFFFFF" stroke="#E61F19" stroke-width="2" stroke-miterlimit="10" x1="205.565" y1="204.072" x2="340.85" y2="204.072"/>
<line fill="#FFFFFF" stroke="#E61F19" stroke-width="2" stroke-miterlimit="10" x1="205.565" y1="198.649" x2="340.85" y2="198.649"/>
<line fill="#FFFFFF" stroke="#E61F19" stroke-width="2" stroke-miterlimit="10" x1="205.565" y1="193.227" x2="340.85" y2="193.227"/>
<line fill="#FFFFFF" stroke="#E61F19" stroke-width="2" stroke-miterlimit="10" x1="205.565" y1="187.805" x2="340.85" y2="187.805"/>
<line fill="#FFFFFF" stroke="#E61F19" stroke-width="2" stroke-miterlimit="10" x1="205.565" y1="182.383" x2="340.85" y2="182.383"/>
<line fill="#FFFFFF" stroke="#E61F19" stroke-width="2" stroke-miterlimit="10" x1="205.565" y1="176.96" x2="340.85" y2="176.96"/>
<line fill="#FFFFFF" stroke="#E61F19" stroke-width="2" stroke-miterlimit="10" x1="205.565" y1="171.537" x2="340.85" y2="171.537"/>
<line fill="#FFFFFF" stroke="#E61F19" stroke-width="2" stroke-miterlimit="10" x1="205.565" y1="166.115" x2="340.85" y2="166.115"/>
<line fill="#FFFFFF" stroke="#E61F19" stroke-width="2" stroke-miterlimit="10" x1="205.565" y1="160.692" x2="340.85" y2="160.692"/>
<line fill="#FFFFFF" stroke="#E61F19" stroke-width="2" stroke-miterlimit="10" x1="205.565" y1="155.27" x2="340.85" y2="155.27"/>
<line fill="#FFFFFF" stroke="#E61F19" stroke-width="2" stroke-miterlimit="10" x1="205.565" y1="149.848" x2="340.85" y2="149.848"/>
<line fill="#FFFFFF" stroke="#E61F19" stroke-width="2" stroke-miterlimit="10" x1="205.565" y1="144.425" x2="340.85" y2="144.425"/>
<line fill="#FFFFFF" stroke="#E61F19" stroke-width="2" stroke-miterlimit="10" x1="205.565" y1="139.002" x2="340.85" y2="139.002"/>
<line fill="#FFFFFF" stroke="#E61F19" stroke-width="2" stroke-miterlimit="10" x1="205.565" y1="133.58" x2="340.85" y2="133.58"/>
<line fill="#FFFFFF" stroke="#E61F19" stroke-width="2" stroke-miterlimit="10" x1="205.565" y1="128.157" x2="340.85" y2="128.157"/>
<line fill="#FFFFFF" stroke="#E61F19" stroke-width="2" stroke-miterlimit="10" x1="205.565" y1="122.735" x2="340.85" y2="122.735"/>
<line fill="#FFFFFF" stroke="#E61F19" stroke-width="2" stroke-miterlimit="10" x1="205.565" y1="117.312" x2="340.85" y2="117.312"/>
<line fill="#FFFFFF" stroke="#E61F19" stroke-width="2" stroke-miterlimit="10" x1="205.565" y1="111.891" x2="340.85" y2="111.891"/>
<line fill="#FFFFFF" stroke="#E61F19" stroke-width="2" stroke-miterlimit="10" x1="205.565" y1="106.468" x2="340.85" y2="106.468"/>
<line fill="#FFFFFF" stroke="#E61F19" stroke-width="2" stroke-miterlimit="10" x1="205.565" y1="101.045" x2="340.85" y2="101.045"/>
<line fill="#FFFFFF" stroke="#E61F19" stroke-width="2" stroke-miterlimit="10" x1="205.565" y1="95.623" x2="340.85" y2="95.623"/>
<line fill="#FFFFFF" stroke="#E61F19" stroke-width="2" stroke-miterlimit="10" x1="205.565" y1="90.2" x2="340.85" y2="90.2"/>
<line fill="#FFFFFF" stroke="#E61F19" stroke-width="2" stroke-miterlimit="10" x1="205.565" y1="84.777" x2="340.85" y2="84.777"/>
<line fill="#FFFFFF" stroke="#E61F19" stroke-width="2" stroke-miterlimit="10" x1="205.565" y1="79.355" x2="340.85" y2="79.355"/>
<line fill="#FFFFFF" stroke="#E61F19" stroke-width="2" stroke-miterlimit="10" x1="205.565" y1="73.933" x2="340.85" y2="73.933"/>
<line fill="#FFFFFF" stroke="#E61F19" stroke-width="2" stroke-miterlimit="10" x1="205.565" y1="68.512" x2="340.85" y2="68.512"/>
<line fill="#FFFFFF" stroke="#E61F19" stroke-width="2" stroke-miterlimit="10" x1="205.565" y1="63.088" x2="340.85" y2="63.088"/>
<line fill="#FFFFFF" stroke="#E61F19" stroke-width="2" stroke-miterlimit="10" x1="205.565" y1="57.666" x2="340.85" y2="57.666"/>
<g>
	<polygon fill="#F4DCDC" points="209.524,51.244 231.876,39.184 312.776,39.184 336.652,51.244 	"/>
	<g>
		<path fill="#E61F19" d="M312.538,40.184l19.916,10.061H213.483l18.645-10.061H312.538 M313.015,38.184h-81.392l-26.058,14.061
			H340.85L313.015,38.184L313.015,38.184z"/>
	</g>
</g>
<g>
	<polygon fill="#DDDDDD" points="53.345,220.344 75.695,208.285 156.596,208.285 180.472,220.344 	"/>
	<g>
		<path fill="#858585" d="M156.357,209.285l19.916,10.059H57.305l18.643-10.059H156.357 M156.834,207.285H75.442l-26.057,14.059
			H184.67L156.834,207.285L156.834,207.285z"/>
	</g>
</g>
<g>
	<path fill="#E61F19" d="M270.418,326.873h2.434v3.437h-2.434v4.646h-4.262v-4.646h-8.805l-0.191-2.684l8.951-14.143h4.307V326.873z
		 M261.407,326.873h4.749v-7.58l-0.28,0.487L261.407,326.873z"/>
	<path fill="#E61F19" d="M289.736,315.862l-8.303,19.093h-4.498l8.318-18.035h-10.678v-3.437h15.16V315.862z"/>
</g>
<g>
	<path fill="#545454" d="M112.05,337.144h-3.81v-14.706l-4.548,1.404v-3.072l7.95-2.848h0.409V337.144z"/>
	<path fill="#545454" d="M127.947,317.75v3.139h-0.369c-1.723,0.025-3.109,0.475-4.16,1.344c-1.05,0.871-1.681,2.079-1.892,3.626
		c1.02-1.037,2.307-1.556,3.863-1.556c1.67,0,2.997,0.598,3.981,1.793s1.477,2.769,1.477,4.72c0,1.248-0.27,2.378-0.811,3.388
		c-0.54,1.012-1.305,1.798-2.294,2.36c-0.988,0.562-2.107,0.844-3.355,0.844c-2.021,0-3.654-0.703-4.898-2.109
		s-1.865-3.282-1.865-5.63v-1.371c0-2.082,0.393-3.922,1.18-5.517c0.787-1.596,1.916-2.83,3.389-3.705
		c1.472-0.874,3.179-1.315,5.122-1.325H127.947z M124.229,327.375c-0.615,0-1.173,0.16-1.674,0.48
		c-0.501,0.319-0.87,0.742-1.107,1.27v1.158c0,1.271,0.25,2.266,0.751,2.98s1.204,1.072,2.109,1.072
		c0.817,0,1.479-0.322,1.984-0.968c0.505-0.645,0.758-1.479,0.758-2.507c0-1.044-0.255-1.886-0.765-2.526
		C125.776,327.695,125.09,327.375,124.229,327.375z"/>
</g>
<rect fill="none" width="392" height="342"/>
<g>
	<path fill="#ED1C24" d="M226.354,4.242v7.953h6.49V4.242h2.277v7.477c0,0.914-0.17,1.527-0.512,1.842
		c-0.342,0.318-0.98,0.475-1.918,0.475h-6.186c-0.938,0-1.574-0.156-1.916-0.475c-0.342-0.314-0.512-0.928-0.512-1.842V4.242
		H226.354z"/>
	<path fill="#ED1C24" d="M237.492,14.035V4.242h2.277v7.953h7.344v1.84H237.492z"/>
	<path fill="#ED1C24" d="M252.812,5.99v8.045h-2.279V5.99h-4.496V4.242h11.289V5.99H252.812z"/>
	<path fill="#ED1C24" d="M236.418,28.934v-9.793h10.018v1.672h-7.742v2.182h6.146v1.67h-6.146v2.43h7.836v1.84H236.418z"/>
	<path fill="#ED1C24" d="M261.281,28.934v-9.793h2.277v7.953h7.342v1.84H261.281z"/>
	<path fill="#ED1C24" d="M272.344,28.934v-9.793h2.277v9.793H272.344z"/>
	<path fill="#ED1C24" d="M295.031,20.889v8.045h-2.277v-8.045h-4.496v-1.748h11.289v1.748H295.031z"/>
	<path fill="#ED1C24" d="M301.299,28.934v-9.793h2.277v9.793H301.299z"/>
</g>
<path fill="#ED1C24" d="M314.162,25.08v2.014h-6.148v-6.205h6.148v1.668h2.275v-1.1c0-0.912-0.168-1.523-0.512-1.84
	c-0.34-0.314-0.98-0.477-1.916-0.477h-5.844c-0.938,0-1.576,0.162-1.916,0.477c-0.344,0.316-0.514,0.928-0.514,1.84v5.16
	c0,0.912,0.17,1.527,0.514,1.84c0.34,0.32,0.979,0.477,1.916,0.477h5.844c0.936,0,1.576-0.156,1.916-0.477
	c0.344-0.312,0.512-0.928,0.512-1.84V25.08H314.162z"/>
<polygon fill="#ED1C24" points="280.902,14.035 283.465,14.035 277.848,4.242 275.646,4.242 270.105,14.035 272.383,14.035 
	276.672,6.143 "/>
<polygon fill="#ED1C24" points="257.938,28.934 260.5,28.934 254.883,19.141 252.682,19.141 247.143,28.934 249.418,28.934 
	253.707,21.041 "/>
<g>
	<path fill="#ED1C24" d="M265.984,10.334h1.289c1.467,0,2.201-0.633,2.201-1.895V6.143c0-1.268-0.734-1.9-2.201-1.9h-8.387v9.793
		h2.229l0.012-8.121h5.123c0.354,0,0.6,0.037,0.74,0.115c0.189,0.113,0.283,0.336,0.283,0.668v1.186
		c0,0.332-0.094,0.553-0.283,0.668c-0.141,0.076-0.387,0.115-0.74,0.115h-4.318v1.668h1.357l3.947,3.701h3.264L265.984,10.334z"/>
</g>
<g>
	<path fill="#ED1C24" d="M231.307,25.232h1.291c1.467,0,2.201-0.633,2.201-1.895v-2.297c0-1.268-0.734-1.9-2.201-1.9h-8.387v9.793
		h2.229l0.01-8.121h5.125c0.354,0,0.6,0.037,0.74,0.115c0.188,0.113,0.283,0.336,0.283,0.668v1.186c0,0.33-0.096,0.553-0.283,0.668
		c-0.141,0.076-0.387,0.115-0.74,0.115h-4.318v1.668h1.357l3.947,3.701h3.264L231.307,25.232z"/>
</g>
<path fill="#ED1C24" d="M284.559,22.955h-6.123V20.85h6.432l0.02,0.004h1.936c-0.061-0.564-0.199-1.016-0.484-1.256
	c-0.359-0.305-0.99-0.457-1.887-0.457h-5.561c-0.938,0-1.574,0.162-1.916,0.477c-0.342,0.316-0.514,0.928-0.514,1.84v1.08
	c0,0.914,0.172,1.527,0.514,1.842c0.342,0.318,0.979,0.477,1.916,0.477H285v2.238h-6.703v-1.088l-2.012-0.518v1.129
	c0,0.912,0.174,1.527,0.521,1.84c0.348,0.32,0.99,0.477,1.928,0.477h5.83c0.936,0,1.578-0.156,1.926-0.477
	c0.348-0.312,0.521-0.928,0.521-1.84v-1.346c0-0.912-0.174-1.523-0.523-1.84C286.141,23.115,285.498,22.955,284.559,22.955z"/>
<path fill="#545454" d="M78.354,196.649v-9.793h10.018v1.672h-7.742v2.182h6.146v1.67h-6.146v2.43h7.836v1.84H78.354z"/>
<path fill="#545454" d="M103.217,196.649v-9.793h2.277v7.953h7.342v1.84H103.217z"/>
<path fill="#545454" d="M114.279,196.649v-9.793h2.277v9.793H114.279z"/>
<path fill="#545454" d="M136.967,188.604v8.045h-2.277v-8.045h-4.496v-1.748h11.289v1.748H136.967z"/>
<path fill="#545454" d="M143.234,196.649v-9.793h2.277v9.793H143.234z"/>
<path fill="#545454" d="M156.098,192.796v2.014h-6.148v-6.205h6.148v1.668h2.275v-1.1c0-0.912-0.168-1.523-0.512-1.84
	c-0.34-0.314-0.98-0.477-1.916-0.477h-5.844c-0.938,0-1.576,0.162-1.916,0.477c-0.344,0.316-0.514,0.928-0.514,1.84v5.16
	c0,0.912,0.17,1.527,0.514,1.84c0.34,0.32,0.979,0.477,1.916,0.477h5.844c0.936,0,1.576-0.156,1.916-0.477
	c0.344-0.312,0.512-0.928,0.512-1.84v-1.537H156.098z"/>
<polygon fill="#545454" points="99.873,196.649 102.436,196.649 96.818,186.856 94.617,186.856 89.078,196.649 91.354,196.649 
	95.643,188.757 "/>
<g>
	<g>
		<path fill="#545454" d="M73.242,192.948h1.291c1.467,0,2.201-0.633,2.201-1.895v-2.297c0-1.268-0.734-1.9-2.201-1.9h-8.387v9.793
			h2.229l0.01-8.121h5.125c0.354,0,0.6,0.037,0.74,0.115c0.188,0.113,0.283,0.336,0.283,0.668v1.186c0,0.33-0.096,0.553-0.283,0.668
			c-0.141,0.076-0.387,0.115-0.74,0.115h-4.318v1.668h1.357l3.947,3.701h3.264L73.242,192.948z"/>
	</g>
</g>
<path fill="#545454" d="M126.494,190.671h-6.123v-2.105h6.432l0.02,0.004h1.936c-0.061-0.564-0.199-1.016-0.484-1.256
	c-0.359-0.305-0.99-0.457-1.887-0.457h-5.561c-0.938,0-1.574,0.162-1.916,0.477c-0.342,0.316-0.514,0.928-0.514,1.84v1.08
	c0,0.914,0.172,1.527,0.514,1.842c0.342,0.318,0.979,0.477,1.916,0.477h6.109v2.238h-6.703v-1.088l-2.012-0.518v1.129
	c0,0.912,0.174,1.527,0.521,1.84c0.348,0.32,0.99,0.477,1.928,0.477h5.83c0.936,0,1.578-0.156,1.926-0.477
	c0.348-0.312,0.521-0.928,0.521-1.84v-1.346c0-0.912-0.174-1.523-0.523-1.84C128.076,190.831,127.434,190.671,126.494,190.671z"/>
</svg>
