<?xml version="1.0" encoding="utf-8"?>
<!-- Generator: Adobe Illustrator 21.1.0, SVG Export Plug-In . SVG Version: 6.00 Build 0)  -->
<svg version="1.0" id="レイヤー_1" xmlns="http://www.w3.org/2000/svg" xmlns:xlink="http://www.w3.org/1999/xlink" x="0px"
	 y="0px" viewBox="0 0 116 116.2" style="enable-background:new 0 0 116 116.2;" xml:space="preserve">
<style type="text/css">
	.st0{fill:#FFFFFF;}
</style>
<polygon class="st0" points="2,25.5 0,25.5 0,0 24.5,0 24.5,2 2,2 "/>
<polygon class="st0" points="24.5,116 0,116 0,91.5 2,91.5 2,114 24.5,114 "/>
<polygon class="st0" points="116,116 90.5,116 90.5,114 114,114 114,91.5 116,91.5 "/>
<polygon class="st0" points="116,25.5 114,25.5 114,2 90.5,2 90.5,0 116,0 "/>
<rect x="12.3" y="-3.4" transform="matrix(0.7071 -0.7071 0.7071 0.7071 -5.5012 13.281)" class="st0" width="2" height="33.3"/>
<rect x="85.1" y="12.3" transform="matrix(0.7071 -0.7071 0.7071 0.7071 20.4017 75.8161)" class="st0" width="33.3" height="2"/>
<rect x="-3.4" y="102.7" transform="matrix(0.7071 -0.7071 0.7071 0.7071 -69.4503 39.7696)" class="st0" width="33.3" height="2"/>
<rect x="100.7" y="87.1" transform="matrix(0.7071 -0.7071 0.7071 0.7071 -43.5474 102.3032)" class="st0" width="2" height="33.3"/>
<path class="st0" d="M76,76H40V40h36V76z M43,73h30V43H43V73z"/>
</svg>
