<?xml version="1.0" encoding="utf-8"?>
<!-- Generator: Adobe Illustrator 21.0.0, SVG Export Plug-In . SVG Version: 6.00 Build 0)  -->
<svg version="1.1" id="レイヤー_1" xmlns="http://www.w3.org/2000/svg" xmlns:xlink="http://www.w3.org/1999/xlink" x="0px"
	 y="0px" viewBox="0 0 143.9 38.3" style="enable-background:new 0 0 143.9 38.3;" xml:space="preserve">
<style type="text/css">
	.st0{fill:#97E92F;}
</style>
<polygon class="st0" points="86.3,34.1 88,31.3 75.5,31.3 73.9,34.1 "/>
<polygon class="st0" points="58.2,38.2 50.7,38.2 56.8,28.1 43.9,28.1 45.6,25.1 77.9,25.1 76.2,28.1 64.4,28.1 "/>
<path class="st0" d="M115.3,25.1h28.6L136,38.3l-28.5,0L115.3,25.1z M116,35.7l14.1,0l4.8-8l-14.2,0L116,35.7z"/>
<polygon class="st0" points="20.5,38.2 15.5,38.2 13.5,27.9 7.4,38.2 0,38.2 7.9,25.1 17.5,25.1 19.4,34.5 31.7,25.1 42.7,25.1 
	34.8,38.2 27.7,38.2 34.1,28.2 "/>
<polygon class="st0" points="91.5,38.2 99.2,38.2 107.1,25.1 99.3,25.1 "/>
<g>
	<path class="st0" d="M54.5,12.7h-5.4l-1,3.1h-3.3l5.6-14.9h2.9l5.6,14.9h-3.3L54.5,12.7z M49.9,10.2h3.7l-1.9-5.6L49.9,10.2z"/>
	<path class="st0" d="M70,10.3c0,1.8-0.4,3.2-1.1,4.2c-0.8,1-1.8,1.5-3.2,1.5c-1.2,0-2.2-0.5-2.9-1.4l-0.1,1.2H60V0h3v5.7
		c0.7-0.8,1.6-1.2,2.7-1.2c1.4,0,2.4,0.5,3.2,1.5c0.8,1,1.2,2.4,1.2,4.2V10.3z M67,10.1c0-1.1-0.2-1.9-0.5-2.5
		c-0.4-0.5-0.9-0.8-1.6-0.8c-0.9,0-1.6,0.4-2,1.2v4.4c0.4,0.8,1,1.2,2,1.2c1,0,1.6-0.5,1.9-1.4C66.9,11.7,67,11,67,10.1z"/>
	<path class="st0" d="M71.4,10.1C71.4,9,71.6,8,72,7.2c0.4-0.9,1-1.5,1.8-2c0.8-0.5,1.7-0.7,2.8-0.7c1.5,0,2.7,0.5,3.7,1.4
		c0.9,0.9,1.5,2.2,1.6,3.7l0,0.8c0,1.7-0.5,3.1-1.4,4.1c-1,1-2.2,1.5-3.8,1.5c-1.6,0-2.9-0.5-3.8-1.5c-1-1-1.4-2.4-1.4-4.2V10.1z
		 M74.3,10.3c0,1.1,0.2,1.9,0.6,2.4c0.4,0.6,1,0.8,1.7,0.8c0.7,0,1.3-0.3,1.7-0.8c0.4-0.6,0.6-1.4,0.6-2.6c0-1-0.2-1.8-0.6-2.4
		c-0.4-0.6-1-0.9-1.7-0.9c-0.7,0-1.3,0.3-1.7,0.8C74.5,8.3,74.3,9.1,74.3,10.3z"/>
	<path class="st0" d="M90.4,14.6c-0.7,0.9-1.7,1.3-3,1.3c-1.2,0-2.1-0.3-2.7-1c-0.6-0.7-0.9-1.7-1-3V4.7h3v7.2
		c0,1.2,0.5,1.7,1.6,1.7c1,0,1.7-0.3,2.1-1V4.7h3v11.1h-2.8L90.4,14.6z"/>
	<path class="st0" d="M99,1.9v2.7h1.9v2.2H99v5.5c0,0.4,0.1,0.7,0.2,0.9c0.2,0.2,0.5,0.3,0.9,0.3c0.3,0,0.6,0,0.9-0.1v2.2
		c-0.6,0.2-1.2,0.3-1.8,0.3c-2.1,0-3.1-1-3.2-3.2v-6h-1.6V4.7H96V1.9H99z"/>
</g>
</svg>
