<?xml version="1.0" encoding="utf-8"?>
<!-- Generator: Adobe Illustrator 21.0.0, SVG Export Plug-In . SVG Version: 6.00 Build 0)  -->
<svg version="1.1" id="レイヤー_1" xmlns="http://www.w3.org/2000/svg" xmlns:xlink="http://www.w3.org/1999/xlink" x="0px"
	 y="0px" viewBox="0 0 388.1 119.1" style="enable-background:new 0 0 388.1 119.1;" xml:space="preserve">
<style type="text/css">
	.st0{fill:#FF0007;}
	.st1{fill:#FFFFFF;}
	.st2{fill:#97E92F;}
</style>
<g>
	<path class="st0" d="M20.6,0v17.7H35V0h5.1v16.6c0,2-0.4,3.4-1.1,4.1c-0.8,0.7-2.2,1.1-4.3,1.1H20.9c-2.1,0-3.5-0.4-4.3-1.1
		c-0.8-0.7-1.1-2.1-1.1-4.1V0H20.6z"/>
	<path class="st0" d="M45.3,21.7V0h5.1v17.7h16.3v4.1H45.3z"/>
	<path class="st0" d="M79.4,3.9v17.9h-5.1V3.9h-10V0h25.1v3.9H79.4z"/>
	<path class="st1" d="M194.8,21.7V0h22.2v3.7h-17.2v4.8h13.6v3.7h-13.6v5.4h17.4v4.1H194.8z"/>
	<path class="st1" d="M250,21.7V0h5.1v17.7h16.3v4.1H250z"/>
	<path class="st1" d="M274.6,21.7V0h5.1v21.7H274.6z"/>
	<path class="st1" d="M325,3.9v17.9h-5.1V3.9h-10V0H335v3.9H325z"/>
	<path class="st1" d="M338.9,21.7V0h5.1v21.7H338.9z"/>
	<path class="st1" d="M367.5,13.2v4.5h-13.7V3.9h13.7v3.7h5.1V5.1c0-2-0.4-3.4-1.1-4.1c-0.8-0.7-2.2-1.1-4.3-1.1h-13
		c-2.1,0-3.5,0.4-4.3,1.1c-0.8,0.7-1.1,2.1-1.1,4.1v11.5c0,2,0.4,3.4,1.1,4.1c0.8,0.7,2.2,1.1,4.3,1.1h13c2.1,0,3.5-0.4,4.3-1.1
		c0.8-0.7,1.1-2.1,1.1-4.1v-3.4H367.5z"/>
	<polygon class="st0" points="141.7,21.7 147.4,21.7 134.9,0 130.1,0 117.8,21.7 122.8,21.7 132.3,4.2 	"/>
	<polygon class="st0" points="242.6,21.7 248.3,21.7 235.8,0 231,0 218.7,21.7 223.7,21.7 233.2,4.2 	"/>
	<path class="st0" d="M108.6,13.5h2.9c3.3,0,4.9-1.4,4.9-4.2V4.2c0-2.8-1.6-4.2-4.9-4.2H92.8v21.7h4.9l0-18h11.4
		c0.8,0,1.3,0.1,1.6,0.3c0.4,0.3,0.6,0.7,0.6,1.5v2.6c0,0.7-0.2,1.2-0.6,1.5c-0.3,0.2-0.9,0.3-1.6,0.3h-9.6v3.7h3l8.8,8.2h7.2
		L108.6,13.5z"/>
	<path class="st1" d="M183.5,13.5h2.9c3.3,0,4.9-1.4,4.9-4.2V4.2c0-2.8-1.6-4.2-4.9-4.2h-18.6v21.7h4.9l0-18h11.4
		c0.8,0,1.3,0.1,1.6,0.3c0.4,0.3,0.6,0.7,0.6,1.5v2.6c0,0.7-0.2,1.2-0.6,1.5c-0.3,0.2-0.9,0.3-1.6,0.3h-9.6v3.7h3l8.8,8.2h7.2
		L183.5,13.5z"/>
	<path class="st1" d="M301.7,8.5h-13.6V3.8h14.3l0,0h4.3c-0.1-1.3-0.4-2.3-1.1-2.8c-0.8-0.7-2.2-1-4.2-1h-12.3
		c-2.1,0-3.5,0.4-4.3,1.1c-0.8,0.7-1.1,2.1-1.1,4.1v2.4c0,2,0.4,3.4,1.1,4.1c0.8,0.7,2.2,1.1,4.3,1.1h13.6v5h-14.9v-2.4l-4.5-1.2
		v2.5c0,2,0.4,3.4,1.2,4.1c0.8,0.7,2.2,1.1,4.3,1.1h12.9c2.1,0,3.5-0.4,4.3-1.1c0.8-0.7,1.2-2.1,1.2-4.1v-3c0-2-0.4-3.4-1.2-4.1
		S303.8,8.5,301.7,8.5z"/>
</g>
<g>
	<path class="st1" d="M118.2,58.1V36.3h22.2v3.7h-17.2v4.8h13.7v3.7h-13.7V54h17.4v4.1H118.2z"/>
	<path class="st1" d="M37.5,58.1V36.3h18.6c3.3,0,4.9,1.4,4.9,4.2v4.8c0,2.8-1.6,4.2-4.9,4.2H42.5v8.5H37.5z M53.8,40.1H42.5v5.9
		h11.4c0.8,0,1.3-0.1,1.6-0.3c0.4-0.3,0.6-0.8,0.6-1.5v-2.4c0-0.7-0.2-1.2-0.6-1.5C55.2,40.1,54.6,40.1,53.8,40.1z"/>
	<path class="st1" d="M91.3,58.1V36.3h18.6c3.3,0,4.9,1.4,4.9,4.2v4.8c0,2.8-1.6,4.2-4.9,4.2H96.3v8.5H91.3z M107.7,40.1H96.3v5.9
		h11.4c0.8,0,1.3-0.1,1.6-0.3c0.4-0.3,0.6-0.8,0.6-1.5v-2.4c0-0.7-0.2-1.2-0.6-1.5C109,40.1,108.5,40.1,107.7,40.1z"/>
	<path class="st1" d="M277.9,58.1V36.3h18.5v3.8H283v5.7h9.1v4H283v8.3H277.9z"/>
	<path class="st1" d="M314.2,40.2v17.9h-5.1V40.2h-10v-3.9h25.1v3.9H314.2z"/>
	<path class="st1" d="M209,49.5V54h-13.6V40.2H209v3.7h5.1v-2.4c0-2-0.4-3.4-1.1-4.1c-0.8-0.7-2.2-1.1-4.3-1.1h-13
		c-2.1,0-3.5,0.4-4.3,1.1c-0.8,0.7-1.1,2.1-1.1,4.1v11.5c0,2,0.4,3.4,1.1,4.1c0.8,0.7,2.2,1.1,4.3,1.1h13c2.1,0,3.5-0.4,4.3-1.1
		c0.8-0.7,1.1-2.1,1.1-4.1v-3.4H209z"/>
	<polygon class="st0" points="269.8,58.1 275.5,58.1 263,36.3 258.1,36.3 245.8,58.1 250.9,58.1 260.4,40.6 	"/>
	<polygon class="st0" points="82.9,58.1 88.6,58.1 76.1,36.3 71.2,36.3 58.9,58.1 64,58.1 73.5,40.6 	"/>
	<g>
		<path class="st1" d="M159.7,49.9h2.9c3.3,0,4.9-1.4,4.9-4.2v-5.1c0-2.8-1.6-4.2-4.9-4.2H144v21.7h4.9l0-18h11.4
			c0.8,0,1.3,0.1,1.6,0.3c0.4,0.3,0.6,0.7,0.6,1.5v2.6c0,0.7-0.2,1.2-0.6,1.5c-0.3,0.2-0.9,0.3-1.6,0.3h-9.6v3.7h3l8.8,8.2h7.2
			L159.7,49.9z"/>
	</g>
	<g>
		<path class="st1" d="M234.3,49.9h2.9c3.3,0,4.9-1.4,4.9-4.2v-5.1c0-2.8-1.6-4.2-4.9-4.2h-18.6v21.7h4.9l0-18h11.4
			c0.8,0,1.3,0.1,1.6,0.3c0.4,0.3,0.6,0.7,0.6,1.5v2.6c0,0.7-0.2,1.2-0.6,1.5c-0.3,0.2-0.9,0.3-1.6,0.3h-9.6v3.7h3l8.8,8.2h7.2
			L234.3,49.9z"/>
	</g>
	<path class="st1" d="M345.1,44.8h-13.6v-4.7h14.3l0,0h4.3c-0.1-1.3-0.4-2.3-1.1-2.8c-0.8-0.7-2.2-1-4.2-1h-12.3
		c-2.1,0-3.5,0.4-4.3,1.1c-0.8,0.7-1.1,2.1-1.1,4.1v2.4c0,2,0.4,3.4,1.1,4.1c0.8,0.7,2.2,1.1,4.3,1.1h13.6v5h-14.9v-2.4l-4.5-1.2
		v2.5c0,2,0.4,3.4,1.2,4.1c0.8,0.7,2.2,1.1,4.3,1.1h12.9c2.1,0,3.5-0.4,4.3-1.1c0.8-0.7,1.2-2.1,1.2-4.1v-3c0-2-0.4-3.4-1.2-4.1
		C348.6,45.2,347.2,44.8,345.1,44.8z"/>
</g>
<g>
	<polygon class="st2" points="232.9,107.9 237.4,100.4 203.8,100.4 199.4,107.9 	"/>
	<polygon class="st2" points="157.1,119.1 136.7,119.1 153.2,91.6 118.3,91.6 122.9,83.7 210.2,83.7 205.6,91.6 173.7,91.6 	"/>
	<path class="st2" d="M311.1,83.6h77l-21.2,35.6l-77,0L311.1,83.6z M313.1,112.3l38.2,0l12.9-21.6l-38.3,0L313.1,112.3z"/>
	<polygon class="st2" points="55.2,119 41.9,119 36.4,91.3 20,119 0,119 21.4,83.7 47.1,83.7 52.3,108.9 85.6,83.7 115.2,83.7 
		94,119.1 74.7,119.1 92.1,91.9 	"/>
	<polygon class="st2" points="246.7,119.1 267.6,119.1 289,83.7 268,83.7 	"/>
</g>
</svg>
